<svg xmlns="http://www.w3.org/2000/svg" width="447.672" height="294.513" viewBox="0 0 447.672 294.513">
  <g id="Group_319" data-name="Group 319" transform="translate(-772.905 -3653.97)">
    <g id="Group_179" data-name="Group 179" transform="translate(783 3673)" opacity="0.2">
      <g id="Group_50" data-name="Group 50" transform="translate(0 5.539)">
        <g id="Group_48" data-name="Group 48" transform="translate(0 158.34)" opacity="0.47">
          <path id="Path_48" data-name="Path 48" d="M3.2,249.36a4.494,4.494,0,0,0-2.993,5.672C.943,257.423,4,260.425,6.4,259.688s1.366-4.494,1.87-6.984C8.988,249.288,5.59,248.623,3.2,249.36Z" transform="translate(0.007 -249.09)" fill="#fff"/>
        </g>
        <g id="Group_49" data-name="Group 49" transform="translate(27.624)" opacity="0.47">
          <path id="Path_49" data-name="Path 49" d="M57.813,79.519a12.476,12.476,0,0,0-16.9-5.1C34.837,77.686,28.33,87.51,31.6,93.587s12.953,1.294,19.838,1.375C61.057,95.07,61.075,85.578,57.813,79.519Z" transform="translate(-30.725 -72.935)" fill="#fff"/>
        </g>
      </g>
      <g id="Group_53" data-name="Group 53" transform="translate(4.189)">
        <g id="Group_51" data-name="Group 51" transform="translate(0 30.99)" opacity="0.47">
          <path id="Path_50" data-name="Path 50" d="M420.942,323.9c5.877-9.687,7.351-21.6,6.121-32.936a111.233,111.233,0,0,0-9.219-33.285c-4.422-9.687-10.825-18.348-12.646-29.149-2.413-14.269,3.906-27.986,5.37-41.984,2.92-27.86-15.331-52.417-37.976-65.679-18.392-10.772-39.948-14.812-61.09-14.531-19.03.262-38.023,3.739-56.462,8.428-17.772,4.514-35.141,10.462-53.767,8.583-15.491-1.56-29.442-8.2-43.872-13.145-34.446-11.818-76.159-13.485-107.657,4.5A89.031,89.031,0,0,0,9.119,165.195c-4.6,14.763-5.962,31.716-2.591,46.692,3.755,16.8,10.778,31.58,8.928,49.279C13.945,275.7,8.772,289.83,9.232,304.555A66.907,66.907,0,0,0,21.362,340.1a15.938,15.938,0,0,0,1.5,1.937h378C408.775,337.588,416.191,331.747,420.942,323.9Z" transform="translate(-4.653 -101.25)" fill="#fff"/>
        </g>
        <g id="Group_52" data-name="Group 52" transform="translate(16.936)" opacity="0.81">
          <path id="Path_51" data-name="Path 51" d="M375.281,311c1.349-10.658-1.8-20.558-1.4-30.919.792-19.925,18.775-33.675,25.048-51.593,7.934-22.68,7.548-48.088-2.085-70.192-4.642-10.649-11.425-20.549-20.69-27.4-14.284-10.562-33.021-12.867-50.6-11.523-26.19,1.988-53.833,13.078-80.193,10.054-14.529-1.671-18.973-17.054-26.473-27.193a86.575,86.575,0,0,0-32.832-26.483c-23.586-11.052-51.8-12.1-75.853-2.074C84.55,84.371,62.162,110.489,63.6,140.035c.679,13.664,6.274,27.241,3.689,40.675-3.217,16.871-16.208,32.235-25.614,45.937A103.881,103.881,0,0,0,38.123,338.5h328.13A75.3,75.3,0,0,0,375.281,311Z" transform="translate(-23.495 -66.774)" fill="#fff"/>
        </g>
      </g>
    </g>
    <g id="OBJECTS" transform="translate(804.072 3646.584)">
      <g id="Group_61" data-name="Group 61" transform="translate(275.952 119.494)">
        <g id="Group_59" data-name="Group 59" transform="translate(22.206)">
          <rect id="Rectangle_19" data-name="Rectangle 19" width="65.157" height="26.627" rx="3.33" fill="#ffa000"/>
          <g id="Group_58" data-name="Group 58" transform="translate(12.279 20.988)">
            <g id="Group_56" data-name="Group 56">
              <rect id="Rectangle_20" data-name="Rectangle 20" width="73.491" height="27.56" rx="3.78" fill="#fff"/>
              <rect id="Rectangle_21" data-name="Rectangle 21" width="73.491" height="27.56" rx="3.78" fill="#3fc080"/>
            </g>
            <g id="Group_57" data-name="Group 57" transform="translate(21.44 10.547)">
              <path id="Path_52" data-name="Path 52" d="M404.4,184.594a3.272,3.272,0,1,1,3.272-3.272,3.272,3.272,0,0,1-3.272,3.272Zm0-5.581a.961.961,0,1,0,0-.048Z" transform="translate(-375.677 -178.05)" fill="#fff"/>
              <path id="Path_53" data-name="Path 53" d="M390.712,184.594a3.272,3.272,0,1,1,3.272-3.272,3.272,3.272,0,0,1-3.272,3.272Zm0-5.581a.961.961,0,1,0,0-.048Z" transform="translate(-375.161 -178.05)" fill="#fff"/>
              <path id="Path_54" data-name="Path 54" d="M377.952,184.594a3.272,3.272,0,1,1,3.272-3.272,3.272,3.272,0,0,1-3.272,3.272Zm0-5.581a.961.961,0,1,0,0-.048Z" transform="translate(-374.68 -178.05)" fill="#fff"/>
            </g>
          </g>
        </g>
        <g id="Group_60" data-name="Group 60" transform="translate(0 55.588)">
          <path id="Path_55" data-name="Path 55" d="M373.845,297.294h-10a4.427,4.427,0,0,1-4.417-4.417v-9.9a36.617,36.617,0,0,1-9.161-3.8l-7.006,7.005a4.417,4.417,0,0,1-6.255,0l-7.054-7.054a4.417,4.417,0,0,1,0-6.255l7.006-7.006a36.567,36.567,0,0,1-3.8-9.161h-9.892a4.426,4.426,0,0,1-4.417-4.417v-9.96a4.426,4.426,0,0,1,4.417-4.417h9.9a36.644,36.644,0,0,1,3.8-9.161l-7.006-7.006a4.417,4.417,0,0,1,0-6.255l7.054-7.054a4.417,4.417,0,0,1,6.255,0l7.006,7.006a36.567,36.567,0,0,1,9.161-3.8v-9.892a4.427,4.427,0,0,1,4.417-4.417h9.989a4.427,4.427,0,0,1,4.417,4.417v9.9a36.627,36.627,0,0,1,9.161,3.8l7.006-7.006a4.427,4.427,0,0,1,6.255,0l7.054,7.054a4.417,4.417,0,0,1,0,6.255l-7.034,7.015a36.568,36.568,0,0,1,3.8,9.161h9.9a4.427,4.427,0,0,1,4.417,4.417v9.969a4.427,4.427,0,0,1-4.417,4.417h-9.912a36.565,36.565,0,0,1-3.8,9.161L407.7,272.9a4.417,4.417,0,0,1,0,6.255l-7.054,7.054a4.427,4.427,0,0,1-6.255,0l-7.006-7.006a36.644,36.644,0,0,1-9.161,3.8v9.9a4.427,4.427,0,0,1-4.378,4.388ZM350,276.749l.645.395a34.71,34.71,0,0,0,10,4.138l.741.173v11.413a2.5,2.5,0,0,0,2.492,2.492h9.969a2.5,2.5,0,0,0,2.492-2.492v-11.4l.741-.173a34.759,34.759,0,0,0,10-4.147l.645-.395,8.064,8.064a2.5,2.5,0,0,0,3.532,0l7.054-7.054a2.492,2.492,0,0,0,0-3.532l-8.074-8.074.395-.645a34.64,34.64,0,0,0,4.138-10l.173-.741h11.413a2.5,2.5,0,0,0,2.492-2.492v-9.95a2.5,2.5,0,0,0-2.492-2.492H402.984l-.173-.741a34.644,34.644,0,0,0-4.147-10l-.395-.645,8.074-8.064a2.492,2.492,0,0,0,0-3.532l-7.054-7.054a2.5,2.5,0,0,0-3.532,0l-8.064,8.074-.645-.395a34.71,34.71,0,0,0-10-4.109l-.741-.173V201.747a2.5,2.5,0,0,0-2.492-2.492h-9.969a2.5,2.5,0,0,0-2.492,2.492V213.16l-.741.173a34.7,34.7,0,0,0-10,4.138l-.645.395-8.074-8.074a2.56,2.56,0,0,0-3.532,0l-7.054,7.054a2.493,2.493,0,0,0,0,3.532l8.064,8.064-.395.645a34.758,34.758,0,0,0-4.147,10l-.173.741H323.267a2.5,2.5,0,0,0-2.492,2.492v9.969a2.5,2.5,0,0,0,2.492,2.492H334.68l.173.741a34.729,34.729,0,0,0,4.147,10l.395.645-8.064,8.074a2.492,2.492,0,0,0,0,3.532l7.054,7.054a2.55,2.55,0,0,0,3.532,0Zm10.374-64.339Zm8.439,62.444a61.765,61.765,0,1,1,.019-.01Zm0-53.138a19.071,19.071,0,1,0,.019-.01Z" transform="translate(-318.85 -197.33)" fill="#fff" opacity="0.66"/>
          <path id="Path_56" data-name="Path 56" d="M378.976,343.164a2.94,2.94,0,0,1-.816-.118l-5.207-1.5a2.952,2.952,0,0,1-2.018-3.661l1.374-4.767a20.394,20.394,0,0,1-3.672-2.931l-4.294,2.394a2.952,2.952,0,0,1-4.015-1.159l-2.662-4.777a2.952,2.952,0,0,1,1.159-4.015l4.294-2.4a20.4,20.4,0,0,1-.526-4.67l-4.767-1.374a2.952,2.952,0,0,1-2.018-3.661l1.5-5.207a2.952,2.952,0,0,1,3.661-2.018l4.767,1.374a20.463,20.463,0,0,1,2.931-3.672l-2.394-4.294a2.952,2.952,0,0,1,1.159-4.015l4.745-2.62a2.952,2.952,0,0,1,4.015,1.159l2.4,4.294a20.251,20.251,0,0,1,4.67-.526l1.374-4.767a2.952,2.952,0,0,1,3.65-2.018l5.207,1.5a2.963,2.963,0,0,1,2.018,3.661l-1.374,4.767a20.393,20.393,0,0,1,3.672,2.931l4.294-2.394a2.952,2.952,0,0,1,4.015,1.159l2.62,4.745a2.952,2.952,0,0,1-1.159,4.015l-4.294,2.394a20.4,20.4,0,0,1,.526,4.67l4.81,1.428a2.963,2.963,0,0,1,2.018,3.661l-1.5,5.207a2.963,2.963,0,0,1-3.661,2.018l-4.777-1.331a20.4,20.4,0,0,1-2.931,3.672l2.394,4.294a2.952,2.952,0,0,1-1.159,4.015l-4.745,2.62a2.952,2.952,0,0,1-4.015-1.159l-2.394-4.294a18.885,18.885,0,0,1-4.67.526l-1.4,4.713A2.963,2.963,0,0,1,378.976,343.164ZM369.067,327.5l.569.623a18.326,18.326,0,0,0,4.466,3.564l.73.419L373,338.451a.805.805,0,0,0,.548,1l5.207,1.5a.805.805,0,0,0,1-.548l1.836-6.377h.848a18.178,18.178,0,0,0,5.679-.633l.816-.225,3.221,5.808a.805.805,0,0,0,1.074.311l4.745-2.62a.805.805,0,0,0,.311-1.074l-3.221-5.808.623-.569a18.314,18.314,0,0,0,3.564-4.466l.419-.73,6.377,1.836a.805.805,0,0,0,1-.548l1.5-5.207a.805.805,0,0,0-.548-1l-6.377-1.836v-.848a18.37,18.37,0,0,0-.633-5.679l-.225-.816,5.808-3.221a.805.805,0,0,0,.311-1.074l-2.544-4.7a.805.805,0,0,0-1.074-.311l-5.808,3.221-.569-.623a18.247,18.247,0,0,0-4.466-3.564l-.73-.419,1.836-6.377a.805.805,0,0,0-.547-1l-5.207-1.5a.805.805,0,0,0-1,.548l-1.836,6.377h-.848a18.252,18.252,0,0,0-5.679.633l-.816.226-3.221-5.808a.805.805,0,0,0-1.074-.311l-4.745,2.619a.805.805,0,0,0-.311,1.074l3.221,5.808-.623.569a18.251,18.251,0,0,0-3.564,4.466l-.419.73-6.377-1.836a.805.805,0,0,0-1,.548l-1.5,5.207a.805.805,0,0,0,.548,1l6.377,1.836v.848a18.323,18.323,0,0,0,.633,5.679l.225.816-5.808,3.221a.805.805,0,0,0-.311,1.074l2.62,4.745a.8.8,0,0,0,.483.387.784.784,0,0,0,.612-.064Zm16.63-36.909Zm-2.437,40.592a15.515,15.515,0,1,1,14.912-11.219h0a15.535,15.535,0,0,1-14.88,11.219Zm0-28.89a13.366,13.366,0,1,0,12.883,17.07h0a13.377,13.377,0,0,0-12.883-17.07Z" transform="translate(-615.847 -218.759)" fill="#fff" opacity="0.66"/>
        </g>
      </g>
      <g id="Group_65" data-name="Group 65" transform="translate(40.609 84.495)">
        <rect id="Rectangle_22" data-name="Rectangle 22" width="295.368" height="201.9" rx="11.35" transform="translate(0.019 0)" fill="#fff"/>
        <path id="Path_57" data-name="Path 57" d="M82.095,108.91H357.312a10.075,10.075,0,0,1,10.114,10.075V130.36H72V118.985A10.075,10.075,0,0,1,82.095,108.91Z" transform="translate(-72 -108.91)" fill="#3fc080"/>
        <path id="Path_58" data-name="Path 58" d="M127.8,123.5H88.478a3.118,3.118,0,1,1,0-6.236H127.8a3.118,3.118,0,0,1,0,6.236Zm-39.32-5.273a2.156,2.156,0,1,0,0,4.311H127.8a2.156,2.156,0,1,0,0-4.311Z" transform="translate(-72.504 -109.225)" fill="#fff"/>
        <path id="Path_59" data-name="Path 59" d="M145.04,123.5h-4.282a3.118,3.118,0,1,1,0-6.236h4.282a3.118,3.118,0,1,1,0,6.236Zm-4.282-5.273a2.156,2.156,0,1,0,0,4.311h4.282a2.156,2.156,0,1,0,0-4.311Z" transform="translate(-74.475 -109.225)" fill="#fff"/>
        <path id="Path_60" data-name="Path 60" d="M158.62,123.5h-4.282a3.118,3.118,0,1,1,0-6.236h4.282a3.118,3.118,0,0,1,0,6.236Zm-4.282-5.273a2.156,2.156,0,1,0,0,4.311h4.282a2.156,2.156,0,0,0,0-4.311Z" transform="translate(-74.987 -109.225)" fill="#fff"/>
        <path id="Path_61" data-name="Path 61" d="M171.45,123.5h-4.282a3.118,3.118,0,1,1,0-6.236h4.282a3.118,3.118,0,1,1,0,6.236Zm-4.282-5.273a2.156,2.156,0,1,0,0,4.311h4.282a2.156,2.156,0,1,0,0-4.311Z" transform="translate(-75.47 -109.225)" fill="#fff"/>
        <g id="Group_62" data-name="Group 62" transform="translate(276.597 7.486)">
          <path id="Path_62" data-name="Path 62" d="M367.035,125.187a.962.962,0,0,1-.683-.279l-6.621-6.621a.962.962,0,0,1,1.357-1.357l6.621,6.621a.962.962,0,0,1-.683,1.646Z" transform="translate(-359.437 -116.69)" fill="#fff"/>
          <path id="Path_63" data-name="Path 63" d="M360.4,125.187a.962.962,0,0,1-.683-1.646l6.621-6.621a.962.962,0,0,1,1.357,1.357l-6.621,6.621A.962.962,0,0,1,360.4,125.187Z" transform="translate(-359.434 -116.69)" fill="#fff"/>
        </g>
        <rect id="Rectangle_23" data-name="Rectangle 23" width="21.786" height="4.686" rx="1.56" transform="translate(35.008 30.197)" fill="#2f7ded"/>
        <rect id="Rectangle_24" data-name="Rectangle 24" width="7.467" height="2.204" rx="1.102" transform="translate(84.653 31.833)" fill="#53d0f7" opacity="0.17"/>
        <rect id="Rectangle_25" data-name="Rectangle 25" width="7.467" height="2.204" rx="1.102" transform="translate(100.705 31.833)" fill="#53d0f7" opacity="0.17"/>
        <rect id="Rectangle_26" data-name="Rectangle 26" width="7.467" height="2.204" rx="1.102" transform="translate(119.469 31.833)" fill="#53d0f7" opacity="0.17"/>
        <rect id="Rectangle_27" data-name="Rectangle 27" width="7.467" height="2.204" rx="1.102" transform="translate(136.107 31.833)" fill="#53d0f7" opacity="0.17"/>
        <circle id="Ellipse_17" data-name="Ellipse 17" cx="2.589" cy="2.589" r="2.589" transform="translate(223.648 30.649)" fill="#53d0f7"/>
        <rect id="Rectangle_28" data-name="Rectangle 28" width="17.745" height="7.39" rx="3.695" transform="translate(243.269 29.456)" fill="#ffb44f"/>
        <rect id="Rectangle_29" data-name="Rectangle 29" width="226.005" height="90.726" rx="3.33" transform="translate(35.008 43.323)" fill="#53d0f7" opacity="0.17"/>
        <path id="Path_64" data-name="Path 64" d="M216.388,296.122H169.515a1.925,1.925,0,0,1-1.925-1.925V271.3a1.925,1.925,0,0,1,1.925-1.925h46.874a1.925,1.925,0,0,1,1.925,1.925v22.922A1.925,1.925,0,0,1,216.388,296.122Zm0-24.818H169.543V294.2h46.816Z" transform="translate(-75.604 -114.96)" fill="#53d0f7" opacity="0.17"/>
        <rect id="Rectangle_30" data-name="Rectangle 30" width="1.925" height="53.273" transform="translate(93.385 156.914) rotate(-63.41)" fill="#53d0f7" opacity="0.17"/>
        <rect id="Rectangle_31" data-name="Rectangle 31" width="45.257" height="2.377" rx="0.2" transform="translate(92.977 184.954)" fill="#53d0f7" opacity="0.17"/>
        <rect id="Rectangle_32" data-name="Rectangle 32" width="10.441" height="2.29" rx="0.38" transform="translate(93.15 190.304)" fill="#53d0f7" opacity="0.17"/>
        <rect id="Rectangle_33" data-name="Rectangle 33" width="10.441" height="2.29" rx="0.38" transform="translate(131.267 190.304)" fill="#53d0f7" opacity="0.17"/>
        <g id="Group_63" data-name="Group 63" transform="translate(150.34 154.42)">
          <path id="Path_65" data-name="Path 65" d="M277.028,296.122H230.155a1.925,1.925,0,0,1-1.925-1.925V271.3a1.925,1.925,0,0,1,1.925-1.925h46.874a1.925,1.925,0,0,1,1.925,1.925v22.922A1.925,1.925,0,0,1,277.028,296.122Zm0-24.818H230.183V294.2H277Z" transform="translate(-228.23 -269.38)" fill="#53d0f7" opacity="0.17"/>
          <rect id="Rectangle_34" data-name="Rectangle 34" width="1.925" height="53.273" transform="translate(1.155 2.49) rotate(-63.41)" fill="#53d0f7" opacity="0.17"/>
          <rect id="Rectangle_35" data-name="Rectangle 35" width="52.474" height="1.925" transform="translate(1.15 24.067) rotate(-26.31)" fill="#53d0f7" opacity="0.17"/>
        </g>
        <rect id="Rectangle_36" data-name="Rectangle 36" width="45.257" height="2.377" rx="0.2" transform="translate(151.331 184.954)" fill="#53d0f7" opacity="0.17"/>
        <rect id="Rectangle_37" data-name="Rectangle 37" width="10.441" height="2.29" rx="0.38" transform="translate(151.504 190.304)" fill="#53d0f7" opacity="0.17"/>
        <rect id="Rectangle_38" data-name="Rectangle 38" width="10.441" height="2.29" rx="0.38" transform="translate(189.621 190.304)" fill="#53d0f7" opacity="0.17"/>
        <g id="Group_64" data-name="Group 64" transform="translate(210.291 154.42)">
          <path id="Path_66" data-name="Path 66" d="M339.328,296.122H292.455a1.925,1.925,0,0,1-1.925-1.925V271.3a1.925,1.925,0,0,1,1.925-1.925h46.874a1.925,1.925,0,0,1,1.925,1.925v22.922A1.925,1.925,0,0,1,339.328,296.122Zm0-24.818H292.483V294.2H339.3Z" transform="translate(-290.53 -269.38)" fill="#53d0f7" opacity="0.17"/>
          <rect id="Rectangle_39" data-name="Rectangle 39" width="1.925" height="53.273" transform="translate(1.603 2.49) rotate(-63.41)" fill="#53d0f7" opacity="0.17"/>
          <rect id="Rectangle_40" data-name="Rectangle 40" width="52.474" height="1.925" transform="translate(1.601 24.07) rotate(-26.31)" fill="#53d0f7" opacity="0.17"/>
        </g>
        <rect id="Rectangle_41" data-name="Rectangle 41" width="45.257" height="2.377" rx="0.2" transform="translate(211.282 184.954)" fill="#53d0f7" opacity="0.17"/>
        <rect id="Rectangle_42" data-name="Rectangle 42" width="10.441" height="2.29" rx="0.38" transform="translate(211.455 190.304)" fill="#53d0f7" opacity="0.17"/>
        <rect id="Rectangle_43" data-name="Rectangle 43" width="10.441" height="2.29" rx="0.38" transform="translate(249.572 190.304)" fill="#53d0f7" opacity="0.17"/>
        <rect id="Rectangle_44" data-name="Rectangle 44" width="26.896" height="5.774" rx="0.94" transform="translate(35.008 140.63)" fill="#2f7ded"/>
        <rect id="Rectangle_45" data-name="Rectangle 45" width="13.992" height="3.06" transform="translate(35.008 157.018)" fill="#53d0f7" opacity="0.17"/>
        <rect id="Rectangle_46" data-name="Rectangle 46" width="9.825" height="3.06" transform="translate(35.008 187.533)" fill="#ffb44f"/>
        <path id="Path_67" data-name="Path 67" d="M127.549,281.722H108.861a.481.481,0,1,1,0-.962h18.688a.481.481,0,1,1,0,.962Z" transform="translate(-73.372 -115.389)" fill="#53d0f7"/>
        <path id="Path_68" data-name="Path 68" d="M120.072,288.252H108.861a.481.481,0,0,1,0-.962h11.211a.481.481,0,1,1,0,.962Z" transform="translate(-73.372 -115.635)" fill="#53d0f7"/>
        <path id="Path_69" data-name="Path 69" d="M137.307,294.962H108.861a.481.481,0,0,1,0-.962h28.446a.481.481,0,1,1,0,.962Z" transform="translate(-73.372 -115.888)" fill="#53d0f7"/>
        <path id="Path_70" data-name="Path 70" d="M156.4,274.132h-9.681a.481.481,0,1,1,0-.962H156.4a.481.481,0,1,1,0,.962Z" transform="translate(-74.799 -115.103)" fill="#ffb44f"/>
        <rect id="Rectangle_47" data-name="Rectangle 47" width="98.154" height="8.834" rx="1.71" transform="translate(93.15 139.11)" fill="#53d0f7" opacity="0.17"/>
        <rect id="Rectangle_48" data-name="Rectangle 48" width="28.474" height="7.304" rx="3.652" transform="translate(231.548 139.11)" fill="#ffb44f"/>
        <rect id="Rectangle_49" data-name="Rectangle 49" width="52.474" height="1.925" transform="translate(93.391 178.48) rotate(-26.31)" fill="#53d0f7" opacity="0.17"/>
      </g>
      <g id="Group_89" data-name="Group 89" transform="translate(204.469 7.386)">
        <g id="Group_88" data-name="Group 88" transform="translate(0)">
          <g id="Group_80" data-name="Group 80" transform="translate(87.011 15.868)">
            <path id="Path_90" data-name="Path 90" d="M383.991,70.829h0l-46.9-.058a4.4,4.4,0,0,1-4.388-4.388V49.658a4.4,4.4,0,0,1,4.388-4.388h47.018a5.014,5.014,0,0,1,5,5v15.4a5.119,5.119,0,0,1-5.119,5.158Zm-46.883-24.6a3.435,3.435,0,0,0-3.426,3.426V66.383a3.435,3.435,0,0,0,3.426,3.426l46.9.058h0a4.157,4.157,0,0,0,4.157-4.157v-15.4a4.051,4.051,0,0,0-4.042-4.042Z" transform="translate(-332.7 -45.27)" fill="#fff"/>
            <path id="Path_91" data-name="Path 91" d="M378.079,55.4h-11.3a.481.481,0,1,1,0-.962h11.3a.481.481,0,1,1,0,.962Z" transform="translate(-333.967 -45.616)" fill="#ffa000"/>
            <path id="Path_92" data-name="Path 92" d="M358.953,55.4H341.631a.481.481,0,1,1,0-.962h17.321a.481.481,0,1,1,0,.962Z" transform="translate(-333.019 -45.616)" fill="#ffa000"/>
            <path id="Path_93" data-name="Path 93" d="M377.408,59.592H348.981a.481.481,0,0,1,0-.962h28.455a.481.481,0,1,1,0,.962Z" transform="translate(-333.296 -45.774)" fill="#ffa000"/>
            <path id="Path_94" data-name="Path 94" d="M377.783,63.772H358.931a.481.481,0,0,1,0-.962h18.851a.481.481,0,0,1,0,.962Z" transform="translate(-333.671 -45.931)" fill="#ffa000"/>
          </g>
          <g id="Group_87" data-name="Group 87">
            <g id="Group_86" data-name="Group 86">
              <path id="Path_95" data-name="Path 95" d="M336.239,94.813H246.428c-2.29,0-4.147-1.424-4.147-3.185V31.965c0-1.761,1.857-3.185,4.147-3.185h89.811c2.29,0,4.148,1.424,4.148,3.185V91.628C340.386,93.379,338.529,94.813,336.239,94.813Z" transform="translate(-242.28 -28.78)" fill="#53d0f7"/>
              <path id="Path_96" data-name="Path 96" d="M242.28,41.368V31.985c0-1.761,1.857-3.185,4.147-3.185h89.811c2.29,0,4.148,1.424,4.148,3.185v8.969" transform="translate(-242.28 -28.781)" fill="#fac14d"/>
              <g id="Group_81" data-name="Group 81" transform="translate(0 11.692)">
                <path id="Path_97" data-name="Path 97" d="M343.62,41.43Z" transform="translate(-246.101 -40.949)" fill="#f7a9b4"/>
                <rect id="Rectangle_50" data-name="Rectangle 50" width="97.519" height="0.962" fill="#fff"/>
              </g>
              <path id="Path_98" data-name="Path 98" d="M325.381,37.622A2.021,2.021,0,1,1,327.4,35.6a2.021,2.021,0,0,1-2.021,2.021Zm0-3.089a1.054,1.054,0,1,1,0,.01Z" transform="translate(-245.337 -28.961)" fill="#fff"/>
              <path id="Path_99" data-name="Path 99" d="M331.4,37.622a2.021,2.021,0,1,1,2.021-2.021,2.021,2.021,0,0,1-2.021,2.021Zm0-3.089a1.054,1.054,0,1,1,0,.01Z" transform="translate(-245.564 -28.961)" fill="#fff"/>
              <path id="Path_100" data-name="Path 100" d="M337.3,37.622a2.021,2.021,0,1,1,2.021-2.021,2.021,2.021,0,0,1-2.021,2.021Zm0-3.089a1.054,1.054,0,1,1,0,.01Z" transform="translate(-245.786 -28.961)" fill="#fff"/>
              <g id="Group_82" data-name="Group 82" transform="translate(13.097 28.166)">
                <line id="Line_2" data-name="Line 2" x2="39.339" transform="translate(0.481 0.481)" fill="#f7a9b4"/>
                <path id="Path_101" data-name="Path 101" d="M295.71,59.012H256.371a.481.481,0,0,1,0-.962H295.71a.481.481,0,0,1,0,.962Z" transform="translate(-255.89 -58.05)" fill="#fff"/>
              </g>
              <g id="Group_83" data-name="Group 83" transform="translate(13.097 46.258)">
                <line id="Line_3" data-name="Line 3" x2="19.669" transform="translate(0.481 0.481)" fill="#f7a9b4"/>
                <path id="Path_102" data-name="Path 102" d="M276.041,77.812H256.371a.481.481,0,0,1,0-.962h19.669a.481.481,0,0,1,0,.962Z" transform="translate(-255.89 -76.85)" fill="#fff"/>
              </g>
              <g id="Group_84" data-name="Group 84" transform="translate(13.097 37.356)">
                <line id="Line_4" data-name="Line 4" x2="14.685" transform="translate(0.481 0.481)" fill="#f7a9b4"/>
                <path id="Path_103" data-name="Path 103" d="M271.056,68.562H256.371a.481.481,0,0,1,0-.962h14.685a.481.481,0,0,1,0,.962Z" transform="translate(-255.89 -67.6)" fill="#fff"/>
              </g>
              <g id="Group_85" data-name="Group 85" transform="translate(37.741 37.356)">
                <line id="Line_5" data-name="Line 5" x2="14.685" transform="translate(0.491 0.481)" fill="#f7a9b4"/>
                <path id="Path_104" data-name="Path 104" d="M296.675,68.562H281.981a.481.481,0,0,1,0-.962h14.685a.481.481,0,1,1,0,.962Z" transform="translate(-281.5 -67.6)" fill="#fff"/>
              </g>
            </g>
            <path id="Path_105" data-name="Path 105" d="M329.879,82.782H303.83V51.7h26.049Zm-25.087-.962h24.125V52.662H304.792Z" transform="translate(-244.601 -29.644)" fill="#fff"/>
            <path id="Path_106" data-name="Path 106" d="M329.4,82.782a.481.481,0,0,1-.366-.173l-25.1-30.12a.482.482,0,0,1,.741-.616l25.087,30.139a.481.481,0,0,1-.366.789Z" transform="translate(-244.6 -29.644)" fill="#fff"/>
            <path id="Path_107" data-name="Path 107" d="M304.311,82.782a.481.481,0,0,1-.366-.789l25.068-30.12a.482.482,0,1,1,.741.616L304.677,82.628A.481.481,0,0,1,304.311,82.782Z" transform="translate(-244.601 -29.644)" fill="#fff"/>
          </g>
        </g>
      </g>
      <g id="Group_94" data-name="Group 94" transform="translate(0 18.385)">
        <g id="Group_92" data-name="Group 92" transform="translate(25.905)">
          <g id="Group_90" data-name="Group 90" transform="translate(39.964 29.629)">
            <path id="Path_108" data-name="Path 108" d="M104.37,71H143a7.294,7.294,0,0,1,7.294,7.294v22.133a5.014,5.014,0,0,1-5.014,5.014h-41.6a5.427,5.427,0,0,1-5.427-5.427V77.159A6.12,6.12,0,0,1,104.37,71Z" transform="translate(-98.25 -71)" fill="#fac14d"/>
            <path id="Path_109" data-name="Path 109" d="M147.924,105.564H100.617A2.367,2.367,0,0,1,98.25,103.2V76.127s.241-2.993,1.424-2.752l18.082,14.964,3.743,3.1a4.282,4.282,0,0,0,5.495,0L148.636,73h0a7.987,7.987,0,0,1,1.655,4.879v25.28a2.367,2.367,0,0,1-2.367,2.406Z" transform="translate(-98.25 -71.075)" fill="#ebad30"/>
            <path id="Path_110" data-name="Path 110" d="M99.752,105.4a.962.962,0,0,1-.616-1.7l19.1-16.032a.963.963,0,1,1,1.241,1.472l-19.111,16.042a.962.962,0,0,1-.616.221Z" transform="translate(-98.27 -71.62)" fill="#fac14d"/>
            <path id="Path_111" data-name="Path 111" d="M150.2,105.417a.962.962,0,0,1-.6-.212L130.125,89.722a.962.962,0,1,1,1.2-1.5L150.757,103.7a.962.962,0,0,1-.6,1.713Z" transform="translate(-99.437 -71.641)" fill="#fac14d"/>
          </g>
          <g id="Group_91" data-name="Group 91">
            <path id="Path_112" data-name="Path 112" d="M62.84,40.21h53.321a7.294,7.294,0,0,1,7.294,7.294V79.376a5.014,5.014,0,0,1-5.014,5.014H62.147a5.427,5.427,0,0,1-5.427-5.427V46.33A6.12,6.12,0,0,1,62.84,40.21Z" transform="translate(-56.72 -40.21)" fill="#3fc080"/>
            <path id="Path_113" data-name="Path 113" d="M120.424,84.488H59.8a3.031,3.031,0,0,1-3.079-3V46.737s.3-3.849,1.828-3.532L81.74,62.4l4.811,3.974a5.485,5.485,0,0,0,7.054,0L121.338,42.84h0a10.248,10.248,0,0,1,2.127,6.255V81.486A3.031,3.031,0,0,1,120.424,84.488Z" transform="translate(-56.72 -40.309)" fill="#2eaf6f"/>
            <path id="Path_114" data-name="Path 114" d="M58.65,84.009a.962.962,0,0,1-.664-1.7L82.535,61.741a.963.963,0,1,1,1.241,1.472L59.266,83.778A.962.962,0,0,1,58.65,84.009Z" transform="translate(-56.755 -41.013)" fill="#3fc080"/>
            <path id="Path_115" data-name="Path 115" d="M123.289,84.031a.962.962,0,0,1-.6-.212L97.769,63.928a.962.962,0,1,1,1.164-1.472l24.952,19.852a.962.962,0,0,1-.6,1.713Z" transform="translate(-58.247 -41.035)" fill="#3fc080"/>
          </g>
        </g>
        <rect id="Rectangle_51" data-name="Rectangle 51" width="76.474" height="84.24" rx="4.98" transform="translate(1.52 106.911)" fill="#53d0f7" opacity="0.2"/>
        <rect id="Rectangle_52" data-name="Rectangle 52" width="76.474" height="84.24" rx="4.98" transform="translate(0 105.256)" fill="#53d0f7"/>
        <rect id="Rectangle_53" data-name="Rectangle 53" width="76.474" height="7.285" rx="2.56" transform="translate(0 103.004)" fill="#ffb44f"/>
        <path id="Path_116" data-name="Path 116" d="M68.619,164.517H40.943a1.443,1.443,0,0,1,0-2.887H68.658a1.443,1.443,0,0,1,0,2.887Z" transform="translate(-30.166 -44.788)" fill="#fff"/>
        <path id="Path_117" data-name="Path 117" d="M67.031,173.245H40.962a.962.962,0,1,1,0-1.925H67.031a.962.962,0,0,1,0,1.925Z" transform="translate(-30.185 -45.153)" fill="#fff"/>
        <path id="Path_118" data-name="Path 118" d="M67.031,197.435H40.962a.962.962,0,1,1,0-1.925H67.031a.962.962,0,0,1,0,1.925Z" transform="translate(-30.185 -46.065)" fill="#ffb44f"/>
        <path id="Path_119" data-name="Path 119" d="M58.736,180.925H40.962a.962.962,0,1,1,0-1.925h17.8a.962.962,0,1,1,0,1.925Z" transform="translate(-30.185 -45.443)" fill="#fff"/>
        <path id="Path_120" data-name="Path 120" d="M67.031,204H40.962a.962.962,0,1,1,0-1.925H67.031a.962.962,0,1,1,0,1.925Z" transform="translate(-30.185 -46.313)" fill="#fff"/>
        <path id="Path_121" data-name="Path 121" d="M58.736,219.925H40.962a.962.962,0,1,1,0-1.925h17.8a.962.962,0,1,1,0,1.925Z" transform="translate(-30.185 -46.913)" fill="#fff"/>
        <g id="Group_93" data-name="Group 93" transform="translate(70.193 105.028)">
          <path id="Path_122" data-name="Path 122" d="M105.435,152.535a.481.481,0,0,1-.337-.144l-2.213-2.213a.483.483,0,0,1,.683-.683l2.213,2.213a.481.481,0,0,1-.337.818Z" transform="translate(-102.743 -149.353)" fill="#fff"/>
          <path id="Path_123" data-name="Path 123" d="M103.221,152.536a.481.481,0,0,1-.337-.818L105.1,149.5a.483.483,0,0,1,.683.683l-2.213,2.213a.481.481,0,0,1-.346.135Z" transform="translate(-102.743 -149.353)" fill="#fff"/>
        </g>
      </g>
    </g>
    <rect id="Rectangle_90" data-name="Rectangle 90" width="447.672" height="2.764" rx="1.382" transform="translate(772.905 3945.719)" fill="#fff"/>
  </g>
</svg>
