<svg xmlns="http://www.w3.org/2000/svg" width="1366" height="613.734" viewBox="0 0 1366 613.734">
  <g id="Group_192" data-name="Group 192" transform="translate(1477.17 -268.072)" opacity="0.2">
    <g id="Group_187" data-name="Group 187" transform="translate(-1329.909 577.02)" opacity="0.47">
      <path id="Path_49" data-name="Path 49" d="M73.83,83.413A19.854,19.854,0,0,0,46.939,75.3c-9.67,5.192-20.026,20.827-14.819,30.5s20.612,2.06,31.569,2.189C78.994,108.158,79.023,93.053,73.83,83.413Z" transform="translate(-30.725 -72.935)" fill="#fff"/>
    </g>
    <circle id="Ellipse_39" data-name="Ellipse 39" cx="13.231" cy="13.231" r="13.231" transform="translate(-1199.167 394.371)" fill="#fff"/>
    <circle id="Ellipse_40" data-name="Ellipse 40" cx="5.493" cy="5.493" r="5.493" transform="translate(-1139.319 407.03)" fill="#fff"/>
    <g id="Group_188" data-name="Group 188" transform="matrix(0.174, 0.985, -0.985, 0.174, -860.49, 744.85)" opacity="0.47">
      <path id="Path_49-2" data-name="Path 49" d="M43.105,10.477a19.854,19.854,0,0,0-26.892-8.11C6.544,7.559-3.812,23.193,1.395,32.863s20.612,2.06,31.569,2.189C48.269,35.223,48.3,20.118,43.105,10.477Z" transform="translate(0 0)" fill="#fff"/>
    </g>
    <circle id="Ellipse_41" data-name="Ellipse 41" cx="13.231" cy="13.231" r="13.231" transform="translate(-960.412 770.493)" fill="#fff"/>
    <circle id="Ellipse_42" data-name="Ellipse 42" cx="5.493" cy="5.493" r="5.493" transform="translate(-833.516 550.938)" fill="#fff"/>
    <circle id="Ellipse_43" data-name="Ellipse 43" cx="5.493" cy="5.493" r="5.493" transform="translate(-756.657 498.607)" fill="#fff"/>
    <g id="Group_189" data-name="Group 189" transform="matrix(-0.996, -0.087, 0.087, -0.996, -624.762, 603.656)" opacity="0.47">
      <path id="Path_49-3" data-name="Path 49" d="M43.105,10.477a19.854,19.854,0,0,0-26.892-8.11C6.544,7.559-3.812,23.193,1.395,32.863s20.612,2.06,31.569,2.189C48.269,35.223,48.3,20.118,43.105,10.477Z" transform="translate(0 0)" fill="#fff"/>
    </g>
    <circle id="Ellipse_44" data-name="Ellipse 44" cx="27.131" cy="27.131" r="27.131" transform="translate(-1477.17 718.163)" fill="#fff"/>
    <circle id="Ellipse_45" data-name="Ellipse 45" cx="19.772" cy="19.772" r="19.772" transform="translate(-533.513 744.339)" fill="#fff"/>
    <circle id="Ellipse_46" data-name="Ellipse 46" cx="5.493" cy="5.493" r="5.493" transform="translate(-480.289 701.386)" fill="#fff"/>
    <g id="Group_190" data-name="Group 190" transform="matrix(0.174, 0.985, -0.985, 0.174, -401.05, 829.733)" opacity="0.47">
      <path id="Path_49-4" data-name="Path 49" d="M43.105,10.477a19.854,19.854,0,0,0-26.892-8.11C6.544,7.559-3.812,23.193,1.395,32.863s20.612,2.06,31.569,2.189C48.269,35.223,48.3,20.118,43.105,10.477Z" transform="translate(0 0)" fill="#fff"/>
    </g>
    <circle id="Ellipse_47" data-name="Ellipse 47" cx="5.493" cy="5.493" r="5.493" transform="translate(-1438.581 460.995)" fill="#fff"/>
    <path id="Path_278" data-name="Path 278" d="M27.661,55.321A27.661,27.661,0,0,1,8.1,8.1,27.661,27.661,0,0,1,47.22,47.22,27.48,27.48,0,0,1,27.661,55.321Zm0-48.406A20.746,20.746,0,1,0,48.407,27.661,20.768,20.768,0,0,0,27.661,6.916Z" transform="translate(-779.061 268.072)" fill="#fff"/>
    <path id="Path_279" data-name="Path 279" d="M8.914,17.827a8.914,8.914,0,0,1-6.3-15.216A8.914,8.914,0,0,1,15.216,15.216,8.855,8.855,0,0,1,8.914,17.827Zm0-15.6A6.685,6.685,0,1,0,15.6,8.914,6.693,6.693,0,0,0,8.914,2.229Z" transform="translate(-881.638 355.461)" fill="#fff"/>
    <circle id="Ellipse_48" data-name="Ellipse 48" cx="13.231" cy="13.231" r="13.231" transform="translate(-487.807 381.289)" fill="#fff"/>
    <g id="Group_191" data-name="Group 191" transform="matrix(-0.996, -0.087, 0.087, -0.996, -332.041, 541.514)" opacity="0.47">
      <path id="Path_49-5" data-name="Path 49" d="M43.105,10.477a19.854,19.854,0,0,0-26.892-8.11C6.544,7.559-3.812,23.193,1.395,32.863s20.612,2.06,31.569,2.189C48.269,35.223,48.3,20.118,43.105,10.477Z" transform="translate(0 0)" fill="#fff"/>
    </g>
    <circle id="Ellipse_49" data-name="Ellipse 49" cx="32.855" cy="32.855" r="32.855" transform="translate(-216.345 603.691)" fill="#fff"/>
    <circle id="Ellipse_50" data-name="Ellipse 50" cx="5.493" cy="5.493" r="5.493" transform="translate(-122.156 706.292)" fill="#fff"/>
  </g>
</svg>
