<svg xmlns="http://www.w3.org/2000/svg" width="1079.061" height="582.89" viewBox="0 0 1079.061 582.89">
  <g id="Group_182" data-name="Group 182" transform="translate(-15.439 -47.293)" opacity="0.04">
    <path id="Path_206" data-name="Path 206" d="M501.607,208.452c-.219,1.008.409,1.47,1.424,1.332-.885,1.858-2.594-.24-3.37-1.167.1-.18.194-.377.349-.624.247.194.493.4.747.6.021-.278.046-.55.074-.832.476.011.557.282.775.691ZM229.922,125.767h0c-.335.36-.966.381-1.315.733-1.146-2.6-1.741-2.087-4.392-2.14,1.354-.9,2.69-1.784,4.029-2.682-.476-.176-.832-.705-1.28-.885.649-.4,1.315-.814,1.992-1.227-1.505-.8-2.161-1.459-3.754-.913-1.724.585-2.3,1.012-3.927.219-1.562-.751-2.393-.187-4.054-.109-.7.035-1.7,1.7-2.263,2.245.673.293,3.743,1.11,3.743,1.844,0,1.562.053,3.532-2.129,3.141-.987-.18-2.182-2.527-3.2-2.178-1.089.363-2.7,1.343-1.343,2.436,2.52,2.023,5.464,2.7,7.543,5.319.952,1.191,1.7,2.757,3.127,3.084,1.167.247,3.091-.7,2.6-2.2,1.97.871,7.413-2.785,3.842-4.04a9.749,9.749,0,0,1,1.618-.6c-.282-.68-.557-1.361-.842-2.048Zm267.914,82.625h0c.1.419-.518,1.47.423,2.2a3.449,3.449,0,0,1,.49-2.549,3.732,3.732,0,0,0-1.234-.155c-.081.405.12.3.321.5ZM288.563,157.15h0c1.015.906,3.955,2.612,5.09.79,1.156-1.893.236-2.771.948-4.646-2.386-3.328-8.721,1.435-6.038,3.856Zm17.709-22.123c-.684.409-3.634,1.681-3.359,2.475.663,1.822,2.831.363,3.451-1.061.775-1.773,7.124,2.386,8.393,3.035-.529,1.773-2.961,1.791-4.385,2.242,1.124.19,2.393-.088,1.967,1.6,1.174-.6,2.813-.927,3.084-2.563,1.079.723,2.8,1.495,2.778,3.123a5.643,5.643,0,0,0-4.441,1.163,6.069,6.069,0,0,0,3.088.793c1.981-.352,1.826-.43,2.577,1.667q-1.935-.391-3.846-.783c.127.86.268,1.71.4,2.566-.916.106-1.815.222-2.732.331,3.215,1.456,6.465,2.7,9.764,3.951a6.877,6.877,0,0,1,3.306,2.436c1.4,1.544,2.319,1.459,4.318,1.745-.437.677-.878,1.35-1.3,2.009,1.339-.025,3.715-.645,4.956-.113,2.037.888,1.255,2.182,1.008,4.353-.991-.162-2.566-.864-3.243,0,.786.363,1.551.747,2.326,1.121-2.326,1.216-3.229,2.425-5.45.885.173,1.706.649,3.564.1,5.238a14.449,14.449,0,0,1-5.866-4.692c1.17-.543,2.954-.712,2.425-2.552-.751.268-2.383,1.283-3.134,1.121-1.05-.247-1.974-2.143-2.933-2.672-1.114-.62-1.9-.754-2.584.261-1,1.523.775,1.406.86,3.063-.842-.106-1.681-.215-2.531-.328.275.86.536,1.713.821,2.563,1.269-.483,1.565-1.1,2.044.352.384,1.216.786,2.429,1.188,3.669.384-1.914,1.325-1.05,2.475-.529,1.435.652,1.269,1.043,1.611,2.753.3,1.424,1.54.945,2.182,2,.511.857.363,2.986.511,4.018-.511-.666-1.015-1.339-1.526-2.009-.913,1.6,1.414,2.037.712,3.687-.338-.173-.793-.13-1.114-.335.236.624.476,1.258.712,1.889-.649.215-2.355-2.034-3.359-2.668q-2.765-1.734-5.545-3.472c.247.483.264,1.1.511,1.569-1.086-.476-2.154-.969-3.243-1.449.624,1.061,1.223,2.14,1.829,3.2.448.765,2.129.62,2.831,1.107,1.121.786,2.238,1.59,3.359,2.4,1.1.772.666,1.325.483,2.778-3.031-.79-6.052-1.554-9.066-2.334-1.107-.271-1.043-1.653-1.7-1.833-1.533-.4-3.07-.793-4.614-1.184.176-.257.342-.515.511-.793-1.579.039-2.482-.631-3.842-1.438.793-.419,1.625-.828,2.429-1.234-1.389-.768-3-.62-3.853-1.939-1.562-2.411-1.519-3.874-3.937-2.295.01-1.043-.575-1.579-1.526-1.442.063.451-.243.98-.2,1.442-1.378-.328-2.866-1.213-4-.159-1.177,1.1-3.021.74-4.547.825-1.015.046-2.6-1.879-2.08-2.82.709-1.273,2.714-1.667,2.439-3.19,2.235.278,4.812,1.135,6.993.518.546-.162,3.927-.673,4.138-1.188.43-1.16-1.956-2.344-2.531-2.781,1.872-1.889,3.733-3.761,5.608-5.643.5-.493,1.332-.86.959-1.551-.8-1.449-1.59-2.908-2.365-4.357-1.209-2.2-3.7-1.6-4.833-3.578-.878-1.537-.751-1.4-2.274-.8-1.16.444-2.312.867-3.461,1.311,0-2.9.5-2.482,3.024-3.222-1.361-1.117-4.311-4.974-5.964-3.236-.137-.772-.3-1.537-.458-2.3-.127-.7-1.389.078-1.868-.152-1.382-.649-1.209-3.476-3.127-1.674,1.544.434,1.745,1.2,2.429,2.686-3.641.874-5.89.018-9.514-1.012.9.857,1.815,1.713,2.728,2.566-1.216.458-1.526-1.11-2.63-1.23-.384-.042-.691,1.128-1.149.948-.758-.286-1.48-.571-2.21-.853-2.122-.825-5.15-.317-7.434-.419a7.828,7.828,0,0,1-3.359-.892c-1.336-1.23.455-1.911-2.02-1.678-1.089.109-1.717,1.153-3.049.37a10.488,10.488,0,0,1-4.449-4.166c2.372.215,4.73.409,7.085.62-2.348-2.51-4.48-2.171-7.734-2.5-.349-.042-.684-3.539-.793-4.068-.166-1.139,1.251-3.462,1.66-4.523a8.8,8.8,0,0,1,5.132-5.552c3.373-1.449,4.875-1.459,8.513-1.033-.222.881-.43,1.759-.659,2.623a35.165,35.165,0,0,0,6.884-2.358c.888-.345,2.439.081,3.37.148,1.28.071.976,1.755,1.681,2.714.768,1.05,1.269.874,1.918,2.228.924,1.882.684,1.942-.31,3.789-.857,1.555.448,1.547,1.364.634,1.639-1.643,1.488-1.547,3.43-.377.55.328,2.129-1.674,2.612-2.133.687-.666,2.7-.49,3.617-.613,1.766-.247,4.914,1.139,6.246,2.45,1.142,1.1,3.93,5.5,5.072,5.086,1.914-.684,5.4-1.1,6.236,1.643ZM211.5,104.984h0a2.757,2.757,0,0,0-1.974.924H212.1c-2.725,1.889,1.093,2.013,2.4,1.731,2.009-.427,4.054-.6,6.1-.846a1.515,1.515,0,0,1-1.674.991c.173.127.331.257.515.409a2.105,2.105,0,0,0-2.083.913,5.266,5.266,0,0,1,2.4.592,9.641,9.641,0,0,0-1.544.2c.166,1.35,1.227,1.237,2.291,1.583.585.2.878-.783,1.445-.733,1.625.1,3.8.839,5.15-.518-.522-.247-.913-.814-1.424-1.061a1.808,1.808,0,0,0,.758-1.724c.282.289.751.4,1.043.691.254-1.167-.5-1.516-.571-2.482-.042-.853.423-1.745.367-2.531a5.153,5.153,0,0,0-1.339-2.284c-.631-.247-1.932-1.114-2.549-.737-1.854,1.128-3.3-.451-5.587.4-2.5.931,1.65,1.135,1.914,2.263-.455-.106-.948.113-1.385,0,.634.874,1.265,1.738,1.914,2.608-.867-.486-7.2-6.535-6.9-2.365.6.014,1.213.035,1.815.067-1.378.553-1.086,2,.384,1.547-.4,1.336-2.792.159-4.043.367Zm.127,40.294a5.343,5.343,0,0,1-1.086-.666,5.862,5.862,0,0,0-1.216-.155c.892.881.649,1.868.613,3.049,1.149-1.139,2.2-2.1,3.853-1.636-1,1.424.532,1.167.532,2.274,0,.666-2.467,1.445-3.1,1.523-2.457.247-4.769-1.121-7.226-1.121.3-.183.532-.476.811-.666-1.449-.3-2.919-.592-4.382-.9.2-.356.148-.9.338-1.258-1.241-.409-1.28.719-2.154,1.424a4.8,4.8,0,0,1-2.831,1.177c-2.083.352-2.841,1.826-4.921,1.967-3.063.257-6.105.479-9.161.726-2.492.187-3.1-1.244-2.841-3.955-4.339-.226-9.535.659-11.114-4.762,2.693-.568,6.183-2.087,8.915-1.731a41.748,41.748,0,0,0,5.231.687c.786.007,4.449-.642,2.193-1.22a34.206,34.206,0,0,0-9.306-1.555c-2.256.025-4.5.049-6.757.088-1.738.025-2.118-.74-3.454-2.069,2.228-.991,4.448-1.967,6.669-2.968q-3.194.106-6.4.222c.215-.342.254-.85.472-1.177h-3.031c-.328-2.034,1.636-3.049,2.841-4.166-.476-.1-.885-.582-1.361-.67a28.68,28.68,0,0,1,9.059-4.9c1.706-.652,2.393-1.29,3.944-.384,2.1,1.223.6,2.823-.857,4.015q1.327-.1,2.675-.219c.85-.056,1.093-1.9,1.844-2.083,1.114-.3,4.265,1.988,5.379,2.52-.419.575-.85,1.142-1.28,1.717,1.643,0,1.745.12,2.623-1.385.345-.6,2.474.324,3.112.49-.938-.976-1.879-1.974-2.831-2.972,1.643-.257,5.474-.145,6.25,2.118.536,1.643,1.093,3.271,1.66,4.9.493,1.47,1.156.6,2.411.106q-.962-2.654-1.889-5.33c-.286-.79-.578-1.59-.853-2.383-.264-.737,1.089-1.079.37-2.231.6.3,2.683,1.812,3.074,1.206.86-1.318,1.872.342,3.017.976,2.711,1.5,3.476,5.925,4.681,8.872.5,1.248-.564,2.675-.19,3.571.384.924,3.405,2.076,4.2,2.556,2.133,1.3,4.547,2.767,6.6,2.348.109,1.311.384,5.1-1.491,2.228-.116.388-.49.673-.61,1.047-1.3-1.1-2.623-1.784-3.031.744Zm9.38,3.039h0a4.884,4.884,0,0,0,1.23,1.079c.233-.564.448-.4.694-.716a1.358,1.358,0,0,0,1.28,1.223c.092-.229.162-.462.254-.7.624,1.826,3.479,2.013,5.005,2.291,1.625.293,3.169-1.336,4.547-2.231a45.965,45.965,0,0,0-5.686-4.484c-1.153-.768-2.076-2.083-3.127-1-.8.79-2.108,1.777-.74,2.774-.247.063-.462.113-.712.166-.7,1.41-2.009.159-2.746,1.593Zm278.231,58.246h0c-.183.088-.377.176-.578.257.109.2.219.405.321.61.74-.677,1.057-1.1,1.918-1.3-.145-.2-.293-.377-.437-.578,1.265-.134,1.114-1.882.529-1.6-.924.462-3.553,1.273-1.752,2.619ZM279.1,177.224h0c-2.009-1.484-2.39-1.607-4.783-1.262,2.136-2.126-3.409-4.871-4.459-5.6-.814-.56-2.108-.3-2.778-1.022-1.029-1.132-1.368-1.579-2.475-.063a3.9,3.9,0,0,1-.61-1.265c2.214-.388,1.505-3.412-.363-2.587-1.928.846-1.84,2.517-2.422,4.674-.24.885-.367,1.8-.539,2.693-.12.642.529,1.653.293,2.21-.275.666-2.485,2.281-3.031,3.109.575-.06,4.163-.987,4.445-.8.43.271.7,3.941,1.516,3.38,1.17-.839,2.129-2.549,3.183-2.929,1.752-.645,1.547-2.066,3.32-2.756-.391,2.841,4.413,3.4,6.137,3.934.86-.571,1.71-1.146,2.566-1.71Zm-35.5-64.746h0c.691,1.547,2.693.137,3.617-.5.73,1.526.666,1.762,2.2,1.9,1.28.13,2.422.624,2.714-1.223.219.4.677.694.881,1.107-.014-.638.31-1.29.331-1.921,1.646.677-.109,2.7,1.745,2.788s3.7.176,5.545.25c-.085-.416.053-.927-.074-1.336,1,1.336,3.507,1.868,4.043-.155.5,2.023,3.324.726,4.723.515-.145-.765-.264-1.523-.4-2.281,1.918-.025.878,2.09,2.263,2.577a6.282,6.282,0,0,0,3.352.666c.751-.127,4.212-.187,4.42-.987.511-1.741,1.079-1.59,2.7-2.115a4.582,4.582,0,0,0-2.63-1.036c.747-.546,1.488-1.107,2.228-1.646-2.894-2.45-6.493-4.357-10.2-3.134-1.572.522-2.915-.289-4.6.314a35.44,35.44,0,0,1-4.879,1.343c.349.233.642.617,1,.807-1.685-.377-4.089-1.463-5.8-1.251-.511.056-1.533,1.04-2,.744-.814-.522-1.625-1.054-2.464-1.569-.441-.289-3.863-2.21-3.9-2.3-.307-1.1,3.081.226,3.437-1.343-.969-.268-1.921-.543-2.887-.828-1.325-.37-.7-1.057-1.688-1.7-1.727-1.1-3.543.434-5.344.07-1.829-.36-2.711-1.949-4.374-2.2-1.837-.293-4.117-1.16-5.925-.642-2.982.839-2.073,2.052-.148,3.969,1.889,1.879,2.986,1.526,5.337,1.2,2.009-.282,2.957-1.022,4.4.68.878,1.019,3.254,2.972,1.745,4.427-.9,2.245-.384,2.626.631,4.8Zm52.212,41.714c1.213-1.329,3.416-.959,3.916,1.276-.409-.018-5.048,0-3.916-1.276Zm-42.532-90.5c-1.59.631-3.179,1.269-4.752,1.9-1.643-.783-3.3-1.551-4.967-2.337,2.587-1.48,5.647-3.13,8.093-1,1.893-4.142,6.648-2.115,10.219-2.337-.945-.448-1.9-.906-2.834-1.347,1.354-.042,2.7-.088,4.05-.116-.285-.7-.567-1.406-.832-2.111,1.188.046,2.947-.3,4,.395,1.35.885,3.137,2.647,4.674,3.049,3.525.874,7.068,1.762,10.592,2.633q-4.8-2.586-9.577-5.175c1.086-.938,2.608-2.922,4-3.021,1.258-.067,2.492-.155,3.733-.226.9-.071,1.068-1.093,1.844-1.368,1-.377,4.184.508,5.217.927,1.907.779,3.8,1.558,5.707,2.341-1.618-1.343-3.243-2.675-4.857-4.015,2.693.053,5.4.088,8.118.13,1.854.053,3.934,2.221,5.5,3.289-.448-.9-.906-1.787-1.347-2.672,3.254-.419,6.87-1.491,10.1-1.5,3.454,0,7.106,1.012,10.522,1.5-1.847,1.033-3.684,2.059-5.527,3.116,3.391-.737,6.486-1.84,9.912-1.213a68.539,68.539,0,0,1,11.259,2.993c-2.813,1.484-6.694,4.755-9.8,4.977q-6.493.476-12.993.969c1.97.338,3.906.659,5.869,1q-5.049,1.507-10.11,3.01c5.527-1.1,11.058-2.231,16.581-3.349-.162,2.69-7.459,4.572-9.683,5.957-1.646,1-3.92,3.158-5.774,3.536-2.175.458-4.329.9-6.482,1.325,1.35.081,2.683.159,4.047.215a12.2,12.2,0,0,1-4.131,3.246c-1.269.67-3.031-.317-4.364-.659.208.649.4,1.325.61,2-3.726.751-7.476,1.114-11.223,1.547,1.544.137,7.462-.56,6.969,1.914h-6.176c1.48.388,6.183.55,5.975,2.771-1.78.229-3.571.444-5.361.684,1.022.536,2.027,1.1,3.053,1.66a6.386,6.386,0,0,1-4.05,3.014c-1.075.377-3.5-1.2-4.163-.67-.878.726,1.963,1.554.173,3.109-.592.532-3.842,2.89-3.2,3.9.768,1.16.786.786,1.91.1.959-.575,1.188-.155,2.164.427.585.342.465,1.766.539,2.439.07.575-1.406.786-1.833.938-.659.233-1.191-.62-1.371-.543-.511.19-.768,1.181-1.308,1.375-1.8.532-3.578,1.086-5.361,1.629.384-1.583.913-2.108-.335-3.088-.85-.691-1.533,1.036-2.8-.328-.137,2.446-3.007,1.093-3.655-.374.384,1.914-1.3,1.188-2.274.857-1.132-.395-1.544,1.072-3.105,1.072a38.776,38.776,0,0,1-4.025-.352c-1.325-.127-2.577.945-2.922-1.057-.751,2.305-3.5.871-3.571-1.191-1.16,1.332-1.618,2.6-2.961.835,1.022-.645-.282-1.265.194-1.868.493-.634,2.207-.959,2.922-1.28,2.08-.885,3.113-.36,4.829-2.136-2.482-.243-2.492-.472-3.772-2.813a8.874,8.874,0,0,1,5.2-.324c1.53.212,1.678,2.623,3.433,3.088,4.3,1.124,5.9-1.308,8.354-4.78-1.48,1.6-4.5,5.361-7.06,3.532-3.222-2.312-.557-4.075.448-7.11-1.375,1.308-2.831,3.7-4.7,3.278-2.682-.582-5.28-.751-2.446-3.613,3.077-3.109,8.636-2.559,12.084-.737a18.848,18.848,0,0,0-5.372-6.465c-2.365-1.643-6.712-1.343-4.473-5.665-.1.208,7.276.208,7.706.321,2.549.663,5.379,3.271,7.688,4.671-1.815-1.671-3.641-3.349-5.453-5.012,5.453-1.008,10.79-2.14,16.176-3.56-.849-.374-1.678-.747-2.527-1.121,1.35-1.22,2.7-2.443,4.047-3.68-3.162,1.424-5.435,2.446-7.973,4.907-.825.8-3.37.733-4.4.938-1.671.321-3.352.627-5.023.955,1.012-.857,2.03-1.706,3.042-2.563-1.354.409-2.7.811-4.057,1.234.338-.321.578-.793.917-1.117-.578.166-2.478.388-2.559,1.054-.211,1.9-.4,1.509-2.129,1.509a49.916,49.916,0,0,1-6.338-.659,14.787,14.787,0,0,1,6.775-3.691c-3.359.254-4.709.515-7.557,2.443-2.267,1.53-4.8-.081-7.307-.772,2.33-1.1,3.863-.991,6.373-1.227a16.631,16.631,0,0,0,6.778-2.337c-2.531.656-5.326,1.7-7.956,1.787-2.887.106-5.471,1.526-7.917-.229,1.445-1.22,2.894-2.45,4.346-3.677ZM216.918,92.506h0c-1.047-1.35-2.376-1.128-3.782-.85-1.621.324-.61,1.463.553,1.431,1.149-.176,2.044-.924,3.229-.582Zm63.326,96.245h0c.86-.828,3.55-3.546.948-4.389-1.086-.349-2.161.955-2.263,1.886-.127,1.354.441,1.562,1.315,2.5Zm210.521,45.962h0c-.335.18-.564.645-.9.835,2.749,2.33,6.5-2,9.151-2.725.9-.25,1.562.571,1.911-.543.3-1,.613-2.016.931-3.028a4.63,4.63,0,0,0-1.177-3.906c1.861-1.294,2.446-1.332,2.637-3.726-.948.314-1.2-1.442-1.942-2.295-.458-.532-2.168.243-2.816.4.169-.257.314-.522.458-.775-2.108-1.251-4.191,1.107-5.213,2.831.673.261,1.368.49,2.037.73-.86.67-1.3,1.364-2.33,1.1-.677-.187-1.646-.733-2.291-.356-1.16.631-.825.775-.43,2.126.183.642-.871,1.332-1.28,1.752A9.111,9.111,0,0,0,493,228.2a19.924,19.924,0,0,0-2.841,3c1.188-.257,2.422-.8,3.617-.381-.811.169-2.474.152-2.975.871a2.905,2.905,0,0,1-1.992,1.3c.493.078.959.377,1.47.444a13.555,13.555,0,0,1-1.526.779c.673.176,1.354.338,2.016.5Zm-222.9-50.354h0c.127.345.31,1.505.712,1.466,2.492-.222,5.354-1.3,5.746-4.445-.631-.021-1.262-.039-1.882-.063-1.562.247-2.538.307-3.789,1.339-.85.709-1.16.606-.786,1.7Zm-28.693-73.731c.592,3.313-1.625,2.961-3.948,3.282-.987-.543-5.041-1.985-5.407-3.028-.864-2.619,4.343-3.532,5.383-3.846,1.787-.589,3.662,1.942,3.973,3.592ZM204.535,84.8a13.518,13.518,0,0,1,.751-1.65c-.878.035-1.752.063-2.633.088.941-2.725,2.319-2.168,4.907-2.534,2.312-.328,3.335,1.223,4.191,3.2,1.124-.613,5.28-2.3,4.72,1.033,1.681-.282,2.055-.508,3.409.6.751.617.638.557.338,1.569-.211.74.874,1.48,1.339,1.985,3.127,3.546-3.176,3.68-3.835,2.5-.754-1.382-.857-2.214-2.3-2.376-1.442-.19-3.331.078-4.353-1.142-.906-1.082-6.028,3.356-6.532-1.191,1.607-1.05,5.245,1,4.988-1.639-.786-.137-1.565-.3-2.365-.441.317-.18.518-.557.821-.754-1.4-1.4-1.889.931-3.444.754Zm.716,11.978h0c.719.842,1.625-.469.857-1.382a11.049,11.049,0,0,0-1.71-1.667c-.941-.709-1.706-1.72-2.919-1.167.219.853.444,1.7.663,2.566.853.719,2.587,1.033,3.109,1.65Zm18.062-20.97h0c-.719-1.791-5.122-1.315-3.8,1.188,1.946.754,5.326,2.672,3.8-1.188Zm5.77,14h0c-.849.412-1.791.24-2.665.627.74.331,2.1,1.766,2.393,1.773a10.4,10.4,0,0,0,2.7-.589c.948-.257,2.721-.282,3.282-1.23.5-.86-.8-1.294.427-2.513-1.086-.395-2.584-.381-3.469-.747-.768-.3-1.653-1.318-2.63-1.706-1.389-.589-6.4-1.5-3.61,1.414-.317.046-.638.1-.948.152.673,2.7,3.021,1.354,4.519,2.82Zm-45.578,1h0c-2.76.441-4-.088-3.426,3.246,1.241,0,2.309,1.77,3.359,1.48,1.674-.416,3.363-.853,5.034-1.272,1.188-.31.575-.744.871-1.6.226-.723-1.875-.127-2.295-.916,1.414-.314,2.774-.345,3.772-1.629-2.083-.913-5.235.349-7.314.694Zm5.076,11.587h0c1.1.677,2.182,1.339,3.268,2.006-.747.307-1.47.6-2.217.9.691.307,3.553,1.015,3.433,1.844-.257,1.745-1.918.913-3.377.832-.74-.046-3.81.282-4.011-.592-.455-1.953-.684-1.762-2.492-1.59.282-.152.585-.317.878-.493-1.177-.941-2.658-2.883-4.156-2.633-2.749.49-1.745-.589-3.983-1.47-.426-.155-3.863.137-3.9.973s2.778,1.163,3.454,1.347c-2.27-.169-3.9-.462-5.992.465l.018,1.117c1.424.839,3.944.187,5.552.134-.73.493-7.233.123-7.078,1.731.159,1.516,5.643-.166,6.348-.345-2.1,1.752-6.458.472-7.78,3a6.565,6.565,0,0,0,4.42.335c-.063.3-.148.6-.222.878a17.614,17.614,0,0,0,2.249.6c-.55-1.572,1.206-1.308,1.47.215,1.91-1.167,2.245-1.322,2.855-3.617,1.417.469.832,1.519.589,2.732,1.093-.085,3.631.416,3.782-1.128.673,1.59,3.32.79,4.47-.014-2.21,2.344-6.747,2.742-9.863,3.814,3.765,2.432,5.316,1.643,9.345.183,2.245-.8,4.484-1.629,6.74-2.439,1.308-.462,2.02.761,3.261.677.62-.046.705-1.153,1.727-1.153h3.211c1.4,0,2.02-1.688,2.358-3.176.427-1.868.243-3.613-2.221-3.278-2.968.419-.493,1.28-1.664,2.785-.444-1.544-.955-1.784-2.263-2.178-.828-.261-1.012-1.844-1.724-2.418-1.481-1.163-.331-4.639-3.324-3.405a13.922,13.922,0,0,1-3.162,3.37Zm40.886-27h0c.437,3.507,4.265,3.507,6.578,2.566-.786,1.223-1.911,1.117-3.134,1.3-1,.148-.642,1.385.254,1.276.888-.134.814,1.593,1.882.758.761-.589,1.234-1.181,2.2-.814-.046.24-.092.518-.145.765,1.068.568,1.435-.328,2.337-.765.257-.141,1.308,1.142,1-.564,1.706.694,4.575-.183,5.77.892-1.414.19-2.831.367-4.248.546,2.094.86,4.219.4,6.419.293-4.025.754-7.695.448-11.53,2a10.579,10.579,0,0,0,3.652,1.385c-.687.06-1.361.113-2.03.155,1.114,1.692,4.212,1.1,6.112,1.519-1.28.148-2.566.307-3.842.448,1.688,2.69,5.474,2.2,8.04,2.337a1.88,1.88,0,0,0-1.315-1.392c1.71-.07,2.432.663,3.793,1.734-.62-1.269-1.241-2.52-1.865-3.81,1.262,1.258,2.531,2.471,3.789,3.7.557-1.463,1-2.171.046-3.567,5.319,2.848-.476-2.238,3.088-3.285-.345,1.142.2,2.069.6,3.113.969-.835,2.464-1.361,1.773-2.894.931.8,4.674-1.216,6.218-1.678a10.666,10.666,0,0,0-2.531-2.728c-.145.493-.592.9-.7,1.392-.2-2.64-3.06-1.043-4.293-.557,1.382-2.651,2.066-3.839-1.223-4.226,2.048-1.759-.832-3.976-2.675-2.4.4.7.811,1.4,1.213,2.115a2.788,2.788,0,0,1-2.683-1.28c-.356-.589.6-2.39-.941-1.921a4.035,4.035,0,0,1-4.3-1.576c-1.837-2.08-2.845-3.765-5.383-4.42-1.523-.405-4.008-1.269-5.146.388,1.406.511,2.957.021,4.191.726-1.308,2.27-5.873-1.008-7.272,2.616,1.135.384,2.834.173,3.726.948-1.082.233-6.289.427-4.685,2.122-.8.289-1.632.585-2.429.888,1.4.659,2.221.345,3.581.684a7.047,7.047,0,0,0-.649.377c1.315.617,2.711-.825,3.888,0-.455.1-.832.553-1.265.663.307.243.546.642.857.842-.483-.127-.987-.212-1.463-.388q-2.644-.159-5.259-.282Zm-23.159,28.08c.948-1.082,4.138-1.167,5.46-.938.458,2.556-4.41,2.168-5.46.938Zm-39.479.3c.321,1.216-1.3,2.527-1.974,3.4-.5.67-2.831,1.082-3.215.1-.518-1.361,4.293-3.254,5.189-3.5ZM501.071,210.7h0c-.13.081-.257.176-.395.247l.338.384c-.028-.212.264-.293.056-.631ZM198.627,121.252h0a5.893,5.893,0,0,1,2.887,1.812c1,.92,1.569,1.992,2.848,1.435a3.87,3.87,0,0,0,1.706-2.989c-.053-1.435-.927-1.558-2.08-2.316-2.03.409-4.494-.342-5.361,2.059Zm10.3-11.008h0c-.768-2.126-1.8-1.844-3.479-1.251-1.981,2.774,2.467,1.7,3.479,1.251Zm-3.306-9.771a3.6,3.6,0,0,1,3.081-.106c.666.427,1.325.842,1.992,1.272-1.107,1.156-2.831.775-4.219.663-.12-.913-.367-.849-.853-1.829Zm33.17-5.8c-1.787-.078-7.314.835-7.952-1.491,2.848-1.66,6.2-1.438,9.369-.508-.486.67-.941,1.339-1.417,2Zm40.378,29.952h0a7.614,7.614,0,0,0,2.062,1.241c1.022.61,4.276-.807,5.453-1.072,1.459-.324,3.331.138,4.819.2A15.554,15.554,0,0,0,285.3,120c-.906-.479-2.221.236-3.187-.127q-1.74-.629-3.479-1.273a2.025,2.025,0,0,0-.5,3.814c1.41.694.25,1.128,1.036,2.2ZM246.253,93.866h0c-1.114,1.019,1.16,1.9,1.7,2.175,1.015.543,1.981-.078,3.042-.4-.137-2.319-3.37-3.039-4.741-1.773Zm2.037,5.213c.783-.606,3.232.074,1.918.99.176.236.229.793.455,1.114-.9.374-3.458-1.272-2.372-2.1ZM963.45,113.395h0a24.481,24.481,0,0,0,9.306-1.072,4.409,4.409,0,0,0,.321-2.189c-.183-.36-2.041-.634-2.4-.723-1.794-.564-2.51-.3-4.336.275.109-.4-.046-.874.056-1.269-1.583-.071-3.172-.518-4.5.67-.113-3.18-3.782-1.177-3.373.747.2,1.008,4.047,2.94,4.924,3.56ZM676.787,134.738h0a10.3,10.3,0,0,0,6.722,3.539c2.309.155,7.152,1.636,9.186-.063-3.215-2.231-5.869-4.128-5.978-8.668-.085-3.557,3.313-6.578,5.305-8.922,1.206-1.424,2.295-2.965,3.423-4.452,1.022-1.308,3.409-2.178,4.769-3.053,2.64-1.674,4.413-3.81,7.367-4.72,3.553-1.093,7.152-2.108,10.677-3.335,1.773-.6,8.879-1.861,9.168-5.041.342-3.839-6.958-2.185-8.273-1.124-2.919,2.383-6.211,2.873-9.732,3.881a20.777,20.777,0,0,0-8.432,1.47c-2.326.959-6.109,1.646-8.026,3.359A76.11,76.11,0,0,0,686.6,113.6q-2.067,2.311-4.163,4.628c-1.075,1.206-.465,1.985-.1,3.634.134.649-2.887,2.33-3.405,2.711-1.921,1.375-.148,1.488-1.082,3.3-.656,1.339-2.686.73-2.8,2.531-.169,2.51.1,2.563,1.731,4.332Zm6.4-61.309h0c-3.335-1.22-3.433-1.033-6.274,1.262,1.357.18,2.711.338,4.054.522.747-.592,1.477-1.195,2.221-1.784ZM695.8,65.547h0c-.783-.687-1.579-1.382-2.365-2.076,1.607-.395,3.2-.793,4.8-1.184-2.658-.479-3.7-1.054-5.926.532-1.762,1.262-3.525,2.482-5.34,3.624,1.632.215,3.275.455,4.917.677,1.308-.525,2.616-1.04,3.909-1.572Zm-.07,75.342c.568-.352,1.132-.684,1.7-1.047.624.486,5.3,3.031,3.92,4.258-1.35,1.153-5.143-1.992-5.615-3.211Zm4.248-65.007h0c-.645-1.389-2.03-.486-3.1-.226a13.316,13.316,0,0,0,1.417,1.11c.564-.286,1.124-.592,1.681-.885Zm-5.8-6.69h0c-2.044-.645-3.906-1.431-6.045-1.368-2.968.127-4.018-.261-6.01,2.115,1.956.511,3.909,1.043,5.855,1.555,2.482-.493,4.191-.673,6.2-2.3Zm-29.518,1.791h0c-1.449.955-2.883,1.932-4.315,2.883a19.047,19.047,0,0,0,7.075,1.117c-.219-.786-.437-1.576-.673-2.372q4.246-1.01,8.492-2c-1.544-1.043-2.57-1.953-4.448-1.449-1.78.462-3.479,1.241-5.28.8-3.814-.934-6.363.222-10.162,1.389,1.315.345,2.612.691,3.916,1.033,1.8-.462,3.6-.941,5.4-1.4ZM666.2,149.6h0c.969.962,3.916-1.636,4.656-2.175a6.918,6.918,0,0,0-3.782-1.932c-2.228.906-2.866,2.143-.874,4.107Zm-81.381-7.882h0a9.6,9.6,0,0,0,6.747-3.61c-1.332.025-1.368,1.191-2.418,1.734-.867.479-2.51.247-3.462.349.546.839.007,1.332-.867,1.526ZM183.759,88.237c-.913-.532-2.383.257-3.342.486-.247-.159-.483-.31-.712-.483,1.206-1.762,4.558-2.006,6.366-2.573,1.093-.352,5.323-.441,5.725,1.237.67,2.764-4.685.751-5.6.857-1.167.155-.994,1.294-2.439.476ZM695.73,72.163c.737.4,1.5.786,2.228,1.195-.941.141-1.872.289-2.831.441.307.271.437.776.74,1.036-1.882.342-7.134,2.006-7.9-.176s7.011-2.446,7.762-2.5Zm237.783,39.761h0c1.057.691,2.129,1.815,3.37,1.724,2.094-.18,2.009-.293,2.9-2.4,1.6,2.513,3.934.4,6.236-.483.638-.247,1.435,2.006,2.14,1.861,1.146-.243,2.277-.476,3.419-.7q-.6-1.01-1.2-2.006c1.459.617,1.963,1.153,3.313.31a8.387,8.387,0,0,0,2.76-2.259q-4.605-1.755-9.2-3.5c-.8-.314-2.182-1.244-3.038-.874-1.516.687-.786,1.738-.522,3.419-2.154-.938-6.546-5.083-8.675-3.352-1.953,1.579-3,2.083-3.673,4.618-.363,1.392,1.354,2.619,2.175,3.645Zm-432.4,105.72h0c.768-.25.888-.86.469-1.65a2.931,2.931,0,0,0-1.015.7c.793.169.282.539.546.945Zm444.26-95.9h0c1.984,1.671,3.352,1.255,5.865,1.177-.557-2.295-.74-2.362-2.612-3.507-.448-.247-3.68-1.706-3.7-1.812-.194-1.59-1.435-3.127-3.261-1.893-2.129,1.421.437,2.859,1.361,3.56-1.223.839-2.439,1.688-3.655,2.531,1.653-.173,4.656-1.2,6-.056ZM715.353,69.488h0c1.837-.423,1.244-1.188,1.142-3.194-.7.07-2.319-.183-2.9.222-.539.395-.574,1.833-1.142,2.15-1.54.874-3.137-1.413-4.307.9a9.179,9.179,0,0,0,1.28,1.258c1.978-.451,3.962-.9,5.932-1.336Zm-16.317,2.883h0c1.079-.021,1.689-.317,2.39.578,1.216,1.526,4.258-.68,5.354-1.893,1.3-1.417-1.544-3.5-2.95-3.144a28.605,28.605,0,0,0-6.274,2.319c.391,1.036.391,2.164,1.48,2.14Zm119.334,17.7h0c1.643,2.245,5.792-.582,7.78-1.311.631-.208,1.692,1.036,2.612.885,1.745-.314,3.49-.61,5.242-.924a5.566,5.566,0,0,0,2.922-1.48c.67-.536-.74-2.6-1.523-2.668-1.706-.176-2.016-.892-3.208-2.284-.5-.589-2.774.007-3.514.053.494-.448.987-.885,1.477-1.332-2.4-.885-4.117-.814-5.89,1.093a35.793,35.793,0,0,0-4.353,6.331c-.515.55-1.043,1.086-1.544,1.639ZM795.648,78.625c-.4-.289-2.658-1.7-2.492-2.087.31-.694,1.036-3.342,1.7-3.518.638-.18,3.3-.455,3.479-1.132.511-1.963.3-2.513,2.034-3.053,1.526-.451,3.024-.924,4.551-1.4,1.332-.412-.148-1.759,2.126-1.678,1.967.081,5.058,3.433,6.729,4.625-2.6.761-2.609.441-2.069,3.37.254,1.354,3.014,1.276,4.163,1.537-.8.86-1.615,1.734-2.408,2.591,2.425-.941,3.74-2.055,6.059-.768,1.086.6,0,2-.4,3.074-.3.811.61,2.541.857,3.352-2.566.765-3.68,1.294-6.155.353-2.721-1.033-4.121-.973-7.025-.656-2.411.243-3.321-2.319-4.836-4.283-1.17-1.555-4.579-.441-6.313-.328ZM1060.4,137.407h0c.8-.236,1.488.349,2.263.187,2.587-.511,4.632-.455,6.486-2.5-1.068-.959-1.9-2.129-3.3-2.2-1.847-.088-3.662-.162-5.488-.247-1.273-.056-3.176,1.3-4.375,1.8-.321.13.641,3.447.747,3.994,1.234-.352,2.446-.691,3.662-1.04Zm-491.713,9.433h0c-1.022.455-2.457.536-2.037,2.111.585-.451,1.17-.924,1.734-1.392.109-.243.212-.483.3-.719Zm-7.825,6.676h0a1.412,1.412,0,0,0,1.706-.934c-.493-.536-1.04-.437-1.618.116-.035.257-.053.557-.088.818Zm4.346-5.284c1.047.885,1.287,1.762,0,2.563-.649-.134-1.308-.257-1.928-.391.62-.73,1.28-1.452,1.928-2.171Zm-54.8,53.685h0c.719.2.85.074,1.505-.3-.5-.042-.8-.264-1.343-.155l.493-.3c-1.033-.8-1.216.3-1.269.7.155.219.3.441.448.635.056-.18.092-.388.166-.582Zm78.532-62.36c-1.343.07-2.64.578-3.035-1.3a4.9,4.9,0,0,1,2.485.123c1.216.349,1.029-.243,2.009-.783-.063.966-.779,1.318-1.459,1.963ZM502.072,216.6c-.49-1.029.127-1.54.751-1.371a10.807,10.807,0,0,1-.751,1.371Zm63.481-65.25h0c-1.3.042-2.527-.335-2.474,1.6.814-.522,1.653-1.054,2.474-1.6Zm-61.591,65.666h0a1.985,1.985,0,0,0,.539,1.347c.395-.677.183-1.2-.539-1.347Zm-.7-7.822h0c-.166.074-.321.166-.486.233.24.081.469.145.687.229a3.912,3.912,0,0,0-1.057,2.076c-.092.388-1.061.723-1.452,1.273,1.287.264,1.315.8.053,1.061.776.765,2.824-.056,1.089-1.107,1.075.656,1.6-.342,2.408-1.1.113.141.2.282.3.43-1.213.652-1.424,2.048-1.738,3.366-.2.888.314.9-.134,2.037-.229.568-.684.86-.211,1.311.987.881.768-1.188.871-1.872.145-1.04.092-2.175,1.34-2.644-1.442,1.184-.226,2.372.74.278a4.942,4.942,0,0,1,.356,1.089c-.839.063-.677.37-.494,1.209.275,1.149.465.726,0,2.122-.437,1.35-1.762,1.54-.19,2.757-.021-.328-.035-.67-.056-1,.74.275,1.911,1.223,1.48-.074,1.142.775,2.556-.74,4.184-.5-2.778.659-1.3,4.97.4,3.673-.768,1.068-.68,3.313.257,3.951l-.328.106c-.458-.656-.31-.25-.842-.546.067.243.123.483.183.726-1.022-.19-1.907-.613-2.8.116a1.174,1.174,0,0,0-1.653-.765c1.167.952.592,1.854-.455,2.573.684-.137,1.364-.271,2.044-.388-.2,1.361.592,1.717-.331,3.007-.49.68-2.52,1.057-3.285,1.385.127.338.18.909.134.754.892,1.547,2.059-.469,3.391.282-.166.137-.338.268-.5.388.546,0,1.953.853,2.161.775.987-.342,1.974-.673,2.961-1.015a4.468,4.468,0,0,0-1.361,2.171c-1.872-.254-3.849-1.086-4.477,1.339-.321,1.294-2.446,2.33-3.342,3.384,1.653,1.156,3.451-2.256,5.774-.553,1.311-3.282,1.815-.61,4.191-1.77.7-.363,2.161-1.5,2.929-1.47,1.015.067,1.251,1.17,2.393.906,1.946-.5,3.268-.423,5.326-1.28,2.63-1.079-1.41-1.918-2.2-2.02,1.992-1.495,3.352-2.245,3.652-4.938.321-2.781-4.364-.9-4.822-1.414,1.812-1.3-.9-3.617-2.274-3.617a1.583,1.583,0,0,1,2.119.67c-.575-3.539-3.532-3.832-4.427-6.726-1.135-3.7-2.693-4.008-6.038-4.477a2.069,2.069,0,0,1,2.175-.9c-1.015-2.122,3.743-4.7,2.482-6.62-.8-1.223-6.292-.6-6.9.659l-.293-.24c.4-.352.62-.994,1.079-1.29a8.715,8.715,0,0,0-1.435-.434c.338.039.684,0,1.012.025.268-1.322,2.771-1.643,3.116-3.648a6.7,6.7,0,0,0-4.283.8c-.631-.331.063-.444-.885.025-.257-1.371-1.406-.226-.934.885-.3.067-.6.109-.9.169-.137.352-.2.585-.271.772.388.363.7.888,1.114,1.213a2.126,2.126,0,0,0-2.111-.18c.282.483.31,1.156.6,1.639-.275-.06-.567-.127-.832-.173-.137.74.24.684.8.892Zm3.617,13.776a1.221,1.221,0,0,1-.592,1.636c-.183,0-.374-.021-.568-.021a1.931,1.931,0,0,1,1.16-1.614Zm63.46-72.642h0c1.146-1.223,2.284-2.45,3.447-3.68-.8.666-1.611,1.343-2.393,2.006-1.015-.011-1.389.634-1.054,1.674Zm5.992-7.219h0a18.037,18.037,0,0,1-1.963,1.837c.694.025,1.378.07,2.066.1.536-.934,1.385-1.406-.1-1.935Zm-4.025,2.1c.976-.31,1.643-.733,2.238.515-.7.564-3.892,3.754-3.726,1.385.1-1.59.081-1.442,1.488-1.9Zm6.884-2.753a1.508,1.508,0,0,1-1.47,1.029,7.1,7.1,0,0,1-1.022-.458c.381-1.255,1.569-1.142,2.492-.571Zm-10.293,6.465c1-.62,1.2.99.952,1.812a1.6,1.6,0,0,0-2.037.79c-.793,1.057-1.234.652-2.446.437.73-.779.557-.437.694-1.452.264,0,.539-.032.811-.042-.317-1.022.137-1.822,1.117-1.847-.148.754-.275,1.48-.405,2.235,1.075-.525.666-1.516,1.315-1.932Zm-2.711,4.332h0c.025,1.445-.776,1.734-1.875,1.893.441.31.275.469.825.705a5.593,5.593,0,0,1-.638,1.086c1.223-1.258,1.935-1.72,1.688-3.684Zm1.361-.469h0a4.631,4.631,0,0,0-1.079-.155,4.482,4.482,0,0,0,.166,1.554c.948-.962,1.9-1.949,2.838-2.929-.931-.074-1.551.564-1.925,1.53Zm13.846-9.852c-.86.4-1.717.828-2.594,1.23-.613.187-1.234.395-1.844.589.913-1.156,3.13-2.644,4.438-1.819Zm1.184-1.7h0a3.5,3.5,0,0,0-1.378.06c.1.307.194.617.3.9.793.6,1.195.152,1.075-.955ZM731.6,121.044h0c-1.9.226-1.428,1.047-1.618,3.053,1.681-.282,3.37-.6,5.058-.892a2.98,2.98,0,0,0-3.44-2.161ZM909.176,309.167h0c.109.786.208,1.551.31,2.355,1.907.2.448-1.963,1.8-1.812,1.664.2.779,2.358.36,3.031-.888,1.389-1.072,5.908,1.332,4.177,1.924-1.41,2.622-3.976,3.662-6.211.254-.564-.8-2.023-1.033-2.425-.656-1.135-1.276.169-2.193-1.17,1.509-1.4,3.215.758,3.983-2.009.786,1.318,1.378.772,2.365.18.494-.3,2.182-.652,2.39-.934,1.015-1.262,3.225-.444,4.688-.324-2.231,1.911-.867,3.239.8,4.709.9-1.266,1.717-3.529,3.479-3.19-1.033-.9-1.364-1.914-.109-2.757,1.417,2.295,4.283,1.258,5.672-.7.317.631.631,1.269.948,1.9a15.356,15.356,0,0,1,2.478-3.172c-.159.694-.3,1.41-.458,2.115,1.488-.515,1.741-1.773,3-2.467.162-.088-.268-3.081-.085-3.916.356-1.66.987-1.71.969-3.722-.028-1.269-.293-3.373,1.54-2.436,0-1.287-.352-2.228.663-2.9,1.139-.737.747-2.1.782-3.493.039-.976-1.057-2.355-1.48-3.211-.455-.885.018-1.794.222-2.767-1.572-.835-2.5.381-2.066,2.062-.952-3.581-3.116,1.107-3.479,2.478-.293,1.1,1.043,1.6.857,2.164-.472,1.459-.948,2.936-1.413,4.417a8.332,8.332,0,0,1-3.691,4.833,8.44,8.44,0,0,1-3.232,1.206c-1.114.032.194-1.974.539-2.284-1.579.6-2.168.405-2.21,2.245-.039.955-1.516,2.242-2.073,2.947-.694.9.328,1.7-.878,2.245-1.727.754-.976-.684-2.062-.575-1.985.222-5.7-.271-6.941,1.54-1.41,2.076-3.254,3.423-5.5,3.352.9,2.464-2.439,3.493-3.944,4.519Zm-3.007,105.456h0a15.714,15.714,0,0,0-2.911,2.792c-.952,1.614-.321,1.914-.063,3.236a12.118,12.118,0,0,1,.18,3.6c-.1.733,1.717,1.759,2.228,2.224-.215-1.48-.821-4.727,1.685-3.712-.377-.314-2.891-2-1.629-2.326a1.27,1.27,0,0,0-.011-2.527,10.144,10.144,0,0,1,.842-1.357,18.207,18.207,0,0,0-.321-1.932Zm67.15,88.723h0c-1.759-1.6.642-3.747-2.115-4.685-.3-.109-1.738,1.8-2.059.726-.391-1.332-.793-2.626-1.195-3.923-.712-2.386-.684-3.722-2.658-4.861-.786-.455-6.225-2.9-6.225-3.754,0-2.256.6-4.815-.86-6.5-2.048-2.383-1.9-3.331-2.073-6.641-.12-2.094-2.686-3.2-4.092-2.027a52.591,52.591,0,0,0-3.909-12.778c-2.249.539-2.421,4.639-2.985,6.662-.582,2.189-.1,4.811-.011,7.082.1,2.742-1.47,11.407-5.213,10.036-1.322-.472-2.474-2.816-3.856-3.662q-3.754-2.221-7.5-4.459c-2.309-1.368-1.322-2.175-.656-5,.518-2.274,1.78-3.433,3.25-5.154-2.355-2.295-2.94-2.425-6.052-2.728a53.806,53.806,0,0,0-7.307-.553c.081,1.139.173,2.274.275,3.423-2.714-.405-5.139-1.854-6.87.663-1.713,2.478-2.118,4.773-2.848,7.815-2.337-1.241-4.656-2.489-7-3.719-.846-.451-3.733,2.809-4.4,3.377-3.789,3.239-8.886,6.028-10.779,10.977-.948,2.538-.969,4.611-3.405,5.2-3.215.747-6.458,1.509-9.68,2.242-2.21.525-3.409,1.47-5.351,2.869-2.4,1.748-2.859,2.4-4.018,5.369-.405-1.008-.807-1.988-1.206-2.982-1.618,3.962-2.622,7.314-1.012,11.336.945,2.393.691,2.753-.13,5.263-.56,1.763.564,3.049,1.311,4.678a43.039,43.039,0,0,1,3.758,12.26c.236,1.671,1.643,5.992,1.058,7.469-.208.532-3.807,2.573-2.055,3.934,1.452,1.149,3.106,3.2,4.953,3.2,1.826,0,4.018.628,5.443-.761,2.055-2.034,2.594-2.771,5.242-3.035,1.889-.19,3.789-.469,5.682-.532,1.449-.046,2.883-.078,4.329-.13.444,0,1.114-2.052,1.34-2.5.74-1.583,3.617-2.228,5.062-2.929,1.6-.779,3.87.441,5.294-.412,1.124-.673,3.363-2.749,4.632-2.591,4.491.6,8.5,1.068,12.767,2.686,2.7,1.033,2.883,1.533,4.413,4.272a41.761,41.761,0,0,0,3.165,5.051,45.52,45.52,0,0,0,6.2-8.322c1.1,3.4-1.1,6.081-2.816,8.918,2.831.631,2.7-.99,4.029-3.715.162,1.724-.31,5.95,1.442,5.95,1.565,0,2.7,3.26,3,4.671,1.022,4.85,4.5,6.162,8.6,6.814,2.647.433,3.028.765,5.1-1.029,2.369-2.023,2.185-1.1,4.167,1.308.952,1.142,3.462.236,4.381-.694,2.111-2.122,2.422-2.323,5.263-2.408,4.759-.159,4.329-6.648,5.079-10.726.649-3.532,4.5-6.126,5.369-9.62,1.015-4.138,3.169-9.151,3.3-13.427.134-4.078-1.28-8.76-1.882-12.785-1.893-1.731-3.789-3.451-5.693-5.192ZM898.252,434.2h0c-.941,2.682,3.479,1.509,4.047,1.276.109-1.621-3.426-3.07-4.047-1.276Zm15.626,26.659c1.551-.423,1.16,1.1.183,1.724-1,.652-2.312.018-3.581.028.159-2.848,1.9-.737,3.4-1.752Zm65.381-21.347h0c.7-1.622.959-1.688.063-3.172-.145-.222-.705.18-.962-.2a5.112,5.112,0,0,0-.754-1.2,54.519,54.519,0,0,0-4.748-3.077c-.575,1.868,6.444,2.785,5.686,6.218a9.034,9.034,0,0,0,.716,1.431Zm-15.21,126.539h0c-.92.363-3.687,2.125-4.565,1.72-1.625-.723-3.257-1.449-4.864-2.175a16.545,16.545,0,0,0,.93,7.885c1.258,2.957,2.693,3.61,5.361,4.107,3.25.627,6.419-10.48,3.137-11.537Zm4.826-124.276c1.114-.049,1.854-1.78,2.055-1.336-1.332,3.208,4-.7,4.181-.666-.025-.8-.391-3.8,1.244-2.739,1.234.828,2.256,2.609.028,3.1,1.639,1.678-1,1.488-1.216,1.942-.606,1.35-2.3,1.949-3.634,2.263-1.766.423-5.46-.56-6.239-2.453,1.16-.423,2.376-.074,3.581-.113Zm-11.1-.331c1.477,1.6,6.493.384,6.137,4.216-.9.113-1.8.2-2.693.314.236.666.472,2.1,1.04,2.485.585.395,1.819.874,2.14,1.54,1.322,2.675,1.184,3.38,3.962,3.483-.786,1.77.867,1.583,2.016,1.854-1.188.994,1.269,2.665,2.03,3.49-1.015.349-2.989-1.167-4.251-1.378-1.826-.324-3.6-.169-4.945-1.579-1.71-1.8-3.409-3.585-5.1-5.379-.867-.917-4.466-.723-5.682-.885-.987-.159-1.47,3.243-2.566,3.937-1.942,1.258-4.008.666-6.246.553-1.339-.07-2.154-3.391-3.257-3.282-2.133.233-4.251.444-6.384.649.384-3.134.645-2.834,3.433-3.627-.8-1.9-1.583-3.807-2.4-5.717-.465-1.107-2.94-1.579-3.913-1.992-2.379-1-4.734-2.013-7.11-3.021-2.016-.857-1.988-.765-2.411-3.18-.85,1.036-1.681,2.034-2.5,3.06-.948-1.611-1.889-3.208-2.831-4.829,2.267-.536,3.546-.969,5.728-.226a3.638,3.638,0,0,0,.134-1.417c-1.8.088-3.842.635-5.467-.261-.638-.342-.12-1.9-.62-2-.962-.141-1.921-.261-2.876-.43,1.5-2.9,4.3-3.483,7.011-2.852,1.773.437,2.295.06,2.549,2.023a18.746,18.746,0,0,0,1.308,4.9c.6,1.565,1.322,1.639,2.778,2.344.5.219,2.319-2.767,2.718-3.3,1.124-1.5,3.828-2.76,5.492-2.136,3.44,1.311,6.874,2.64,10.325,3.937,2.129.814,4.791,1.361,6.761,2.6,1.3.825,2.658,1.671,3.983,2.513,1.357.849.73,2.527,1.706,3.6Zm-10.85-202.769h0c-.028,2.119.229,4.064-.684,5.936-1.163,2.422-.247,2.471.247,4.928a2.844,2.844,0,0,1-.557,2.922c-.405.652.183,1.731.19,2.485.01,2.383-.395,2.887.529,5.192.3-1.276.293-3.31,1.815-3.553,1.583-.261,2.305,1.66,2.231,2.972,1.47-1.54-.321-3.948-1.16-5.365-1.072-1.833-1.745-2.2-1.1-4.265.9-2.845.613-3.645,3.3-4.149,1.763-.328,1.583,2.672,3.278,2.711a28.521,28.521,0,0,1-2.728-7.582c-.349-1.325-.684-2.658-1.022-4-.229-.9-1.28-1.625-1.445-2.541-.483-2.915,1.8-4.35.321-7.261-.793-1.53.155-5.788-2.6-3.659,1.047,1.047,1.706,2.725.575,3.786-.465.423-.613-.5-1.488.2-.923.7-.631.85-.314,2.055.367,1.392-.483,3.754-.719,5.185-.236,1.54,2.824,2.365,1.332,4ZM892.545,391.753h0c1.389.282,2.309-1.872.511-2.062-.522.469-2.221,1.71-.511,2.062Zm-2.129.479c-.3-2,1.3-4.325,1.9-6.207.166-.081.321-.169.483-.254-.226.871.109,2.616-.455,3.151a5.541,5.541,0,0,0-1.928,3.31Zm4.942-6.652c-.109,1.6,1.378,3.3.6,4.459-.173-.451-.4-.864-.6-1.28.109.465.025.99.1,1.473-1.276-.726-.381-3.976-1.65-2.869a4,4,0,0,1-.515-2.305,1.581,1.581,0,0,0,2.066.522Zm-4.448-2.746h0a4.1,4.1,0,0,0,1.625,1.752,6.294,6.294,0,0,0,.081-1.854c-1.213.092-.931-1.35-2.566-1.237a1.936,1.936,0,0,1-.391,2.386,7.789,7.789,0,0,1,1.251-1.047Zm2.256-1.1h0c.035,1.177.948,1.558,1.763,2.242.9.786-.085.874.493,1.635,2.027,2.693,1.787-.916,1.477-2.6-.518-1.96-2.291-1.35-3.733-1.276Zm-7.208,2.556a5.584,5.584,0,0,1,1.576-.12c1.942.754,2.5.955,3.613,2.834.458.818-1.033,3.162-1.022,4.371.018.835.42,2.143-.441,2.284-.913.162-.649-.874-1.392-1.216-1.921-.878.116-2.859,1.011-4.04-3.507,1.681-3.07-.733-3.345-4.114Zm-7.734,43.4h0c-.409,1.258-.109,2.1-.74,3.475-.874,1.879-1.378,2.073-.236,3.754.649.923,2.245-.321,1.921,1.879-.13.909-1.153,4.424-.733,5.108.4.663,2.8,1.012,3.225.208.208-.36-.458-1.53-.441-1.992.018-.553.592-1.068.649-1.621.138-1.117-.13-2.573.028-3.846s-1.569-2.115.874-2.415c1.343-.148.292,2.386.469,2.982.465,1.438,2.147,1.184,1.745,2.665-.423,1.5.6,1.822,1.741,1.551-.546.138,2.467-2.365,2.111-1.551.878-2.023-1.188-1.008-1.808-2.506-.162-.381.874-1.128.62-1.6-.363-.709-.747-1.406-1.121-2.122-.613-1.16-1.227-1.086-2.02-1.953,2.728,1.022,3.729-4.47,6.155-2.9.659-2.4-1.435-.952-2.312-.92-1.149.007-1.195.511-2.08.751-1.057.282-.522-.994-1.562.169-2.623,2.862-5.372-2.168-3.352-4.625.969-1.181,2.21.18,3.536.06,1.5-.113,3.469-.754,4.847.021,3.359,1.97,5.263-1.763,6.292-4.7-1.4.021-2.538,2.214-3.761,3.028-.684.437-1.865-.37-2.612-.409-.913-.06-.758.6-1.847.229-1.378-.472-3.9-1.963-5.249-1.086-1.773,1.149-2.175,2.143-3.169,4.135,1.244,1.833-.638,2.647-1.17,4.237Zm3.186-49.039h0c.871,1.484,1.727,2.961,2.587,4.452,1.741-2.073,1.487-3.151-.515-4.508-.684.018-1.378.039-2.073.056ZM864.55,450.4h0c0,1.72,1.2,3.151,2.443,1.533s-1.354-1.97-2.443-1.533Zm77.256-180.566c.92.261,1.844.5,2.767.754a3.423,3.423,0,0,0,.328-2.393c-.092-.969,1.452-1.861,1.16-2.728-.236-.8-.987-6.151.786-3.747,1.407,1.925,2.394,3.768,4.42,4.8,2.866,1.452,2.957,2.094,5.231-.278.493,1.4-1.992,4.184,1.308,4.085a4.856,4.856,0,0,1-4.413,1.72,4.13,4.13,0,0,0-2.245,1.258,14.984,14.984,0,0,0-.811,2.559c-.987.472-3.38-1.583-4.149-2.316-.5-.5-1.826.321-2.365.592-.511.275-1.533-.723-2.492-.4-.293,1.914,1.671,1.195,2.274,2.274.522.885-.532.8-.976.666-.649-.173-1.234,1.368-1.625,1.227a12.77,12.77,0,0,1-1.354-3.958c.321-1.206.493-1.206,1.526-1.759.518-.282.511-1.731.631-2.355ZM549.444,218.015h0c.109.765,1.378,2.489,2.154,2.3a1.023,1.023,0,0,0-.063-1.992c-.264-1.1-1.188-.814-2.09-.307ZM623.9,300.087h0c-.969.437-2.429,1.512-3.472,1.421-.61-.06-2.929-.553-3.4.363-1.54,3.049,4.741,1.3,5.354,1.117-.8-1.459.631-2.094,1.516-2.9Zm-24.886,2.46h0c.063-1.139-2.182-1.544-3.18-1.4-2.027.293-2.573-.088-4.392-1.167a4.551,4.551,0,0,0-.7,1.551,23.1,23.1,0,0,0,8.273,1.019Zm-45.525-85.121h0c-.264.839-.018,2.348,1.022,2.288,1.251-.1,1.015.98,1.269,2.235.229-1.445.071-2.954,1.734-3.109-.356-.233-.567-.74-.931-.969,4.128-.853-2.591-4.582-.61-.663-.881-.071-1.188-.479-.744-1.347a2.712,2.712,0,0,0-1.012,0,1.263,1.263,0,0,1-.73,1.565ZM590.3,203.834h0c-2.052-.645-2.859-.476-4.921.145a2.348,2.348,0,0,1,.747,2.742c.885-1.565,2.749-1.974,4.174-2.887Zm-44.457,78.42h0c.085.441-.719,1.308-.821,1.78-.046.24.747.652.712.9-.219,1.4-1.4,1.519-.254,2.616.9.839,1.822.955,1.942-.469.063-.828,1.287-.053,1.47-1.54.183-1.523.384-3.063.568-4.6.384-3.141-3.18-1.251-4.029-.687-.307-.116-.61-.219-.92-.342-.568,1.681,1.086,1.188,1.332,2.348ZM1088.7,177.5h0c-.628-.028-3.317-.631-3.772-.19-.677.624,0,2.023.476,2.415,1.66,1.329,3.937-.638,5.005.737,1.248,1.59,3.194,2.221,4.089-.409-1.741-.839-3.881-2.45-5.8-2.552ZM574.376,211.332h0a5.936,5.936,0,0,1,2.513-2.009c-.991-1.114-.085-1.748.6-2.672-2.986-.73-3.278,2.3-3.113,4.681Zm6.218-14.844h0c-.053-.331-.092-.673-.155-1h.483c-.243-2-2.866-.522-.328,1Zm-34.9,78.377h0c-1.1.924.9,2.855,1.872,2.806a11.784,11.784,0,0,0,.694-6.007c-.867.18-.109.9-.613,1.562a11.152,11.152,0,0,1-1.953,1.639ZM986.327,443.1h0c-.828-.423-.677-1.681-1.935-2.073a2.954,2.954,0,0,0,.649,2.4c.483.575.247,1.428.564,1.791.677.807,3.409,1.607,2.52-.412a5.036,5.036,0,0,0-1.8-1.7ZM921.7,308.384c-1.4.62-1.717,3.652-3.624,2.393-.871-2.887-.011-2.337,1.1-4.73.758.585,5.643-2.587,5.453,1.065-.021.5-1.188,1.593-1.488,2.016-.388.5-1.043-.92-1.445-.744ZM904,433.936h0c-1.417,1.84,1.357,1.84,2.133,1.731.568-.071.335-1.329.867-1.117.606.212,1.417.744,2.048.575,1.808-.483,2.341.229,3.916,1.318.7-3.18-2.774-3.479-4.685-3.987-1.579.282-3.229.13-4.279,1.48Zm136.091,134.773h0a7.23,7.23,0,0,0-.941-3.412c-1.417.775-1.953.782-2.319,2.453-.4,1.773-.888.976-1.8,2.238-.648.9-.529,2.46-1.135,3.412a15.218,15.218,0,0,1-2.735,2.411,12.659,12.659,0,0,1-2.749,2.147c-.758.349-2.531.754-3.07,1.452-1.689,2.274-3.381,4.547-5.051,6.81-1.745,2.326,3.342,1.7,4.036,2.5,1.015,1.17,4.674,2.429,5.71.7,1.16-1.893,3.268-4.226,3.853-6.419.793-3.053,1.889-3.514,4.311-5.305a1.555,1.555,0,0,0,1.361,1.265c-.924-1.879-1.061-2.062.18-3.683s2.478-3.229,3.729-4.847c-.356-1.191-.723-2.383-1.079-3.585-.769.631-1.533,1.255-2.3,1.861Zm-15.88,21.358c2.675,2.08-.092,1.579-1.1,2.527.765-.969.152-2.185,1.1-2.527Zm30.738-36.145c2.386.31.515,3.856-.536,4.886-.314.317.437,1.586-.5,1.131-.783-.381-2.436-.25-2.383,1.121.071,2.242-1.755,4.621-2.714,6.571-1.149,2.337-2.876,1.53-4.434.546.828-.93,2.866-3.1,2-4.73-.265-.486-1.829-.564-2.3-.849a18.53,18.53,0,0,1-2.129-1.9c1.8-1.368,2.119-1.925,2.933-4.138.585-1.579-.539-3.2.025-4.854-1.579.525-3.021-4.7-3.7-6.133-.225.176-.465.37-.712.56-.62-1.347-1.269-2.679-1.911-4,1.192.324,1.823,1.583,3.091,2.066,2.535.976,1.23.684,1.96,3a6.661,6.661,0,0,0,1.188,1.7c.42.631-.145,1.639.166,2.263,1.086,2.175,2.235.775,2.055-.977,1.734.836.62,3.976,2.291,4.406,2.757.7,3.2.888,5.615-.663ZM527.325,284.929h0c.6.472,1.213.976,1.826,1.449.539-.451,1.086-.881,1.618-1.336-1.114-2.076-1.819-1.047-3.444-.113Zm556.188-117.476c1.142.18,3.144.983,4.24.67,1.248-.356,2.792-2.263,3.842-3.123-1.727-1.414-3.669-3.8-5.735-4.508a20.891,20.891,0,0,0-7.818-1.177c.388,1.308.744,2.6,1.114,3.9-3.166,0-2.82-1.026-4.015-4.251-1.068-2.855-1.424-2.993-3.93-4.431-4.061-2.33-8.1-4.484-12.288-6.535-3.627-1.759-7.462-4.551-11.463-4.854q-7.672-.6-15.316-1.2c.338,2.379.673,4.752,1,7.138-1.086.113-3.239.839-4.255.437-1.389-.571-2.986-2.954-4.121-4.036-1.534-1.533-1.322-1.505-3.084-.187-1.135.839-2.915.046-4.223-.166a23.846,23.846,0,0,0-9.45.176c-3.095.546-5.421-.582-8.439-1.583a5.637,5.637,0,0,0,.1-4.371c-.568-1.836-1.382-1.59-3.106-2.09-2.848-.832-5.665-2.224-8.594-1.72q-5.346.909-10.695,1.815c-1.579.282-5.168-5.569-6.74-6.451-2.566-1.456-6.5-1.685-9.309-2.411a66.845,66.845,0,0,0-8.107-2.073c-3.6-.465-7.166-.931-10.751-1.392-.818-.1-2.527,3.056-3.046,3.765-.694.931,1.075,2.947,1.607,3.888-1.893.779-3.737,1.533-5.584,2.309-1.167.465-3.578-1.459-4.653-2.016-1.519-.747-3.338.388-4.861.871-2.4.761-2.767.13-4.97-1.329-2.108-1.371-1.826-1.128-3.384.955-.571.744-2.982,4.836-3.789,4.374-1.822-1.033-3.631-2.059-5.446-3.109-.539-.307-.7-4.819-.684-5.619.007-.994,1.3-4.674.709-5.326-.966-1.1-2.764-4.159-4.071-4.593s-4.191.786-5.559,1.057a34.1,34.1,0,0,1-5.665.141c-2.693.035-2.4-.067-2.823,2.979-.208,1.5-3.458.9-4.639.973-1.97.1-3.944.2-5.926.3-1.276.078-3.49-1.632-4.7-2.228q1.422-.83,2.831-1.66c-4.942-.532-9.972-1.576-14.932-1.1-3.8.36-4.53.469-7.681-1.847-2.108-1.547-4.833-.137-6.606,1.385,1.473.222,2.961.444,4.449.677q-8.656,2.437-17.3,4.893,12.478-7.667,24.96-15.351c.553-.36,1.065-2.326,1.361-2.965.236-.5-1.491-2.249-1.829-2.707-1.329-1.752-4.265-2.972-6.017-4.177s-3.983-.765-6-.821c-1.325-.049-2.658-.113-4-.152-.638-.025-.356,2.556-.374,3.222-1.727-.123-3.444-.219-5.15-.331q1.9-1.671,3.825-3.352c-3.095-.434-6.2-.9-9.3-1.329,1.949-.6,3.92-1.188,5.876-1.791-1.836-2.69-6.32-2.69-8.8-1.421-2.055,1.068-4.145,2.108-6.218,3.183-1.339.68-.6,3.363-2.238,4-7.022,2.682-14.107,3.571-21.46,4.91-3.881.737-8.428.857-12.154,2.252A36.16,36.16,0,0,0,783,110.966c-2.3,1.368-2.062,1.4-2.15,4.382-.039,1.526.557,3.113-.952,3.271-2.267.219-4.54.465-6.814.691q-6.028.6-12.045,1.227c.229,1.361.476,6.676,1.688,6.874.923.162,3.479.053,4.163.709s1.072,2.933,1.428,3.888c-1.1.173-2.467.765-3.433.116a19.45,19.45,0,0,0-3.106-1.928c-3.581-1.347-5.069-2.224-8.661-1.086-1.177.374-6.355,2.6-3.366,4a83.053,83.053,0,0,0,7.843,3.243c-1.875-.141-9.218-.159-10.212-1.942-1.459-2.63-1.618-2.563-.229-5.235.6-1.131-1.392-3.881-2.408-3.624.356.828,1.533,4.043.162,4.614-1.854.768-3.543,1.061-4.685,2.848-.878,1.361,1.657,3.786,2.457,4.991,1.033,1.516-.723,3.55-1.463,5.1-.564,1.241.606,3.521.952,4.794.12.437,4.812-.589,5.361-.687,2.309-.349,2.527-.335,4.477,1.061,1.477,1.061,1.258,2.834,1.533,4.678-1.216-1.4-2.439-2.8-3.645-4.216-.712-.835-3.306.578-4.219.85-4.783,1.459,1.05,4.928-1.206,7.219-2.037,2.052-5.1,5.858-7.818,6.743-3.444,1.139-6.348-.694-8.9-2.788,1.05.127,3.765,1.061,4.632.518q3-1.835,6-3.673c1.153-.716,1.78-3.733,2.337-5.016.969-2.33-1.1-2.549-2.929-3.768-1.516-1.029,1.558-9.56.627-11.481-.511-1.061-2.439-3.687-2.016-4.822.793-2.164,1.59-4.353,2.383-6.528-2.073-.2-10.9-2.305-11.608-.307-.529,1.586-1.058,5.21-2.33,6.225-1.861,1.484-3.726,2.975-5.576,4.445.846.546,3.779,1.678,3.313,2.735-.539,1.283-2.538,3.937-1.287,4.85,1.9,1.421,3.789,2.827,5.668,4.241.768.557-.19,3.8-.31,4.773-1.632-1.227-3.486-3.289-5.333-4.033-2.577-1.019-5.132-2.041-7.7-3.063-3.8-1.509-9.14-2.1-12.856-.469,1.614,2.111,2.672,2.291,1.047,4.48-1.752,2.337-1.643,2.214-4.283,1.421.367-.631.74-1.258,1.107-1.9-2.4-.539-3.017-.624-5.235.437-1.928.931-3.2.624-5.326.367-1.413-.155-2.273,2.908-3.913,2.506-2.52-.634-2.5-.61-3.327-3.31q-4.288,1.951-8.594,3.9c-1.879.857-3.772,1.717-5.643,2.563-.677.317-2.474.709-2.947,1.343-1.061,1.4.346,2.873-1.611,3.141-1.59.24-3.2,1.117-4.29-.271-.987-1.3-2.668-2.337-1.762-3.885.546-.966,3.6-.666,4.628-.772-.959-1.276-2-3.669-3.56-3.863-2.083-.282-4.174-.532-6.25-.814.377.472,2.221,2.154,2.076,2.711-.367,1.576-.751,3.141-1.142,4.734.1-.349,1.791,2.358,1.879,2.64.356.938-.465,2.76-.684,3.736-1.717-.511-3.444-1.026-5.161-1.54-1.022-.321-2.619,1.339-3.469,1.914q-2.422,1.623-4.879,3.278c-.229.145,1.473,4.36,1.664,4.921-2.154-.754-4.318-1.484-6.482-2.249-2.651-.924-2.8-1.378-4.953.589.952,1.195,1.435,2.45,2.894,2.45,1.35,0,2.073,2.2.705,2.767-2.33.976-5.379-1.752-7.755-2.781-2.09-.9-1.7-5.555-1.7-7.871,0-2.3-4.353-5.178-5.869-6.719a65.188,65.188,0,0,0,15.415,5.242c3,.705,3.99.568,7.032-.437,1.332-.448,1.6-1.237,2.439-2.51,1.339-2.069,1.459-2.013.666-4.41-.825-2.429-3.546-3.793-5.643-4.448a39.774,39.774,0,0,1-7.639-3.624c-2.792-1.579-4.181-2.355-7.286-2.478-1.477-.046-6.958,1.181-6.493-1.992,1.086.268,2.531,1.241,2.933-.282-.712-.349-2.76-1.875-3.254-1.177-1.093,1.459-2.647.744-4.3.6-.694-.046-2.622.557-2.8.176-.631-1.53-2.129-1.054-2.848-2.372,1.406.13,3.324.751,4.7.451.613-.134,3.624-1.664,2-2.312-1.918-.754-3.846-1.519-5.753-2.259-1.829-.726-.532,3.426-2.771,1.727.522-.881,1.033-1.741,1.565-2.612-.6-.046-2.771-.532-3.134-.049-.832,1.117-1.681,2.256-2.541,3.38q-.254-1.412-.557-2.841c-1.195,1.505-2.82,4.656-4.685,5.012.758-3.014,1.653-4.011,3.684-6.246a9.061,9.061,0,0,0-5.2.9c-1.5.881-2.355,3.553-4,4.043a99.664,99.664,0,0,0-12.549,4.6c-3.715,1.685-6.243,5.118-9.02,8.252-2.848,3.222-5.862,5.943-8.153,9.662-2.358,3.81-3.8,7.589-7,10.624-1.516,1.424-2.9,2.869-4.272,4.42-1.519,1.71-3.254,2.348-5.252,3.335a22.5,22.5,0,0,0-4.632,2.732c-2.566,2.171-2.813,2.185-2.986,5.739-.2,4.128,1.406,8.139,1.544,12.3.109,3.373,5.651,4.054,7.815,2.732,1.41-.857,2.5-2.362,3.867-3.342,1.942-1.41,2.425-1.657,3.067-4.131.3.909.441,2.471,1.34,2.69,1.043.222.211,1.851.434,2.781a15.241,15.241,0,0,0,1.385,2.894c.321.709.056,1.847.511,2.45,1.061,1.413,3.691,3.606,3.024,5.435-.328.874.162,2.319.293,3.236.257,1.748.409,1.361,2,1.248,1.022-.063,1.681.278,1.981-.832.236-.9.194-1.992,1.079-2.157,2.249-.483,4.184-.483,5.3-3.081.821-1.9.74-4.942,1.05-7.015.374-2.577,1.833-3.211,3.708-4.843,1.086-.945,3.6-2.21,2.929-3.694-.948-2.083-3.962-2.027-5.012-3.842-2.45-4.226,1.382-8.791,3.652-11.646.768-.987,9.81-5.65,8.749-7.572-1.2-2.1-.43-3.437,1.05-5.094,2.33-2.6,2.623-2.482,5.957-2.358a4.81,4.81,0,0,1,4.893,3.648c.568,1.949-.952,1-1.9,1.456-1.033.508-2.207,2.746-2.975,3.684-1.5,1.875-3.6,3-5.161,4.787-.62.73-2.584,2.231-2.778,3.176-.219,1.05.857,3.4,1.114,4.417a7.38,7.38,0,0,1,.063,3.691c-.335,2.228-.518,2.069,1.41,2.838a4.513,4.513,0,0,1,2.8,2.457c.31.518,2.337-.215,2.841-.324,4.91-.945,9.842-2.111,14.646-3.042-.264.335-.264.945-.5,1.311,1.368.585,4.54,1.149,5.03,2.742-.832-.12-2.52-.8-3.25-.328-1.061.663-2.383.307-3.292.874-1.41.9.606,1.766-1.755,1.473-1.72-.222-3.437-.434-5.164-.645-2.309-.293-4.9,1.036-6.99,1.956-.335.141.289,2.658.617,3.031a15.278,15.278,0,0,0,1.333,1.431c.24.18.878-.617,1.205-.349.183.141-.412,2.957-.282,3.669.173,1.086-.705,2.859-1.925,2.764-2.221-.155-2.943-5.1-5.947-2.862-1.177.874-.606,2.242-1.315,3.1a4.234,4.234,0,0,0-1.015,3.134c.081,1.523,2.1,7.723-1.262,6.084a5.275,5.275,0,0,0,1.315-1.893c-.493.8-1.4,1.117-2.08,1.738-.257.226-.814.035-1.05.264-.264.257-.423,1.424-.821,1.893-1.026,1.223-3.747.941-3.789-1.061.374.212,1.1.441,1.287.564-1.963-1.678-6.246-.483-7.709,1.459-.9,1.2-5.506,1.29-6.8,2.115.592.049,1.184.123,1.78.173a3.462,3.462,0,0,1-.2,1.163c-1.043-.585-2.136-.853-2.5-2.09a3.874,3.874,0,0,0-2.647-1.738c-1.826.222-3.645,3.246-5.774,2,.3-.617.589-1.258.878-1.889-2.161,1.029-4.339-.959-4.731-3.289-.511-3.19,2.319-3.98,3.818-6.37-2.566-.634-1.953-4.315-.768-6.045-1.688.874-3.148,2.764-4.921,2.813-2.309.1-2.739,2.573-2.647,4.78.063,1.336-.155,1.865.793,2.661,1.2.98.345,1.748.79,3.176.427,1.347,1.576,1.269.261,2.291-.793.624.821,1.985,1.4,2.2-1.068.134-2.348-.264-2.062,1.265a9.338,9.338,0,0,0-2.5-.278c-.529.081-1.061.173-1.59.236-.476.088-.2,1-.483,1.1-1.911.606-3.525-.525-5.15,1.435-.493.571-1.773.416-1.935,1.177a7.776,7.776,0,0,1-1.526,3.648c-.282.353-.046,1.026-.293,1.3-.127.137-1.544.278-1.533.412.035.645,1.533.825,2.069,1a6.367,6.367,0,0,0-3.832.476c-.807.381-3.609,1.026-4,1.66-.885,1.442,1.012,2.626-.8,3.514-1.269.6-2.9,1.008-3.761,2.231.391.053.768.352,1.167.37a6.557,6.557,0,0,1-4.124.56c-.878-.109-.761-.169-1.068-1.128-.233-.694-1.378-.476-2-.536a13.571,13.571,0,0,1,1.2,3.645c.123.811-2.8,1.3-3.345,1.414-1.526.391-.183-2.587-2.538-.934-1.142.807-2.549.6-3.881.691a1.956,1.956,0,0,0,1.28,1.861c-.328.035-.649.268-.98.3a1.689,1.689,0,0,0,1.918.938c1.16-.063,1.509.412,2.457,1.153.219.162,1.562.222,2.1.483.487.211.028.934,1.206.656-.271.694-.1,2.979,1.17,3.37,2.193.684,1.78,1.431,1.808,3.765.018,2.467.419,8.485-2.668,9.14a9.93,9.93,0,0,1-4.329-.465c-1.59-.582-3.049.314-4.8-.25-2.245-.723-3.074-.592-5.386-.018-1.625.412-2.5-1.875-4.367-.194a4.372,4.372,0,0,1,.338.635c-.7.109-2.721.12-3.123,1.068-.437,1.036.275,2.679,1.354,1.822-.338,1.791-.7,3.775.046,5.524.793,1.872-.631,4.9-1.107,6.845-.472,2.013-1.34,2.436-.162,4.23.254.388.9-.465.966.229.056.645.1,1.287.155,1.921a12.611,12.611,0,0,1-.437,3.423c1.385-1.047,2.52.282,4.064-.6,1.935-1.11,2.665,1.48,4.191.754-1.544,1.107.694,3.9,1.953,3.483,1.389-.444,2.422-2.6,4.184-2.527a42.611,42.611,0,0,0,5.925,0c.624-.06,1.354-1.829,1.71-2.386.384-.631,1.974-.691,2.651-.864-.567-1.167,1.315-2.707,2.013-3.684,1.163-1.54-1.248-2.418-.691-3.352,1.861-3.2,2.813-5.686,5.908-7.307,1.05-.532,3.634-1.23,4.357-2.214.723-1.026-.419-3.944-.035-4.29.73-.673,2.245-2.739,3.222-2.436,1.911.624,3.807,1.269,5.71,1.882.73.243,6.493-3.994,7.068-4.7.8-1,2.171-.564,3.278.028,2.129,1.107,2.129,1.269,2.721,3.8.624,2.7,3.352,3.684,5.361,5.636,1.124,1.117,2.009,2.675,3.574,2.453.871-.106,3.046,1.523,2.873,2.52a1.163,1.163,0,0,1,1.808,1.174c-.155.938,1.315.98,1.91,1.05.5.067,2.217,4.607,1.516,4.96-1.026.543-.187,1.209-1.124,1.844-.913.613-2.739.635-3.789.874-.917.211-4.868-.141-5.27-.613-2.859,3.169,4.438,2.908,5.094,5.094.349,1.2,3.388.705,2.64-.786a3.123,3.123,0,0,1,1.061-4.195c-.074,2.425,2.922-.19,2.728-1.681-.137-1.047,3.6-1.53,1.378-3.261-.783-.606-1.484-.525-1.241-1.632a3.414,3.414,0,0,1,1.343-2.355c.9-.857,3.105,2.175,3.881,2.577,1.946-2.6-5.707-5.777-7.223-7.025,1.671-1.35-.2-1.29-1.269-1.35-1.646-.081-2.312-1-3.62-2.122-1.075-.955-.948-2.767-1.77-3.927-.8-1.1-2.577-1.932-3.652-2.739-1.3-.994.134-2.718-.264-3.451-1.153-2.094-.081-2.256,1.773-2.778,1.851-.493,1.512-.916,1.826.786.317,1.727,1.28,2.936,2.069.522,1.773,1.382,1.967,1.981,2.651,4.279.257.793,1.942,3.017,2.682,3.13,2.88.381,5.573,2.957,7.9,4.808,1.77,1.41,2.545,1.41,2.337,3.765-.24,2.549-.924,3.715.955,5.266,1.065.867,1.65,2.919,2.46,4.128,1.435,2.154,1.435,2.436,3.807,2.446-2.556,2.073-1.879,2.372-.9,5.682.931-.761,1.47-1.086,1.974.011.546,1.28,1.505,1.068,2.756,1.311-.441-1.357-1-1.865.109-2.718,1.04-.828.913-1.741-.55-2.023,1.181-1.47,1.956-.412,3.077.451.412-2.725-1.65-3.18-3.525-4.5,1.435-1.47,1.382-1.269.367-3.081-.656-1.177-1.925-2.386-.783-3.662,1.058.744,1.918,1.66,3.137.645.338-.264-.518-1.41.1-1.643.649-.254,1.526-.825,2.221-.645,1.385.384,2.273,0,3.832.6,1,.391,2,.4,2.862.765-1.107.673-2.03.987-1.865,2.6,1.487-1.389,2.968-2.778,4.466-4.156.994-.955,3.772.987,4.272-.543.166-.525-2.873-1.932-3.451-3.06-.9-1.752-1.343-3.955.55-5.192,1.925-1.258,1.808-3.01,2.3-5.386.155-.765,1.854-.694,2.277-1.3.409-.652.374-2.383.5-3.19.2-1.336,2.714-3.268,3.581-4.248.775-.885,4.092.624,5.4-.028-.638,1.357-2.161.716-3.366.635.582.412,1.533,1.47,2.217,1.428a8.23,8.23,0,0,1,2.94.032c2.95,1-1.4,2.584-2.517,3.18,2.281,1.086,3.55.744,2.566,3.493,1.643,1.318,4.544-1.308,6.056-2.115,1.421-.761,2.929.976,4.223-1.368-1.836,0-3.606.694-4.737-.663-.9-1.068-1.918-3.867.31-3.585-.137.275-.264.553-.391.835a8.267,8.267,0,0,1,4.7-2.478v.656c1.378-1.819,3.5-1.872,5.442-2.193.539-.092,2.439-.673,2.037.634-.349,1.1-2.686-.226-2.119,1.579-.786.021-1.583.049-2.365.067.476,1.04,1.66,1.706,2.538,2.429-1.844-.042-3.458.733-2.739,3.25-.786-.152-1.562-.314-2.355-.472,0,.011-.589.8-.68.966.825.613,1.618,1.287,2.467,1.861a21.064,21.064,0,0,0,2.136,1.28c2.1.261,3.391,2.154,4.953,3.641,1.47,1.4,3.158,1.692,4.53,3.232.959,1.089,1.826,3.786.282,4.752-1.844,1.177-3.37,1.985-5.527,1.731-1.918-.24-3.113.9-5.009.141-1.128-.472-4.632-1-5.108-1.66-1.287-1.812-.814-.109-2.083-.744-.811-.395-1.562-1.068-1.135-1.822-1.787.624-3.5.314-5.376.162-1.424-.1-3.123,1.124-4.293,1.889-1.836,1.227-1.963,1.875-4.272,1.54-1.251-.173-4.018-.733-4.487.564.758.4,1.519.775,2.27,1.156-2.439,1.371-3.846,1.4-6.606,1.491-1.442.042-4.875.765-4.533,3.412.8-.1,1.6-.183,2.386-.282-2.393,2.675,1.442,9.108,3.662,10.388,1.195.7,3.645,2.749,5.122,2.475,1.537-.282,1.526-.2,2.044-1.77.458-1.318,1.445-.613,2.626-.405,1.77.314,2.608,2.408,4.554,2.337.843-.049,2.348.212,3.116-.152.811-.391,1.523-2.2,2.39-2.365.652-.137,1.509,1.188,2.129.666.494-.416,1.378-1.5,1.992-.818.539.6-1.773,3.934-.712,5.485,1.664,2.446-2.594,9.916-3.444,12.334-1.4,3.863-6.137,4.346-9.175,2.859-2.552-1.241-2.806-.85-5.39.423-2.365,1.146-2.679,1.146-5.15.419q-3.373-.994-6.733-1.985c-.5-.155-1.59,1.149-1.889.557-.575-1.139-.631-1.681-1.755-1.914-1.406-.3-2.8-.571-4.209-.864-.867-.169-.264-1.558-.931-1.741-3.014-.807-4.5-.342-7.519.515-.62.169-1.332,2.111-1.678,2.714-.412.747.9,1.974.5,2.788-1.752,3.433-3.18,2.957-5.89,1.047-1.918-1.357-3.881-1.015-5.954-1.9-2.376-1.022-1.7-3.673-4.1-4.3-3.1-.818-6.211-1.643-9.309-2.467-1.815-.476-3.578-2.848-5.02-4.135.892-.976,3.6-2.922,2.894-4.2-1.5-2.8-1.223-2.908.1-5.837-1.8-.758-3.419-2.143-5.153-1.089-2.147,1.287-3.842.867-6.31.726a12.664,12.664,0,0,0-2.549-.141c-.913.169-1.8,1.248-2.728,1.287a8.9,8.9,0,0,1-2.767-.913c-.952-.275-2.485.261-3.476.37a41.585,41.585,0,0,0-11.248,3.493,60.281,60.281,0,0,0-5.379,3.18c-.391.229-2.055-1-2.474-1.241-.776-.4-2.64.416-3.44.589-1.822.391-3.444-2.651-4.033-2.485-2.245.642-2.644,3.754-3.543,5.985-1.28,3.211-7.832,3.818-8.337,7.106-.419,2.788-.849,5.587-1.269,8.365-.338,2.245-1.16,2.263-2.975,3.423-3.507,2.235-5.968,3.313-8.023,7.025-2.929,5.284-5.834,10.568-8.756,15.831-.5.9-1.791,2.439-1.935,3.493-.219,1.741,1.058,4.773,1.431,6.465.578,2.524,1.142,5.02,1.7,7.554.338,1.544-1.241,4.11-1.752,5.509-.293.8-1.9,3.754-1.456,4.547q1.47,2.538,2.915,5.076c3.035,5.273,6.063,10.529,9.091,15.823,1.872,3.239,3.349,4.265,6.363,6.43q3.564,2.554,7.142,5.143c.948.694,2.281,2.295,3.462,1.872,2.478-.874,4.956-1.762,7.441-2.626,1.949-.684,3.236-.074,5.27.462,1.956.518,2.739.987,4.512.071,2.266-1.156,4.54-2.312,6.8-3.462,1.206-.613,10.786-2.126,11.46-1.3q2.358,2.9,4.713,5.788c1.1,1.357,4.2.37,5.742.3,2.661-.166,2.57.025,4.276,2.393,1.491,2.044,1.361,2.193,1.054,4.769-.356,3-.716,6-1.054,9-.183,1.477-.814,3.017.074,4.188,1.646,2.193,3.261,4.389,4.914,6.592.849,1.139,2.781,2.866,3.134,4.329,1.121,4.822,2.238,9.62,3.37,14.442,1.04,4.452,2.52,7.871.092,12.168-2.5,4.459-2.623,9.331-3.387,14.505-.159,1.075-.86,3.021-.353,4.064,1.142,2.348,2.312,4.7,3.483,7.068,1.78,3.6,3.818,6.8,4.431,10.85.465,3.021.92,6.021,1.385,9.052.166,1.093.148,4.752.934,5.52,1.149,1.142,3.095,2.358,3.726,3.93,1.05,2.637,2.118,5.28,3.179,7.921.472,1.206,2.016,3.641,1.868,4.991-.374,3.553-.455,3.514,2.013,5.735.726.687,2.757,3.331,3.768,3.134,2.083-.444,4.195-.885,6.274-1.318q6.81-1.422,13.617-2.862c1.251-.25,3.134-2.665,4.11-3.511a64.775,64.775,0,0,0,5.235-4.515c2.947-3.2,5.305-7.483,7.854-11.093.793-1.142.529-4.984.656-6.384.254-2.647-.219-3.634,1.939-4.66,1.3-.624,5.139-1.572,5.925-2.838.913-1.421.61-5.467.8-7.237.162-1.48-1.918-4.628-2.5-5.992-.857-2.034.779-2.774,2.129-4.336,1.533-1.794,3.06-3.564,4.579-5.344,1.184-1.371,4.329-2.1,5.88-2.848,2.8-1.35,5.591-5.386,5.432-8.858-.219-4.688.716-10.48-2.037-14.213-1.777-2.4-1.953-2.637-1.777-5.714.208-3.416.19-3.927-1.646-6.676-1.057-1.59,5.5-10.547,6.528-12.281,4.6-7.9,11.766-13.85,17.9-20.307,2.333-2.439,3.68-5.739,5.326-8.781,1.911-3.553,4.861-7.392,5.781-11.453.236-1.047,2.016-5.915,1.537-6.764-.79-1.368-3.493-.219-4.434.021-5.072,1.347-10.145,2.718-15.221,4.078-1.491.377-3.5-3.444-5.361-4.011,2.756-2.654-.811-4.907-2.577-6.951-1.047-1.237-2.118-2.475-3.169-3.7-.684-.807-3.433-.642-3.782-1.622-1.05-2.816-1.759-6.662-3.359-9.147-.807-1.269-2.418-2.348-3.486-3.37-.86-.828-.758-3.01-.924-4.159-.31-1.974-.62-3.916-.913-5.887-.183-1.128-1.981-2.408-2.7-3.169-1.681-1.822-1.28-4.42-2.411-6.74-1.9-3.874-3.807-7.748-5.689-11.622-.941-1.893-3.846-5.376-2.2-7.459a28.2,28.2,0,0,0,5.058,7.681q1.015-3.067,2.016-6.133c-.229,1.724-.476,3.437-.691,5.136,1.826-.472,2.408,1.914,3.187,3.278,1.551,2.8,3.095,5.559,4.639,8.336.73,1.3,2.1,1.882,2.693,3.063.969,1.97,2.4,3.983,2.778,6.207.264,1.47.247,5.679,1.632,6.2,2.4.9,2.623,1.332,4,3.659,2.344,3.923,4.537,6.923,5.393,11.481q.809,4.383,1.636,8.777c.539,2.88.779,2.267,3.574,2.267,1.787,0,2.126-1.882,3.768-2.3,2.21-.6,4.431-1.322,6.676-1.755,1.079-.2,1.872-.07,2.5-1.068.494-.761.62-1.167,1.4-1.438q3.892-1.417,7.79-2.8c1.452-.525,1.234-2.637,2.806-3.342,1.131-.494,2.281-1,3.433-1.505.768-.328,1.939.624,2.658.275.9-.434.867-3.06,1.8-3.493,1.555-.733,3.113-1.491,4.7-2.242,1.523-.737,2.2-.546,2.2-2.369a10.183,10.183,0,0,1,1.315-4.931c.063.494.434.948.5,1.438.976-1.153,4.174-3.793,4.258-5.333.109-1.54.726-2.594-.779-2.848-.86-.141-1.537-2.284-1.963-3.06-.568-1.075-1.734-.694-2.721-1.128a21.866,21.866,0,0,1-3.18-2.186c-1.727-1.174-1.216-4.621-1.378-6.722-1.791,2.044-3.825,5.534-6.063,6.916-2.256,1.378-6.356.955-8.805,1.107-.092-2.919.2-5.414-1.206-7.913-.275,1.671-.529,3.342-.814,5.016-1.935-3.7-3.75-7.48-5.9-11.054-.61-1-3.451-4.448-2.647-5.425,2.365-2.778,2.348-2.919,5.77-2.425,1.974.3,2.326,2.735,3.208,4.611,1.294,2.831,1.579,3.127,4.244,4.41,1.481.694,2.513,2.686,4.128,2.947,2.63.423,4.138.775,6.613-.141,2.961-1.086,2.594-.229,4.1,2.749.846,1.66,2.725,1.488,4.364,1.861,3.726.846,7.572,2.344,11.379,1.9,1.71-.211,11.988-2.485,12.655-1.029.62,1.318,1.428,4.512,2.651,5.213,1.8,1.029,4,2.929,5.964,3.405a9.2,9.2,0,0,0,2.429-.211c-.229,1.882-3.088,1.7-4.445,2,1.333,1.431,3.525,5.072,5.421,5.143,1.7.07,1.826.261,2.841-1.156,1.026-1.4,2.034-2.809,3.06-4.209q.233,7.249.448,14.516a29.494,29.494,0,0,0,.166,5.09c.465,2.133,1.925,4.413,2.8,6.394,3.342,7.575,6.6,15.08,10.448,22.362,1.389-.9,2.778-1.833,4.163-2.718,1.287-.853,1-2.506,1.188-4.1,1.516,1.618,2.348,1.953,2.245,4.23a46.891,46.891,0,0,0,.211,6.782c.476,5.256,7.085,1.854,5.414-2.034a20.715,20.715,0,0,0-3.077-5.777c-1.717-2.016-2.044-3.162-2.728-5.876-.448-1.692.885-4.329,1.332-5.982.483-1.77-.056-4.5-.1-6.331-.028-2.171-.705-3.521,1.114-4.406,1.4-.7,3.751-1.269,4.893-2.45q5.108-5.266,10.219-10.515c1.206-1.237,2.411-2.478,3.6-3.7.441-.465-.275-2.126.13-2.6.233-.293,1.78-.25,2.1-.293,2.45-.335,4.9-.677,7.335-1.019,1.389-.19,3.049-1.988,4.216-2.806,1.227,2.816,2,6.038,4.332,7.9,2.654,2.122,3.423,4.995,4.829,8.262.395.909-.437,3.514-.564,4.508-.331,2.316-.5,2.115,1.614,2.608,2.009.465,1.882.5,3.225-1.135q1.57-1.951,3.151-3.867c1.586,5.02,3.257,9.51,3.606,14.815.183,2.647.783,5.7.539,8.354-.145,1.452-1.389,6.613-.5,7.582,1.974,2.1,3.937,4.184,5.911,6.3,1.332,1.413,1.907,5.749,2.527,7.642.9,2.757,1.033,3.7,3.141,5.365,2.288,1.773,3.962,3.532,6.726,4a44.985,44.985,0,0,1-2.231-5.576c-.448-1.974.321-4.621-.4-6.472-.493-1.29-2.485-3.2-3.543-4.025-1.216-.931-4.3-2.383-4.776-3.966-.278-.948-1.287-6.179-2.1-6.14-1.579.092-1.579.37-1.734-1.35a6.439,6.439,0,0,1-.021-2.707c.744-1.985,1.791-3.966,1.956-6.091.271-3.553-.331-3.99,2.94-4.138-.1.807-.212,1.632-.31,2.45,3.363.141,5.27,1.639,7.744,4.286,1.371,1.488,2.76,2.968,4.128,4.47,1.033,1.086-.948,3.271.465,4.741a152.04,152.04,0,0,0,12.274-10.4c1.417-1.318.36-5.806.275-7.709-.13-3.109-1.184-3.923-3.077-6.362-1.5-1.953-3.123-3.814-4.431-5.918-.909-1.47-1.833-2.926-2.749-4.4-.324-.532.9-3.176,1.079-3.8.631-2.02,4.329-3.853,5.862-5.079,1.8-1.452,4.716-.5,6.338.761-.525.113-.983.536-1.516.656.211.543.687,2.675,1.124,2.9,1.607.846,1.59-1.036,1.406-1.942-.271-1.406-.546-1.417.642-1.84,1.431-.525,2.876-1.057,4.318-1.572,4.678-1.7,9.26-3.624,13.874-5.545,4.283-1.791,6.556-5.989,9.542-9.764,2.785-3.521,4.65-8.626,6.821-12.651-1.752-.525-3.514-1.047-5.266-1.551,1.421-1.026,2.848-2.023,4.244-3.021-1.907-1.417-3.835-2.816-5.756-4.233q2.744.492,5.446,1c-1.1-2.436-2.21-4.864-3.335-7.307-.885-1.914-2.728-2.979-4.237-4.276q5.272-4.478,10.522-8.922c-3.2-.835-5.569-2.122-8.594-.624-2.111,1.057-1.946,1.339-3.278-.765a30.214,30.214,0,0,0-3.289-3.955c-.878-.976,2.256-2.083,2.566-2.2a11.451,11.451,0,0,0,4.145-2.616,17.009,17.009,0,0,1,3.5-2.527c1.992-.955,2.045-.553,3.835.867-1.681,1.77-4.4,3.9-3.247,6.8,1.456-.878,2.908-1.755,4.36-2.619,1.022-.617,3.169-2.587,4.353-2.626a13.781,13.781,0,0,1,3.6,2.245c-.356,1.146-1.822,3.966-1.579,5.111.476,2.235,2.771,1.269,4.2,1.117,1.533-.152,2.1,1.6,1.033,2.859-1.7,2,.31,1.851,0,4.078-.264,1.918-.522,3.842-.8,5.763,2.587.081,3.892.152,6.176-1.047,2.778-1.466,2.372-2.224,2.831-5.626.7-5.062-2.33-8.3-5.753-11.273,3.095-3.01,6.465-5.294,7.917-9.6.913-2.76.941-3.391,3.232-4.741.465-.278,2.164-1.688,2.693-1.59.677.141,1.336,2.256,2.059,2.083,1.449-.342,3.772-.331,4.9-1.449,2.045-2.023,4.089-4.057,6.126-6.07,3.014-2.968,4.953-6.511,7.261-10.173,2.474-3.941,4.1-6.426,5.132-10.984,1.1-4.822,2.193-9.623,3.049-14.495.367-2.048-7.008-8.093-8.319-5.517-1.516,3.021-1.763,2.531-4.875,2.274-.493-.049-1.026-2.3-1.195-2.774-.589-1.54-.733-1.283-2.26-1.435-1.188-.106-2.119.028-2.683-1.385,4.135-2.975,8.136-5.658,11.713-9.359,3.849-4.008,7.818-7.751,11.858-11.52,1.167-1.1,5.5-.405,7-.476a32.56,32.56,0,0,1,6.955.345c.906.148,1.939.617,2.771.123.656-.388,2.457-1.988,3.169-1.833,2.6.508,5.2,1.015,7.8,1.544-.969.7-1.949,1.4-2.915,2.115,2.721-.324,5.46-.666,8.2-.987.539-.07,3.19-.257,3.416-.684.6-1.065-1.35-2-2.125-2.682a63.9,63.9,0,0,1,7.9-8.079c1.858-1.509,2.439-1.378,4.8-1.322,2.312.046,3.144-.4,5.206-1.632-.581,3.017-.856,4.107.194,6.905,2.182-1.8,5.442-3.585,6.993-6.074.768-1.22,1.519-3.412,2.915-3.581a11.908,11.908,0,0,1,4.766.412c-.483.1-3.06.331-3.165.768-.448,1.872-.906,3.744-1.354,5.622-.6,2.5-3.141,3.261-5.023,4.671-2.732,2.041-4.8,3.356-6.539,6.38-1.865,3.222-3.736,3.708-6.969,5.28-11.252,5.5-4.448,23.4-2.439,32.775,1.607-2,4.97-4.755,5.39-7.406.419-2.742.546-2.439,3-3.081,1.942-.508,1.378-2.249,1.533-4.332.144-1.766,1.459-1.6,2.94-2.1.666-.229,3.3-1.262,3.021-1.918-1.632-4,1.089-5.34,4.149-6.676-1.815-2.464-1.664-2.573-.878-5.626.328-1.28-3.342-1.727-4.382-2.066,1.953-3.137,3.888-6.292,5.851-9.426.867-1.4,2.21-.61,3.663-.4,1.132.152,3.088-1.364,4.128-1.879q.058,1.613.1,3.243c2.08-3.035,2.274-3.243,5.672-3.684,3.588-.476,3.744-.141,6.465,2.556,1.459-3.543,4.759-4.554,7.818-6.412q5.874-3.574,11.752-7.152c.948-.568,3.331.465,4.357.67.574.113,2.111.751,2.658.525.293-.113,1.487-1.7,1.332-1.9-1.481-2.129-2.5-3.187-2.658-5.827-.127-2.267-2.062-2.792-3.715-3.969,1.925-.522,9.042-1.17,9.151-3.416.063-1.424-.476-5.041.966-5.287,2.788-.458.613,3.366,1.9,3.476,2.129.152,4.265.3,6.394.451,1.953.148,1.681,2.009,2.175,3.994.335,1.357,2.8-.092,3.9.737a7.832,7.832,0,0,0,4.829,1.942c-.3-1.255-1.35-3.088-.127-3.666,1.664-.765,1.28-1.4,1.35-3.359ZM682.606,277.664c.878.814,2.125,1.357,1.8,2.767-.913.423-5.873-.12-5.781-.324-.476,1.019-1.012,2.076-.155,3.155.321.381,1.424-.063,1.755.289a6.06,6.06,0,0,1,.61,1.946,10.5,10.5,0,0,1-1.206-.1c1.269,2.288,2.714.818,2.09,4.018-.419,2.083.039,4.114.264,6.25-1.759.222-4.656,1.29-6.334.765-1.29-.395-2.612-.807-3.92-1.227-1.072-.324-1.131-1.329-2.467-1.653-1.54-.37-2-.049-2.154-1.748a7.523,7.523,0,0,1,.236-3.906,26,26,0,0,0,1.234-3.532c.476-1.963.832-1.766,2.612-2.309-2.154-1.043-2.566-1.763-3.863-3.983-.775-1.361-2.418-1.833-3.077-3.292a11.409,11.409,0,0,1-1.368-6.01,3.237,3.237,0,0,0-3.144-3.06c.606-.652,2.02-1.639,2.2-2.549.405-1.981.278-2.059,1.967-2.764.712-.324,3.44-.948,3.652-1.791.7-3.021.546-1.745,2.961-2.178.945-.169,2.51-1.7,3.423-1.336,1.23.483,2.651,1.671,3.6.522.885-1.047,1.977,1.54,2.256,2.066.656,1.206-.19,2.665-.578,3.944,2.464.776,3.127-1.16,4.057,1.78-1.872.233-2.295,1.2-3.38,2.749a3.438,3.438,0,0,1,2.09-3.19c-1.484-.7-4.216-.606-5.971-.9a2.812,2.812,0,0,0-2.386.976c-.839,1.248.141,1.428,1.142,2.372-1.512,1.117-1.907-.663-3.384-.3-1.526.363,1.925,1.713,1.925,1.791.162.966.138,3.574.712,4.307.74.906,3.024,1.378,4.057,1.851-1.177,2.6-.878,3.606.536,6.01.028-1.417.423-5.3,2.9-3.786.564.356.546,1.872,1.1,2.369ZM175.112,99.2c.828-.976,2.055-.7,3.158-.744a6.33,6.33,0,0,1,.959.825c-1.23.938-2.8.166-4.117-.081Zm109.77,263.131h0a10.637,10.637,0,0,0,3.426,1.812c.677.194,1.533-.959,2.8-.536a8.519,8.519,0,0,0-.719-1.107c-1.547-.525-4.258-2.044-5.51-.169ZM274.336,260.946h0c-.13.141-.275.282-.419.423l.289.2c.515-.624.751-.906.515-1.579-.109.148-.24.3-.342.462a1.258,1.258,0,0,0-1.914-.723c-1.022.43-1.417-.557-2.457.219.282.06.568.13.839.19.994.434,2.5,1.431,3.49.807Zm-6-2.376h0c-.631-.444-.744-.18-.913-.042.2.222.419.423.62.656.1-.211.18-.4.293-.613ZM269.771,260a3.473,3.473,0,0,1-1.537-.353c.2-.183.4-.356.6-.536.367.2.61.324.9.483a3.755,3.755,0,0,0,.039.405Zm82.65-21.731h0c.4-.874.818-1.738,1.206-2.6-2.489-1.019-5.182,2.372-6.105,4.586a22.466,22.466,0,0,1-5.594,8.238,6.056,6.056,0,0,0-.367,3.828c.62.976,2.785.694,3.652.592,2.852-.331,5.77-.289,8.414,1.139a1.884,1.884,0,0,0-1.473,2.052c2.5-.511,3.024-2.245,5.636-2.425-.356,1.932-.631,1.953,1.075,2.616,1.406.546,1.636.575,2.478-.691.941-1.41-.13-4.7-.476-6.225-.233-1-1.981-1.424-1.889-2,.236-1.685.007-1.727-1.079-3-.842-.969-4.374.321-5.407.61-.07-.659.1-2.052-.483-2.309-.458-.222-1.505-.4-1.516-1.008-.028-1.967.557-2.14,1.928-3.4ZM318.447,362.986h0c.7,1.752,3.722.345,4.427-.744a6.249,6.249,0,0,0-.483-.515c-1.364-.109-4.949-1.248-3.944,1.258Zm-24.914-6.172h0c1.23-.317,2.446-.7,3.669-1.075a6.316,6.316,0,0,0-2.894-1.731c-.867-.152-1.332-1.47-1.734-1.438a6.123,6.123,0,0,1-4.938-2.4,3.892,3.892,0,0,0-.222.455c-3.571-2.379-7.48-4.561-11.6-4.963a18.6,18.6,0,0,0-6.775.9c-1.935.483-2.457,2.365-4.026,3.342,3.095,1.632,6.637-5.344,9.708-2.245a2.045,2.045,0,0,1-1.583.314,2.145,2.145,0,0,0,2.238.814c.969-.3,1.057.455,2.09.483,1.692.06,3.282,1.269,5.087,1.519,1.692.233,1.734,2.214,3.588,3.081.486.222,2.312-.25,2.295,1.015,0,.416-1.551,1.583-1.847,1.893,2.288.412,4.6-.162,6.944.039ZM327.57,255.158h0c-1.459,2.707,1.068,3.151,2.894,4s2.309-.215,3.581-1.611c-1.882-.141-3.775-.293-5.654-.455-.275-.624-.546-1.276-.821-1.932Zm-1.142-11.946h0c1.861,1.5,6.137,5.083,8.5,3.187-2.217-2.5-5.527-3.275-8.5-3.187Zm87.93,202.773h0c.909,3.962.994,3.9-1.181,7.043q-3.987,5.8-8.009,11.565c-1.241,1.833-2.767,3.232-2.922,5.506-.412,5.679-.825,11.375-1.223,17.05-.264,3.765-4.174,7.628-6.112,10.621-.85,1.28-1.558,3.447-3.084,3.532-1.481.1-4.879-.423-6.119.434-3.747,2.577-7.491,5.164-11.234,7.723-.737.529-.723,6.126-.839,7.12-.127,1.181.063,3.225-.687,4.177q-4.653,6-9.32,11.992-4.267,5.5-8.541,10.987c-.659.825-9.616-3.042-11-3.469-.811,3.07,4.311,3.4,4.84,6.056.268,1.311,1.273,3.8,1.036,5.087-.229,1.174-1.939,2.855-2.577,3.814-1.882,2.756-4.4,2.7-7.434,3.518a13.134,13.134,0,0,1-7.29.13c.578,1.875,1.043,2.672.349,4.449-.409,1.121.1,2.922-.539,3.384-2.968,2.076-4.7,1.177-7.8-.374-.028,1.551-.441,3.638-.1,5.125.243,1.1,2.055,2.947,1.583,4.008-.952,2.041-1.886,4.064-2.823,6.109-.924,2.013-1.251,1.812-3.331,2.316-1.794.43-2.126,1.988-3.053,3.694-.575,1.075,1.632,3.12,2.274,4.043.832,1.17,3.56.152,2.993,2.055a8.8,8.8,0,0,1-2.08,3.994c-1.05,1.273-2.566,2.549-3.077,4.181-.768,2.457-1.4,2.566-3.518,3.8s.24,7.66.642,9.993c.162.857.127,2.9.811,3.454,1.583,1.378,3.169,2.725,4.741,4.075,2.757,2.358,4.639,1.946,8.181,2.02-3.208,1.442-6.43,2.922-9.644,4.374-2.573,1.177-3.067.5-5.7-.775-3.8-1.822-7.582-3.673-11.379-5.485-1.956-.948-2.277-3.134-3.172-5.249-2.126-5.019-5.594-9.944-4.967-15.538q1.412-12.5,2.834-24.981c.9-8,1.266-16.366,2.764-24.29q2.839-14.958,5.672-29.941,1.724-9.121,3.451-18.189c.486-2.594,1.417-5.474,1.537-8.111.081-2.224-.585-4.773-.867-6.976-.176-1.449.007-4.942-.758-6.179-.825-1.3-3.518-2.446-4.713-3.285-2.348-1.618-4.678-3.25-7.015-4.882-2.369-1.657-3.035-3.3-4.484-6.014-2.869-5.39-5.763-10.772-8.64-16.169-2.365-4.448-4.741-8.876-7.117-13.324-1.459-2.735,1.015-7.79,1.692-10.638.338-1.41.5-4.572,1.389-5.679,1.368-1.752,2.7-3.49,4.061-5.224,3.024-3.863,5.619-6.116,4.833-11.572-.183-1.237-.931-1.9-.018-2.82.127-.116-.321-1.882-.166-2.513.377-1.664-3.3-3.187-2.912-4.79.5-1.985.391-1.755-1.241-2.679-1.17-.694-1.163-.606-2.376.046a12.717,12.717,0,0,0-2.393,1.96c-.419.388.779,1.791,1.043,2.26-2.33,1-2.231,1.28-3.3-1.269-.472,1.392-2.813-.966-4.107-1.216-.68-.13-1.139.645-1.555.342-.7-.543-1.414-1.1-2.129-1.632-1.463-1.1-4.346-2.464-5.351-4.068-.857-1.343-.427-3.405-1.516-4.667-2.767-3.19-4.448-6.017-8.3-7.106-2.993-.825-7.973-1.047-10.328-3.359-2.066-2.044-4.156-4.089-6.218-6.141-1.357-1.332-3.271.071-4.9.585-3.68,1.135-7.445-1.544-10.952-2.961-2.831-1.149-5.672-2.284-8.5-3.433-.871-.353-2.566-.634-3.282-1.347q-2.765-2.808-5.524-5.626c-1.71-1.724-.694-2.76.018-5.175.455-1.572-2.475-4.663-3.289-5.911a17.616,17.616,0,0,0-2.922-3.532c-1.985-1.851-3.973-3.673-5.961-5.534-.451-.423.116-1.7.219-2.277.127-.6-.969-1.569-1.3-1.992a25.3,25.3,0,0,0-4.357-4.822c-1.5-1.156-3.077-1.861-3.652-3.793-.321-1.079-1.153-6.26-2.055-6.676-1.847-.832-3.68-1.689-5.517-2.524.613,2.083,1.033,6.14,2.344,7.73,2,2.386,3.719,4.258,4.907,7.2a6.806,6.806,0,0,0,2.457,3.324c.994.867,1.269,2.242,1.745,3.543a12.651,12.651,0,0,1,1.188,4.054c.106,2.259,1.075.649,1.759,1.153.74.561,2.242,1.932,2.083,3.088-.212,1.537-1.555,1.893-2.2.726-1.329-2.45-3.677-3.9-5.816-5.446-.6-.444-.381-3.243-.437-4.029-.092-1.216-1.854-2.034-2.686-2.728-.839-.673-1.607-.352-2.492-1.146-1.022-.885-2.048-1.8-3.056-2.718,1.213-.141,4.078-.395,2.482-2.746-1.4-2.076-2.02-3.1-4.145-4.138-1.389-.684-1.748-3.01-2.323-4.491q-1.475-3.77-2.929-7.54c-1.061-2.746-4.639-5.139-7.251-5.866-2.147-.585-2.876-.4-3.835-2.5-1.05-2.284-2.1-4.572-3.151-6.845-1.533-3.37-4.593-5.435-5.672-9.119-1.4-4.78-1.3-7.878-1.061-12.944.194-4.219.419-8.414.642-12.623.208-4.075-.751-6.634-2.037-10.536a54.616,54.616,0,0,1,6.888,2.108c.088-3.43.236-3.842-1.974-6.229a30.9,30.9,0,0,0-5.189-4.413c-1.727-1.223-3.571-1.223-5.443-2.037-3.06-1.343-3.518-1.449-4.893-4.685-1.572-3.74-7.135-5.693-6.768-9.859.328-3.807.053-3.511-3-5.435-.43-.275-2.267,3.772-3.553,1.794-.959-1.488-2.513-5.273-4.008-5.989-2.14-1.022-2.587-1.526-3.937-3.592-1.332-1.978-2.566-4.723-4.219-6.377-1.368-1.389-3.405-2.348-4.967-3.43a46.416,46.416,0,0,0-11.47-5.591c-1.688-.631-3.743.807-5.453.409-1.78-.416-3.892-2.383-5.471-3.356-2.193-1.35-2.806-1.837-5.259-1.6-2.182.212-3.271.8-2.439,3.564.684,2.334-8.238,4.752-10.2,5.411a1.365,1.365,0,0,1,1.026-2.009c-1.509-.462-.37-4.822.589-5.344a9.518,9.518,0,0,1,5.827-1.234c-.571-.511-1.149-1.043-1.724-1.565.666-.469,1.315-.973,1.974-1.449-3.955.761-5.6,1.611-8.925,4.135-2.876,2.168-4.025,4.607-5.89,7.9.913.229,1.826.448,2.742.673-2.742,3.652-5.478,5.728-9.08,8.375-1.791,1.308-7.469,2.749-7.691,5.425-.208,2.411-7.586,3.775-9.687,4.382a15.5,15.5,0,0,1-2.623.4c-1.1.123-.546.7-1.368,1.251a5.49,5.49,0,0,1-4.949,1.057c1.759-1.71,3.588-2.15,5.584-3.395,1.519-.938,5.957-5.2,7.311-2.852.948-1.7,4.494-5.626,6.419-4.272-.649-1.826,2.668-3,3.038-5.03.314-1.692.338-2.1,1.452-3.225.733-.73,1.445-1.107.7-2.228-2.4,1.322-4.995,3.465-7.459,1.653-.853-.617-2.478-2.464-3.49-2.027-1.251.553-2.513,1.1-3.754,1.65q-.672-3.818-1.315-7.639c-.62.352-3.888,2.735-4.35,2.379-1.22-1-3.578-2.2-4.4-3.606-.9-1.516-.994-4.48-1.382-6.236-.324-1.473.85-2.612,1.583-3.835,1.421-2.429,1.248-3.063,3.853-2.816,2.164.215,2.485-1.537,4.385-2.316,1.918-.79,3.433.719,4.357-1.629.73-1.861-.356-2.2-1.636-3.62.582-.338,1.16-.656,1.727-.99-.818-2.453-2.767-.268-4.166.529-1.78,1.029-2.055-.194-3.835.028-3.543.465-7.536,1.191-9.489-2.682.448-.127.857-.589,1.315-.677-1.752-.592-4.057-.857-5.259-2.559,2.556-1.347,4.357-2.559,7.177-2.559-.19-.254-.4-.522-.6-.779a11.287,11.287,0,0,1,5.862-1.671c-.109,2.827,2.048,2.4,4.219,2.972,1.9.483,2.51-.363,4.166-1.526-.768-.342-1.544-.67-2.309-1,.289-.1.592-.229.9-.349-.842-.677-1.114-1.456-.2-2.108a23.3,23.3,0,0,1-5.679-1.139c-1.572-.529-1.565-3.038-3.109-3.758-1.04-.5-5.531-1.727-5.971-2.792-.208-.476.786-2.612.952-3.158.116-.4,1.121-.264,1.452-.282,1.671-.116,4.237.416,5.323-1.139a30.377,30.377,0,0,1,3.916-5.069,19.716,19.716,0,0,1,9.775-4.519c2.245-.388,4.092-.388,5.915-1.837,2.52-2.02,2.369-2.066,5.146-.6,2.453,1.308,9.44-.483,10.518,2.527.786,2.221,8.062,2.02,10.476,2.334,3.631.465,7.279.888,10.892,1.547,5.344.938,10.684,1.893,16.035,2.827,3.518.627,6.835,2.665,10.127,4.142.578.254,4.315-4.286,4.917-4.875.987-1.026,2.912,1.977,4.061,1.463,1.9-.828,10.413-6.024,11.664-4-3.1,1.646-6.2,3.271-9.306,4.914,2.4,1.66,10.3-5.256,10.987-2.312.934-1.086,1.844-2.157,2.774-3.254.747-.878-1.114-1.128.257-2.235,2.365,2.76,4.741,5.309,7.339,7.8.835-2.651,1.153-3.55,3.1-5.277,1.177,1.241-.885,1.787.723,2.718.6.349-.374,1.625-.649,2.2,1.022-.271,2.95-.3,3.782-.973.31-.257-.384-1.509.2-1.579.564-.1,1.156-.176,1.745-.261,2.073-.289,4.812,1.681,6.722,2.51,3.944,1.7,8.446,2.326,12.573,3.419-.092-.3-.194-.589-.275-.9,2.64.1,4.011,1.343,6.3,2.88,1.7,1.174-3.49,2.968-3.874,3.137,1.745.546,3.6,1.484,5.411,1.343,3.007-.24,6-.472,9-.716,1.4-.1,3.835-.522,4.8.962,1.378,2.044,2.749,4.082,4.117,6.137-.212-.888-.42-1.787-.62-2.679-.137-.543.419-1.047.349-1.554-.328-2.136-1.251-1.6-.1-3.662.807-1.4,6.927-1.569,5.552-3.7-2.965,1.206-5.146,2.168-8.287,2.09.712-2.707,1.808-2.422,4.244-3.246,2.541-.828,2.88-1.082,5.206.243.666.37,1.079,1.921,1.435,2.6.465.931,1.16.8,2.1,1.022a37.8,37.8,0,0,1,5.534,1.724c1.551.585,10.088,1.565,10.444.374.733-2.45.842-3.613,3.536-3.6,1.664,0,3.613.909,5.263,1.332-.233.811-1.294,3.261-1.026,4,.268.761,2.637,1.784,3.306,2.231-.867-2.778-1.882-5.2,1.5-5.735,1.406-.229,2.221-1.495,3.25-2.513.733-.709.219-1.66.046-2.672-.885.423-1.762.839-2.626,1.258-.324-2.739,1.65-3.162,3.567-3.335-.092-2.143-2.108-.624-3.416-1.117-1.029-.405-4.6-1.082-5.048-2.193-.962-2.319-.9-3.814-.867-6.387.042-2.475,1.184-2.806,3.056-2.048.331-1.188-.476-1.614-1.477-1.491,1.844-1.181,2.1-1.029,2.037-3.342a8.608,8.608,0,0,0-1.036-4.642c-.691-1.336-.19-3.278-.1-4.787.074-1.184,2.02-.543,2.929-.529-3.342-3.684,2.541-2.644,4.826-2.626a25.439,25.439,0,0,1,8.456,1.213c-1.28,1.861-3.024,5.894-4.85,7-1.625.969-5.619.166-7.342.134,5.506.818-.828,4.4-.483,6.172,2.806-.5,4.392,1.967,4.9,4.614.328,1.713,3.084,3.765,4.2,5.118-1.382.92-2.742,1.84-4.1,2.757,1.357.522,2.446,1.431,3.7.557,1.3-.9,2.372.2,3.708.853-.652.444-1.308.9-1.953,1.339,1.3,1.117,2.006,1.153,1.569,2.929-.43,1.731-.716,2.143.85,3.151a6.777,6.777,0,0,0,1.625-3.7c.053-.634.6-3.225,1.745-2.527.726.458,3.243,1.413,3.423,2.312.331,1.509,1.287,3.254-.585,3.856.011-.367-.2-.761-.19-1.121-3.818,2.126,4.7,9.768,5.069,5.626.1-1.167-.053-1.861.779-2.591.4-.377,1.685-1.146,1.685-1.773,0-3.088.049-2.929,2.644-4.082-1.043-1.629-2.013-2.418-1.625-4.343.388-1.977,1.459-1.452,3.165-1.16,1.124.19,4.2.071,4.984.983a5.768,5.768,0,0,0,4.047,2.443c-.885,1.614.532,2.654-.412,3.786-.6.709-2.626.441-3.5.522.779,1.681,1.308,3.19,2.594,4.378,1.382,1.294,2.02,2.319.511,4.233-.987,1.258-3.405,2.087-4.73,2.9-1.294.807-2.207-.909-3.261-1.893.532,1.2,1.054,2.4,1.59,3.6-.828-.427-1.643-.864-2.464-1.29.092.338.2.666.31,1-.85-.187-1.671-.4-2.513-.589-.557-.134-.109-1.586-.673-1.562-1.28.039-3.042-.483-3.691.987.775.472,1.562.927,2.344,1.378-.846,1.28-1.54,2.82-2.831,3.543-1.872,1.05-2.545.173-4.456-.85-2.993-1.558-5.626-1.428-8.957-1.572,2.291,1.16,4.6,2.323,6.9,3.486,1.681.842,4.477.55,6.31.8-.73,1.248-1.96,4.667-3.187,5.242-.709.342-1.678,1.072-2.457,1.029-.966-.1-1.9-.444-2.728.141-2.549,1.8-2.742,1.925-5.636,1.029-1.815-.546-3.659-.99-5.488-1.495,1.216.564,2.432,1.107,3.645,1.671-.257.233-.43.568-.712.79,1.925-.458,2.245-.427,3.99.536.913.518,2.337,1.868.8,2.584a7.053,7.053,0,0,1-4.195.68c-.582-.046-1.516,2.037-1.826,2.5-1.459,2.3-3.775,4.766-4.364,7.558-.656,3.151-1.3,6.32-1.981,9.482,1.262.293,4.036.317,4.984,1.184,1.05.955,1.671,4.656,2.193,6.052.916,2.556,1.491,1.629,3.948,1.082,1.287-.293,2.749.61,3.962,1.043a35.671,35.671,0,0,1,9.6,4.889c1.022.737,3.007,2.869,4.248,2.986,1.833.2,3.68.4,5.5.589.645.07,4.152.025,4.128.775-.1,2.549-.222,5.09-.321,7.635-.145,3.539,3.395,6.229,5.443,8.795,1.992,2.5,6.281-2.14,5.936-4.293-.367-2.256-.747-4.522-1.121-6.8-.2-1.2-1.784-2.8-2.45-3.828,2.228-1.456,6.539-3.067,8.093-5.291,1.406-2,1.759-7.445-.018-9.168a26.775,26.775,0,0,1-3.444-3.669c-1.406-1.978-1.865-1.812-.1-3.437,1.953-1.752,2.1-1.512,1.378-4.107-.384-1.4-1.269-3.084-.821-4.515.814-2.587.878-3.053.092-5.619-.493-1.614.522-2.157,2.175-2.372,3.021-.37,5.806,2.252,8.763.867,1.886-.878,2.376.109,4.114,1.347.821.6,3.18,1.625,3.451,2.728.419,1.657,1.361,2.943,3.2,2.668,1.491-.212,2.492.5,3.867,1.17-.8,1.347-1.262,1.724-1.008,3.246.247,1.424.694,2.785.12,4.184.4-.088.828.106,1.223,0-.73.913-2.813,2.393-1.688,3.419,1.935-5.763,8.876,6.817,10.31-.959.31.349.9.388,1.223.733.775-1.653,2.027-3.25,1.692-5.111-.243-1.3,1.65-3.867,2.957-3.574-.166.691-.321,1.382-.465,2.08,3,.145,5.012,6.3,6.447,8.781.8,1.378,3.222,4.135,3.324,5.71.053.857-1.463,2.069-1.29,2.894.085.388,1.583,1.269,1.854,1.505a11.15,11.15,0,0,1,2.467,1.974c.546.917-.345,1.907.878,1.978,2.309.134,3.278.173,5.2,1.47,1.315.909,3.92,2.15,1.061,2.587a31.569,31.569,0,0,0-4.759,1.389c.959.356,2.231-.342,3.261-.659-.705,1.28-2.968,1.392-4.244,1.784-1.244.391-.832,2.855-.176,1.985a3.231,3.231,0,0,1,1.854-1.184c.758-.275.465-.7.913-.948a8.8,8.8,0,0,1,3.7-1.036,1.9,1.9,0,0,1-1.357-.744c.9-.039,2.7.085,3.084,1.16.518,1.4-1.061,1.3-.194,2.386,1.036-1.918,2.277-.906,3.9-.377,1.3.434.293,2.908.035,3.655-.529,1.442,1.117,1.935.028,3.588a9.921,9.921,0,0,1-3.571,2.2c-1.251.328-2.485.056-3.909.515-1.4.462-2.009,1.332-3.06,2.5-2.175,2.386-3.962,2.735-7.17,2.408a56.187,56.187,0,0,0-9.461-.212c-2.848.173-5.8-.8-6.556,3.017-.211.994-2.968,1.287-3.726,1.826a24.593,24.593,0,0,0-3.359,3.6c-1.9,2.041-2.933,4.48-5.178,6.133,3.835-1.865,5.89-5.911,9.725-7.776,2.63-1.265,9.771-5.291,11.643-.582-.31-.169-.656-.222-.976-.377,1.935,1.315-.694,2.284-1.66,3.13-1.244,1.079-2.259-.811-3.691.18.585.159,1.981,1.7,2.055,1.678a4.374,4.374,0,0,1,2.63-.152,4.573,4.573,0,0,1-1.727,2.682c.437-.166.987.039,1.456-.053-.723,2.013,1.4,3.634,2.936,4-.173.134-.335.271-.511.384,2.221,1.079,4.4,1.992,6.327.585.067.36.13.7.2,1.054a3,3,0,0,0,1.318-.395c-1.325-1.71,1.34-4.163,2.245-5.562,1.745.634.747,2.164.356,3.532,1.258-.994,3.077.966,1.992,1.438-1.445.638-2.767,1.48-4.374,1.209.356.286.529.818.871,1.117-1.819.737-3.631,1.48-5.446,2.207a6.626,6.626,0,0,0-2.009.987c-.779.691-.987-.9-1.646-.367-1.23.987-2.337,2.912-3.669,4.181-.9.853-1.773-.367-2.319-.564-1.911-2.728,2.693-5.094,4.248-6.215,1.1-.8.564.145,1.075.6,1.033.885,1.657-.345,2.6-1.191-1.216-.049-2.757-.49-3.807.25a4.307,4.307,0,0,1,1-1.949c-1.424-.352-3.211,1.488-4.392,2.252-.758.5-.747-.613-1.632.423-.448.525-1.48.215-2.111.215.924,2.947-4.064,1.879-4.731,3.208-.2-.2-.4-.412-.6-.613-.768,1.583-1.5,1.752-2.975,2.305-.987.384-1.026,1.1-1.435,2.175-.6,1.551-3.433,6.764.448,6.348-.113-.24-.211-.5-.314-.733a4.521,4.521,0,0,1,.814.945c-1.153.818-2.52.113-3.733-.18-.606-.141-.4,1.65-1.3,1.71-2.848.222-4.131.374-6.585,2.013,1.752-.219,3.169-1.086,4.886-1.34-.19.141-.367.3-.557.437.483-.032.969.116,1.442.056a7.606,7.606,0,0,1-3.342,1.311c-1.086.081-3-.314-3.634.835,2.654.3-1.17,5.354-2.147,6.19.62-1.107-1.28-1.833-1.706-3.12.088,1.558,2.044,3.662,1.339,5.083-.712,1.47-2.009,3.18-2.39,4.639l-.285-.081a8.037,8.037,0,0,1,.913-2.95c-.694-.441-.356-1.84-1.745-1.456a13.094,13.094,0,0,1,.687-3.091c.088-.169.969-2.182.028-1.5-2.267,1.643-1.59,2.718-.969,5.5a5.939,5.939,0,0,0-2.175-1.124c.568.835,1.956,1.1,2.4,1.921.335.645-.476,2.485-.3,3.091.321,1.117,1.875.539,1.452,2.386-.317,1.488-1.251,1.347-2.545,1.77,1.121.011,3.077-.374,2.792,1.308-.1.694-2.446.726-3.067.835.338.194.61.532.959.726-.518.169-.776.511-1.417.5.55,1.364,1.361.134,2.284.677-.638.342-1.276.7-1.911,1.047-.5.25-1.191-.546-1.586-.324-.768.451-1.544,2.256-2.083,3.042-.395.575-1.762.321-2.485,1.227a8.916,8.916,0,0,1-2.111,2.408c-3.039,1.791-3.567,2.6-5.213,5.947-.765,1.583-.271,4.378.458,5.961a55.02,55.02,0,0,1,3.042,8.2c.448,1.53.846,5.474-.264,6.574-.832.842-1.544,1.96-2.524.582-.307-.434-2.1-2.044-2.133-2.185a19.661,19.661,0,0,0-1.343-3.282c-.529-1.188-1.131-1.882-.768-3.292-.219.183-.441.374-.642.557-.529-1.812,1.135-4.41-.673-5.658-1.59-1.1-2.457-3.271-4.339-2.665-1.012.328-2.08,1.075-3.021.451a13.261,13.261,0,0,0-2.894-1.882c-1.653-.455-4.431,1.748-4.914-1.057-.31,2.446-5.728.684-7.328,1.953,1.117.109,5.273.624,2.168,2.111.328.173,2.016.758,2.073,1.061a.905.905,0,0,1-1.142,1.107c.441-1.128-1.234-1.551-2.037-2.055.176.8-.173,1.068-.194,1.671-.754-1.569-1.424.071-2.446-.7-1.294-.976-1.861-1.893-3.356-1.368-.853.289-2.052-.5-2.852-.818-1.533-.575-3.955,1.17-5.428,1.794-2.408.987-8.171,5.263-8.2,8.728-.025,1.065,1.406,2.154,1.473,3.218a10.136,10.136,0,0,1-.733,2.6c-.529,1.893-1.361,3.839-1.35,5.827.025,5,.677,8.587,3.433,12.764,1.625,2.443,2.238,4.156,4.9,4.931.546.183,1.417,1.551,1.889,1.378,1.1-.43,2.189-.846,3.285-1.237a9.87,9.87,0,0,1,2.943-.673c.783-.064,1.406.962,1.808.786a6.311,6.311,0,0,0,1.389-.666c.254-.222-.384-.888,0-1.23a4.331,4.331,0,0,0,1.777-2.425c.624-2.111.441-4.59,2.679-5.474a16.841,16.841,0,0,1,4.942-.983c1.258.152,4.875-.6,3.733,2.133-.455,1.068-1.928,4.269-2.7,4.336.4.226.176.624,1.079.6-.345.293-.6.691-.948.934l.173.233c.162-.12.328-.233.5-.342a20.748,20.748,0,0,0-1.057,3.923,2.54,2.54,0,0,1-.642-2.284,7.606,7.606,0,0,0-.885,1.5c1.688.078-.247,3.32.321,4.526.508,1.093-1.315,3.1-2.048,3.786,2.393.835,4.713.194,7.353.6,1.022.137,1.762-.765,2.774-.6a14.282,14.282,0,0,1,3.708.532c2.238.98,3.673,2.549,3.271,5.136-.275,1.671-.529,3.321-.786,4.984-.155.973-.941,1.808-1.068,2.735-.557,4.523,4.9,11.868,9.006,10.194,2.538-1.033,3.832-2.073,6.493-1.265,2.573.765,3.571,2.171,5.478,4.276-.137-3.2,3.835-7.536,5.361-10.124.469-.8,3.426-1.28,4.219-1.572,2.147-.761,4.3-1.547,6.468-2.323,1.97-.719,5.541,1.008,7.487,1.459,5.115,1.195,10.2,2.365,15.316,3.564,2.764.642,5.559.684,7.7,2.725q5.97,5.753,11.946,11.474c2.52,2.408,8.016,2.467,11.213,3.254,3,.744,5.351,5.728,7.24,8.2q2.866,3.759,5.756,7.519c.455.617,1.487,2.616,2.2,2.873,4.1,1.487,8.2,2.957,12.309,4.445s8.213,2.957,12.313,4.449c3.395,1.241,6.923,4.981,9.944,7.149.557.06,4.364.106,4.466.529.409,1.844.85,3.666,1.273,5.5ZM282.609,271.1h0c0,1.276-4.163,2.295-5.4,2.245-1.837-.07-2.02,0-3.462,1.276-.931.825-1.562,1.752-2.876,1.107a2.287,2.287,0,0,1,1.773-1.717c-.469-.708-.56-.183-.807-1.121a23.393,23.393,0,0,0-2.538,3.9c.694.183,1.354.363,2.02.564-.148.19-.286.4-.448.617,2.749.261,3.909-1.089,6.264-1.956a21.572,21.572,0,0,0,5.925-3.461c.011-.663.109-1.015-.455-1.449Zm3.578-.878h0c2.111,2.023,6.606-1.872,4.315-2.8.638-.553,1.276-1.107,1.918-1.671-1.308.522-4.047,2.6-4.984,2.207-1.657-.74-3.765.257-5.481.631-3.638,4.741,2.746.219,4.233,1.629Zm-42.571-14.061c1.2-1.163,2.408-2.355,3.634-3.532,1.343-.6,2.7-1.195,4.043-1.794,1.114-.486.437-1.967,2.027-2.249a8.857,8.857,0,0,1-.409,1.072c.941-.4.775-1.544,1.688-2.034a3.043,3.043,0,0,1-.55,1.558c.962-.585,1.928-1.255.825-2.185a6.544,6.544,0,0,1,3.077,1c.818.36,1.819-1.05,2.619.194,1.509,2.33,1.491,3.634,4.487,3.116-.74,2.1.465,1.318.9,2.746.155.511-.61.864-.229,1.389.31.451.7.835.384,1.4s3.81,1.773,4.54,1.921c2.009.405,4.42.472,6.366.906,2.348.515,2.21,3.613,3.687,4.942-1.315-.744-.867.635-.983.656-.8.222-2.147-.775-2.887-.074-.137-.37-.127-.31-.493-.56.367-.353.254-.472.455-.874-1.322.169-.62-1.854-2.189-1.057,2.2,1.043.656,2.725.166,4.195-.233.694.155,2.073-.279,2.559-.691.765-1.385,1.53-2.08,2.326-.19-.98-.24-4.2-1.47-4.262-.539-.028-2.834,2.076-3.077,1.149-.148-.515,1.132-1.872,1.332-2.006.994-.659.73-2.284.173-3.229a1.664,1.664,0,0,1,.511.06c-.374-1.7-1.727-1.237-2.675-2.242-.814-.846-3.652-1.181-2.263.652-1.629.141-1.28,1.692-2.111,2.577.088-.522-.011-1.156.046-1.692-.85,1.865-3.042,2.326-2.485,5.337.5,2.686.952,4.519-.367,7.187-2.5,5.058-3.768-1.449-3.923-3.966-.1-1.611.673-3.363,1.075-4.886.31-1.177,1.435-2.876,1.262-3.994-.987.645-1.565,2.979-2.785,2.725a14.525,14.525,0,0,1,3.095-5.273c.035.271.07.546.127.825.412-.381.768-.381,1.181-.673-.169.243-.321.465-.479.716l.293.243c1.019-1.784,4.047-2.739,5.534-1,.441-1.248,1.526-.613,2.57-.472-.575-.564-.867-1.671-1.5-1.963-.832-.4-2.083-.049-1.671-1.389-.733.12-5.041,1.611-5.453,1.389-.987-.564-1.653-.081-2.383-1.079-.712-.994-1.706-.924-2.749-.353a3.846,3.846,0,0,1,2.284-2.485c-2.245-1.755-6.521,4.318-9.5,2.718.12-.271.229-.553.338-.814-1.241.412-2.475,1.237-3.733.582Zm-76.541-93.171h0c-.395-.032-.8-.384-1.206-.384.338-.257.582-.712.959-.938-1.4-.18-2.337,1.54-3.747,1.759-1.889.286-2.647.4-4.4-.377.486-1.477,2.735-1.928,3.959-2.5-2.566-.945-3.179-1.181-5.707-.2-1.558.613-3.137,1.153-4.706,1.688-1.706.571-3.483.807-5.168,1.378-.878.275-4.649.458-1.935,2.249.19-.141.673-.493.754-.546-.109-.215-.18-.352-.271-.536a11.1,11.1,0,0,1,5.139-.085,2.383,2.383,0,0,0-.3-.6,7.355,7.355,0,0,1,5.439,1.019c-.864,1.421-3.211.18-4.582.571a4.766,4.766,0,0,1,1.544,1.526,6.365,6.365,0,0,0-1.981,1.04c1.17,1.4-.821,1.558-1.734,1.727,1.251.969,2.675.278,3.962.86.906.423,2.108-1.886,2.933-2.425,1.332-.885,3.736-.187,1.826,1.054-.758.486-.885,1.163-1.244,1.463-.317.289-1.121.289-1.459.568,1.872,1.71,3.743-3.123,6.109-2.4a2.276,2.276,0,0,0-1.717-1.505c1.918-2.009,5.717.966,6.578-1.223a4.728,4.728,0,0,1-1.107.116c.074-1.329.976-.62,1.29-1.385.264-.645.529-1.269.775-1.914Zm25.8,19.37h0c-2.006-.864-5.2-1.491-7.12.063a22.8,22.8,0,0,0-1.8,2.256,3.915,3.915,0,0,1-2.919,1.519c-1.29.145-3.416.049-4.05-1.6-.173-.448-2.4.081-3.021-1.068-.162-.317-2.249-1.2-2.51-.955-.458.405,2.083,1.555,2.492,1.484-.733,1.731,3.141,3.077.768,3.648-.74.194-1.4-.423-1.928.391-.557.853-.236,1.2-1.251,1.421.159.12.331.268.476.4-.775.652-1.7,0-2.661-.014.039.166.078.349.106.511-1,.035-1.777-.525-2.732-.444,1.258,1.72,4.473,2.1,6.454,2.415,1.244.19,6.074-.515,5.27-2.115,1.516-1.322,2.422-.9,4.071-1.65.934-.427,1.928-1.731,2.742-2.457a6.708,6.708,0,0,1-.712.049,6.323,6.323,0,0,1,2.841-1.854c1.05-.271,1.734.183,2.637-.818-.8.36-.9.226-1.65.032.709-.18,1.449-.377,2.2-.543a2.7,2.7,0,0,1-1.974-.4c.529.046,1.089-.039,1.629.046-1.974-.687-3.7.691-5.555,1.844.649-2.295,6.8-3.687,7.124-1.047a9.455,9.455,0,0,0,1.075-1.114Zm33.462,52.025h0c.183-1.244.056-.67.807-1.1-.049.328-.123.631-.176.959a1.046,1.046,0,0,0,.321-.56c.969.36.687,1.622.567,2.559.271-.553.783-1.153,1.424-.828.455.215-.384,1.488-.522,2a5.026,5.026,0,0,1,1.114-.582,3.222,3.222,0,0,0-.959,3.655c.395,1.3,1.195-.222,1.124-.938.247.148.529.148.768.289-.532-1.163.448-2.45-.342-3.127-.8-.7-1.34-2.524-1.66-3.373-.6-1.562-3.6-8.111-2.274-8.869l-.321-.13c-.43.532-.529.441-1.156.557a1.847,1.847,0,0,1,1.248-1.4,7.247,7.247,0,0,0-.677-.56c-.959,1.727-.938,2.249.448,3.243-1.068-.476-3.088-1.5-3.532.2-.786,2.887-.321,2.319,1.791,2.866-2.45.536.546,3.437,1.16,4.653.282.162.564.317.846.479ZM22.358,195.025h0c-2.02-.85-3.014.645-5.164.405.892,1.389,2.263,1.629,3.652,2.122.236-.758,1.079-.532,1.868-.617a4.134,4.134,0,0,0-.063-.511c-.1-.6-.673-.532-.293-1.4ZM143.814,130.5h0c1.854.924,3.352,1.516,4.748,3.123,2.249,2.587,1.956,2.563,4.826.909.434-.257.885-.522,1.332-.783.409-.229.282.67.575.6a18.506,18.506,0,0,0,2.813-1.265L158.94,129c1.322.871,2.728-.236,3.1-1.667.317-1.251.948-1.2,2.062-1.688,2.4-1.057,6.211-1.826,8.231-3.6,1.3-1.149,1.184-1.741-.282-2.781a18.31,18.31,0,0,0-3.208-2.111c-2.348-.952-4.857-1.928-6.874.328.155-.353.116-.818.243-1.174-2.721.775-5.129-2.415-7.653-2.055-3,.441-6.017.853-9.031,1.28.511.931,2.749,3.916,2.256,4.378-1,.952-3.462,3.289-1.946,4.6-2.647.25-.694,1.237-1.678,2.531-.842,1.082-2.228,2.171-1.865,3.761a6.586,6.586,0,0,0,1.516-.286Zm11.661-25.066c-1.068-.145-2.136-.3-3.211-.455-1.939-2.4-.166-3.1,2.182-3.352,1.459-.18,3.606-2.89,4.738-3.86,1.7-1.456,2.457-2.323,4.558-2.6.775-.1,1.935-.518,2.693-.247,1.043.395,1.956,1.057,2.912.152-.518-.176-.6-.462-.955-.67,2.175-.839,2.94-.018,5.012,1.107-1.361.508-4.237,1.963-1.022,2.549a3.034,3.034,0,0,0-1.607.331c2.457,1.248-1.04,3.839-2.372,4.2-2,.553-4.223-1.724-1.956-3.19-.4-.405-1.741-.543-1.741.293,0,1.738-.945.881-1.932,1.495a1.071,1.071,0,0,1,.578,1.808c-1.163,1.315-1.688-1.079-2.319-.775-1.089.518.656,1.854.007,2.58-.585.673-1.808.793-2.594,1.061.236-1.569-.938-2.707-1.808-1.893-.448.448.374,1.685-1.16,1.473Zm23.381-13.472h0c-2.02-1.78-2.048-2-4.484-1.04l2.64,1.822c.62-.264,1.223-.525,1.844-.783ZM59.931,205.9h0c.969.694,2.323-.363,2.739-1,.155.148.314.31.476.448.166-.229.338-.448.493-.67-.645-.275-1.308-.546-1.942-.818a3.25,3.25,0,0,0-1.766,2.037Zm64.447,19.334h0c.166-1.727-4.061-1.1-4.1-.73-.2,2.185,4.54,10.279,6.151,8.319-.469-.434-.945-.86-1.417-1.287a18.62,18.62,0,0,1-.634-6.3ZM57.742,208.166h0c-2.707-1.632-3.088,4.05-.275,3.828.8-.056,1.442-1.414,2.446-1.54a1.577,1.577,0,0,0,1.632-1.731c.716.342,1.209.116,1.519-.659-.275-.063-.539-.127-.8-.18.62-1.787-4.794-2.118-4.519.282Zm90.468,38.3h0c-.377-.666-1.565-.85-2.193-1.061-.952-.3-1.089-.959-1.611-1.914-1.562-2.841-2.027-2.214-4.847-3.144-2.221-.751-2.95-1.787-5.245-1.057,3.712,4.554,7.639,7.142,12.584,9.8,3.2,1.156,2.852.028,1.311-2.623ZM670.022,466.93l.1.148c.694,3.486,1.808,6.172.465,9.422-.511-.5-1.04-1.026-1.544-1.537a22.689,22.689,0,0,1-1.16,10.233q-2.7,8.983-5.376,18.005c-.5,1.639-1,3.3-1.48,4.942-.067.212-3.927,1.361-4.448,1.622-.768.352-4.42-1.008-4.558-1.822a51.849,51.849,0,0,0-1.195-6.451c-.631-2.252-1.16-3.976-.384-6.341.638-1.953,2.933-3.966,3.151-6,.219-1.882-1.079-4.9-1.5-6.733-.24-1.05.712-4.988,1.576-5.125a20.211,20.211,0,0,0,6.021-2.214c1.935-.976,2.616-2.6,4.093-4.3,1.844-2.1,2.668-2.115,2.785-5.094.166-3.744,2.675.148,3.454,1.237ZM880.1,368.742c.483.434.952.846,1.428,1.28.317-1.117-.7-1.421-.543-2.425.3-1.833.613-3.684.917-5.52.109-.7,1.406-1.163,2.052-1.033,1.967.4.98,1.569,3.236.455.712,1.53-.6,2.062-.356,3.169.437,2.1,1.276,1.075.536,3.472a7.375,7.375,0,0,1-.536,1.882c-.264.423-1.4-.395-1.36.391.1,2.023-1.354,1.269-.229,3.5.567,1.128-.025,2.654,1.537,2.728.546.028.68-1.2,1.449-1.026a5.293,5.293,0,0,1,1.727.645,9.408,9.408,0,0,0,1.826,1.107c.5.137.56-1.209,1.149-.585,1.255,1.308.24,2.094-1.195,1.364-.1,1.889,2.027,1.311,1.068,3.405-.582-.381-2.429-1.2-2.436-1.9-.049-1.932-.331-1.72-1.978-2.333-.127.8-.264,1.593-.4,2.4a4.98,4.98,0,0,0-1.424-1.65c-1.71-.966-1.206.141-2.566-.025-1.509-.19-2.841-2.009-.917-3.01-.909-.353-2.436-.469-2.619-1.6-.264-1.428-1.061-3.4-.367-4.692Zm5.28-25.605a24.785,24.785,0,0,1-2.485,6.433c-1.167-1.752-2.749-3.313-2.284-5.689a7.728,7.728,0,0,1,3.655-5.252c3.13-1.48,1.477,2.841,1.114,4.508Zm-6.94,42.042a4.863,4.863,0,0,1,.9.839c-.19.631.384,2.6.219,2.725-.62.472-2.453,1.378-2.573,2.175-.493,2.961-2.739,3.462-5.079,4.9a18.145,18.145,0,0,1,3.983-5.168c1.773-1.667,2.02-3,2.549-5.474Zm20.029,7.589c.811-.352,1.047.726.92,1.523-.208.219-.43.441-.638.673.236.028.409.282.811.282a2.793,2.793,0,0,1-.046,1.107c1.364.081.2,3.571-.018,4.508-.173-.109-.339-.2-.511-.31-.028.691-.063,1.389-.109,2.08-.73-1.177-.208-2.376-1.058-3.529-1.71,1.244-.793,2.221-.483,3.691.409,1.963-1.882,2.848-1.181.575l-.271-.018c-.476,1.688-3.116-.264-3.518-1.322-.631-1.643,1.544-4.748-1.745-4.307.12.423-.053.959.092,1.382-.716-.476-.716-.183-.8-1.142-.43.486-.546.282-.832,1.04-.539-3.18-1.837,1.188-2.5,1.741-1.47-2.076,1.079-3.726,2.5-4.149.768-.229.247-2.2,1.706-2.111,1.287.078,1.4,1.562.673,2.443,1.237-.49,1.847-2.742,3.19-1.748-.127-1.181.2-1.911,1.184-1.29.469-.677.268-.532,1.28-.363-.134-.871-.278-1.727-.416-2.6a2.462,2.462,0,0,1,1.78,1.851Zm-16.148,63.41c1.287,3-3.437-.039-4.938-.642-.141-2.337,4.382-.677,4.938.642Zm-9.708-4.3c.941-.021,1.523-.419,1.044-1.421,1.833-.694,6.528,1.724,2.15,2.457-2.993.5-4.956.737-7.924-.229.61-1.392.511-2.048,1.946-2.016a4.883,4.883,0,0,1,2.785,1.209Zm12.693,1.308c-.694.092-.9-.835-1.963.092-.631-.712-4.766-.254-3.2-1.984,1.357-1.53,4.255.969,5.633.152.666-.381,1.4.726,1.981.211,1.065-.934,1.17-1.057,2.5-.966,2.221.162,3.536-.582,5.739.243-1.537,1.406-4.752.5-6.578.543-.839.021-1.47,1.34-2.823,1.1-.6-.1-.758.553-1.287.613Zm1.865-12.08c.155-.783.948-3.6,1.671-1.466-.166-1.477.987-2.094,1.47-.465-.666-.159-1.273.395-.74,1.138.747,1.029.018,1.368-.666,2.4-.575-.543-1.16-1.075-1.734-1.6ZM847.172,421.4c.148-1.2.31-2.4.441-3.585.666-.4,1.315-.807,1.963-1.188.356,2.154,3.444,2.051,4.995,2.453-1.653-1.643-1.216-1.59-.018-3.624.931-1.607,2.4-1.629,4.054-2.164,1.509-.493,2.055-1.981,2.961-3.359,1.287-1.956,1.632-1.956,3.807-2.517,1.734-.455.687-1.512,1.893-2.9.673-.747,2.735-4.04,3.676-4.17.849-.109,3.127,2.087,3.736,2.876.437.567.987,1.717,1.681,1.875.885.222,1.431.1,1.787,1.057-1.047.271-2.1.6-3.169.888.441.589.871,1.188,1.3,1.77-.811.159-3.543.141-3.578,1.484-.074,2.781.783,2.612,1.618,4.988.155.434-.458,1.248-.278,1.628.314.638,1.41,1.28,1.893,1.741,2,1.833,1.012,2.168-1.167,1.692-1.082-.229-1.921,1.9-1.847,3.091.183,2.637.2,2.615-1.664,4.255-1.368,1.209-1.854,1.258-1.886,3.112-.032,1.988-.067,3.955-.113,5.957-.977.12-1-.705-.723-1.629-1.4.673-2.792,1.385-4.184,2.073-.18-.687-.264-2.154-.909-2.429-.631-.229-1.565.183-1.974-.06-2.566-1.621-2.841-1.015-5.488.476-.138-.786-.265-1.59-.391-2.376-.849.405-4.258,1.812-4.438.053-.211-2,.064-4.924-1.5-6.3-.282.906-.134.5-1.068.948.257-1.311-.18-.606-.409-1.4-.162-.575-.349-1.117-.522-1.671-.145-.515.564-.694.476-1.086-.155-.666-1.043-1.251-.952-1.97Zm47.055,35.313c-.761,1.047-2.2.9-3.345,1.139,1.406-1.258-.374-1.826.74-2.859a13.918,13.918,0,0,1,3.571-1.921c.391-.183.391-.917.74-1.086a9.486,9.486,0,0,1,1.925-.405,36.058,36.058,0,0,1,4.191-.483c-.536,1.914-4.308,2.876-5.816,3.581a5.087,5.087,0,0,0-2.006,2.034ZM301.542,362.725c-2.348-.363-3.123.642-5.012-.705-.656-1.992,4.9.271,6.236-.716-1.378-2.041-1.124-2.746-3.335-3.793,2.119-.987,2.732-.3,4.945-.261a7.207,7.207,0,0,0,1.97-.525c.723-.391,1.925.391,2.654.624.969.331,1.05-.409,1.618.684.751,1.48.832,1.48,2.337,1.791.624.145,2.009.969,1.636,1.621-.938,1.572-.666.381-2.016.381-1.819,0-2.94.536-4.547.589-.314.007-.55-.888-1.452-.254-.515.36-.515,2.334-1.079,2.527-1.251.441-1.061-1.7-1.526-1.946-.62-.31-1.734.092-2.429-.018ZM473.982,174.563c-1.107-.307-3.342,1.819-4.336,2.436-.853.123-1.731.25-2.587.367-.9.12-.712.754-1.442,1.114a5.854,5.854,0,0,1-4.293.275,8.817,8.817,0,0,1-2.52-.564c-.412-.261-.849-1.607-1.343-1.544-1.865.24-3.722.49-5.6.719-.723-1.942,2.136-1.414,2.721-3.109-.247-.025-.486-.056-.74-.081.046-.247.092-.49.148-.744-.969.145-1.371-.486-.677-1.255-1.308,0-5.15.867-5.5-.885,2.118.028,4.466-.927,6.831-.86-.021-.233-.046-.455-.064-.67a2.429,2.429,0,0,1-2.319-.187c.8-.4,1.607-.8,2.418-1.195-.976-.226-2.929-1.156-3.86-.786-1.984.783-2.534,1.181-4.47.345.68-.363.515-.624,1.364-.486.007-.314.014-.649.035-.959.557.338,1.516.86,1.879.194.338-.677-1.713-.631-.582-2.02.941-1.153,3.927,2.119,3.617-.821-.994-.176-1.8.056-2.094-1.072,2.26-.035,2.15.328,3.885,1.812.328.289,1.664.56,1.717,1.188a1.025,1.025,0,0,1-1.28,1.082,31.931,31.931,0,0,0,1.77,2.869,25.2,25.2,0,0,1,1.191-2.764c.645-1.061,1.953.13.948-2.256,1.269-.282,2.02,1.216,2.869,2.115-.388-1.117.078-2.475,1.276-2.436,1.491.039,1.773,1.107,2.668,2.4-.137-.853-.247-1.7-.377-2.566,2.277,1.029,2.9-.155,5.273.081-1.389-3.578,6.528-.352,4.9,2.386,1.336-.5,2.231.338,3.356,1,.564.345-.275,1.911.828,2.661-.941.92-1.664,2.259-3,1.523.063,1.837-.966,3.151-2.619,2.69Zm-19.553-37.238h0c-.345-1.4-1.78-4.674-1.3-6.073,1.241-3.567,1.97-8.079,4.463-10.811,1.636-1.836,3.3-3.662,4.97-5.5.455-.5-.705-4.716-.814-5.425-.264-1.6-.092-4.135-1.424-5.044-1.664-1.132-3.324-2.274-4.995-3.4q3.627-3.569,7.275-7.131c-2.556-1.731-4.209-2.422-5.45-5.407-.952-2.274,2-5.228,3.169-7.159,1.3-2.136,3.719-3.021,5.672-4.378a27.651,27.651,0,0,0,5.654-5.058c-.631-.539-1.262-1.089-1.893-1.621,2.238-.451,4.8-.532,6.824-1.706q3.791-2.2,7.607-4.4c-2.778-1.089-5.862-2.9-8.77-3.419-2.108-.381-6.465-.842-7.917.969-.92,1.163-1.569,2.859-3.031,2.6-1.752-.278-3.507-.582-5.259-.867-2-.335-5.992,2.425-7.921,3.254.3-.578,4.029-6.468,1.364-6.549-2.33-.074-4.547.381-6.5-1.188q4.727-1.7,9.443-3.416c-6.133-2.7-11.59-5.474-18.108-6.384-7.286-1.022-14.2-2.39-21.509-1.752-2.616.229-5.231.465-7.836.691-.885.074-2.7-.155-3.514.317-1.251.719-1.424,3.6-3.056,3.306-2.094-.363-4.166-.737-6.267-1.1-2.538-.444-5.58-1.748-7.984-.666q-5.3,2.432-10.6,4.854c3.335,2.136,7.015,3.7,9.172,7.275a117.015,117.015,0,0,0-17.727-5.189c-1.889-.377-4.639.6-6.532.835q-6.424.851-12.838,1.706c-1.865.25-4.815.018-6.549.913-2.429,1.248-4.857,2.513-7.29,3.761Q325.971,68.8,317,73.429c2.2,2.425,4.879,2.037,7.945,2.379-.659,1.681-1.325,3.366-1.981,5.055-.73,1.879-1,1.512-2.912,1.6a34.018,34.018,0,0,0-7.727,1.505q-5.235,1.517-10.483,3.021c-.832.243-.825,2.341-1,3.2-.138.645,1.47,2.238,1.826,2.718,1.043,1.435,2.365,4.265,3.856,5.146,2.044,1.2,4.078,2.415,6.126,3.613,1.022.613,3.9,3.105,5.076,2.947,2.312-.278,4.621-.592,6.93-.885,4.159-.532,7.794.307,11.946,1.008,2.129.352,4.251.73,6.359,1.072,1.04.176,3.215,4.068,3.888,4.942,2.862,3.669,4.4,8.044,6.341,12.4,1.047,2.348,1.378,2.573.568,4.988-.768,2.267-2.037,3.645-.412,5.386,1.688,1.8,3.8,2.8,3.169,5.4-.62,2.549-1.674,3.951.035,5.83,2.147,2.372,2,2.337,4.893,1.488,2.1-.627,4.205-1.241,6.313-1.865-.2,1.593-.395,3.162-.592,4.741-.056.525-2.03,1.019-2.45,1.177-1.452.62-2.9,1.255-4.357,1.865-.328.137-.363,2.217-.4,2.566-.271,2.108-1.442,5.756-.73,7.776q1.6,4.473,3.2,8.96c1.72,4.84,4.759,8.788,7.473,13.028,1.607,2.527,3.2,5.044,4.822,7.561.793,1.255,3.067,1.491,4.311,1.942,2.573.959,5.122,1.9,7.691,2.827.627.233,4.17.314,4.29-.109q2.4-7.45,4.783-14.921c1.273-4,2.668-7.885,4.11-11.8.776-2.122.687-2.164,2.64-2.806q3.86-1.264,7.727-2.524c1.6-.525,3.973-.811,5.418-1.78,1.614-1.107,3.067-3.825,4.336-5.407,1.131-1.4,1.561-2.3,3.148-2.7q3.622-.989,7.244-1.946c3.472-.92,7.73-1.287,10.878-3.225q5.906-3.606,11.787-7.216c1.868-2.274,2.013-2.185,1.336-5.058ZM849.647,361.809c-.5.211.275.814-.553.744a2.894,2.894,0,0,1-1.664-.493c-1.544-.885-1.223-1.28-1.206-3.211,1.911-1.223,3.25-3.75,5.992-2.21.046-.233.106-.486.155-.716.948.162,1.258.955,1.04,1.981-1.079-.081-1.315,1.41-1.48,2.429-.155,1.114-1.551,1.146-2.284,1.477ZM837.521,443c-1.079-2.182-1.9.25-3.243-1.41.011.55-.226,1.146-.2,1.71-2.876-2.658-5.432-5.383-7.966-8.171a17.452,17.452,0,0,1-3.394-4.311c-.874-1.911-1.734-5.432-3.151-6.912-.582-.613-1.477-.282-1.734-1.22-.356-1.368-.73-2.728-1.086-4.078-.613-2.295-3.525-1.8-3.627-4.315-.081-2.256-2.7-2.757-3.916-3.835-.55-.472-3.68-4.406-3.042-5.34.4-.578,4.336.924,5.15,1.015,2.623.3,2.21,1.3,3.61,3.3,1.058,1.431,3.106,2.767,4.353,3.966,1.519,1.449,3.387,2,4.621,3.7.666.913,1.406.814,2.478,1,1.752.331.564.582,1.572,1.364s1.6.074,1.6,1.639c0,.842,1.826.7,2.094,2.069.19.934-.917,1.308-.716,2.542.109.79,1.727,1.05,2.358,1.311.539.233.627,2.355.747,2.972.222,1.177,1.579,1.114.176,2.524A2.4,2.4,0,0,1,838.261,435c-.776,2.231-.257,5.506-.74,7.991Zm6.637-11.234c1.336,1.058,1.237,3.254-.885,2.556-.12-.532-.73-3.825.885-2.556Zm17.135,17.163c3.239-.726,1.442,1.91,2.838,3.7-1.16-.525-2.337-1.047-3.507-1.548-1.953.37-2.711-.264-4.618-.437-.31-.018-.469.557-.878.5-.641-.067-1.276-.173-1.935-.24a11.5,11.5,0,0,1-2.383-.8,14.882,14.882,0,0,0-2.8-1.019c-.934-.081-2,.6-2.915.423-1.752-.342-3.5-1.428-5.379-1.794.056-.282.127-.592.183-.9-1.572-.363-4.068-.539-2.193-2.714.642-.758.684-1.121,1.572-.917.874.222,1.78.878,2.143-.19.649.434,3.719,1.124,3.9,1.459,1.251,2.122,2.852,1.65,5.108,1.882.575.056,1.389.462,1.6-.226.356-1.174.832-1.741,1.7-.659.7.9,3.405,1.163,4.448.673-.419,2.013,1.653,3.141,3.123,2.8Zm-25.542-18.763c.635-.825,1.012-2.175,1.889-.825-.056-.282-.1-.553-.137-.857,2.073-.19.765,3.634,3.335,3.543-.687.557-.789,1.128-.285,1.72a2.559,2.559,0,0,1-1.727-.754c-.564-.472-.31-.825-.747-1.3-.328-.367-.546-1.213-.9-1.181a1.56,1.56,0,0,1-1.431-.342Z" transform="translate(0 0)" fill="#fff"/>
  </g>
</svg>
